<?xml version="1.0" standalone="no"?>
<!DOCTYPE svg PUBLIC "-//W3C//DTD SVG 20010904//EN"
 "http://www.w3.org/TR/2001/REC-SVG-20010904/DTD/svg10.dtd">
<svg version="1.0" xmlns="http://www.w3.org/2000/svg"
 width="600.000000pt" height="600.000000pt" viewBox="0 0 600.000000 600.000000"
 preserveAspectRatio="xMidYMid meet">
<metadata>
Created by potrace 1.11, written by Peter Selinger 2001-2013
</metadata>
<g transform="translate(0.000000,600.000000) scale(0.100000,-0.100000)"
fill="#000000" stroke="none">
<path d="M380 3000 l0 -3000 1893 3 c1040 2 1911 6 1934 10 105 17 324 75 358
96 6 3 15 6 20 7 21 4 152 69 223 110 40 24 77 44 82 44 5 0 10 3 12 8 2 4 32
30 68 56 70 53 138 115 204 184 23 24 51 55 64 68 12 12 22 26 22 29 0 4 7 13
16 22 26 27 113 159 153 235 34 66 107 240 117 278 2 8 12 49 23 90 37 143 46
222 45 410 0 191 -8 252 -58 445 -14 53 -20 71 -25 80 -3 6 -6 12 -7 15 0 3
-6 18 -12 33 -7 16 -12 31 -12 33 0 13 -93 199 -101 202 -5 2 -9 8 -9 13 0 14
-95 153 -144 213 -67 81 -195 202 -272 258 -40 29 -73 55 -73 58 0 3 22 20 49
38 27 19 60 44 73 55 107 98 141 132 199 199 130 149 261 376 308 533 6 22 14
47 17 55 3 8 8 24 10 35 2 11 8 31 13 45 11 29 23 90 38 200 9 72 9 352 -1
410 -5 25 -10 61 -13 80 -3 19 -12 62 -20 95 -9 33 -18 67 -20 75 -5 23 -43
133 -53 155 -171 389 -415 656 -771 842 -107 57 -298 125 -410 147 -41 8 -91
18 -110 22 -19 5 -889 9 -1932 11 l-1898 3 0 -3000z m1367 1796 c7 -3 13 -1
13 5 0 6 5 7 11 4 6 -4 34 -6 62 -6 52 2 85 2 132 2 14 -1 32 -1 40 -1 8 0 39
0 68 0 28 0 66 1 82 3 17 1 42 -1 58 -5 16 -4 27 -3 27 3 0 6 5 7 11 4 11 -8
101 -9 134 -2 11 2 29 1 40 -3 11 -4 29 -4 40 0 11 4 31 4 45 0 14 -3 36 -4
50 0 14 4 37 3 51 -1 15 -4 32 -3 39 1 7 4 25 4 40 0 15 -4 33 -4 40 0 7 4 25
4 40 0 15 -4 33 -4 40 0 7 4 25 4 40 0 15 -4 33 -4 40 0 7 4 25 4 40 0 15 -4
33 -4 40 0 7 4 25 4 40 0 15 -4 33 -4 40 0 7 4 25 4 40 0 15 -4 33 -4 40 0 7
4 25 4 40 0 15 -4 33 -4 40 0 7 4 25 4 40 0 15 -4 33 -4 40 0 7 4 25 4 40 0
15 -4 33 -4 40 0 7 4 25 4 40 0 15 -4 33 -4 40 0 7 4 25 4 40 0 15 -4 33 -4
40 0 7 4 25 4 40 0 15 -4 33 -4 40 0 7 4 25 4 40 0 15 -4 33 -4 40 0 7 4 25 4
40 0 15 -4 33 -4 40 0 7 4 26 4 41 0 16 -5 29 -5 29 0 0 5 13 5 29 0 15 -4 34
-4 42 0 7 5 16 7 21 4 4 -3 42 -6 85 -9 246 -12 454 -173 534 -413 17 -52 22
-91 23 -172 0 -114 -4 -143 -34 -224 -77 -205 -274 -357 -495 -382 -71 -8
-124 -9 -131 -2 -3 4 -19 2 -35 -2 -36 -11 -32 -10 -66 -1 -16 5 -37 5 -48 1
-11 -4 -32 -4 -47 1 -15 4 -30 4 -33 -1 -3 -4 -21 -4 -40 0 -19 4 -37 4 -40 0
-3 -4 -20 -5 -37 -1 -18 4 -42 6 -53 5 -11 -1 -32 -3 -47 -3 -16 -1 -40 -1
-55 -2 -40 -2 -64 -2 -98 0 -16 1 -37 1 -45 1 -8 -1 -24 -1 -35 0 -29 1 -88 1
-105 0 -8 0 -28 0 -45 1 -35 2 -61 2 -95 0 -14 -1 -34 -1 -45 -1 -11 0 -53 0
-92 0 l-73 -1 0 -600 c0 -563 1 -599 18 -600 9 -1 21 -1 27 1 31 6 115 4 115
-3 0 -5 5 -5 11 -1 6 3 41 6 78 5 101 -3 114 -3 144 -2 15 1 39 1 55 2 34 1
70 1 105 0 15 -1 39 -1 55 -2 34 -1 70 -1 105 0 15 1 39 1 55 2 36 1 71 1 102
0 14 -1 33 -1 43 -1 9 0 40 0 67 0 28 0 64 1 80 1 17 0 49 -1 73 -1 23 -1 47
-1 52 0 6 1 12 1 15 0 3 -1 23 -3 45 -4 103 -6 252 -60 315 -116 14 -12 34
-30 45 -39 74 -60 154 -198 179 -310 15 -63 15 -203 2 -264 -44 -197 -210
-377 -401 -436 -54 -17 -153 -35 -180 -33 -19 1 -50 2 -70 2 -37 0 -130 -1
-142 0 -7 0 -19 0 -25 1 -7 0 -26 0 -43 0 -16 -1 -37 -1 -45 0 -8 0 -26 0 -40
-1 -14 0 -36 -1 -50 -1 -14 0 -36 -1 -50 -3 -14 -1 -37 2 -52 6 -16 3 -28 3
-28 -2 0 -5 -13 -5 -30 0 -17 5 -30 5 -30 0 0 -5 -13 -5 -30 0 -17 5 -30 5
-30 0 0 -5 -13 -5 -30 0 -17 5 -30 5 -30 0 0 -5 -13 -5 -30 0 -17 5 -30 5 -30
0 0 -5 -13 -5 -30 0 -17 5 -30 5 -30 0 0 -5 -13 -5 -30 0 -17 5 -30 5 -30 0 0
-5 -13 -5 -30 0 -17 5 -30 5 -30 0 0 -5 -13 -5 -30 0 -19 5 -30 5 -30 -1 0 -6
-5 -7 -11 -4 -6 4 -34 7 -62 6 -55 -1 -79 -1 -99 0 -7 0 -26 0 -43 0 -16 -1
-37 -1 -45 0 -8 0 -26 0 -40 -1 -14 0 -36 -1 -50 -1 -14 0 -36 -1 -50 -3 -14
-1 -37 2 -52 6 -16 3 -28 4 -28 0 0 -4 -16 -7 -35 -7 -19 0 -35 3 -35 7 0 4
-13 3 -30 -2 -17 -5 -30 -5 -30 0 0 5 -13 5 -30 0 -17 -5 -30 -5 -30 0 0 5
-13 5 -30 0 -17 -5 -30 -5 -30 0 0 5 -13 5 -29 0 -15 -4 -34 -4 -42 0 -7 5
-20 5 -29 0 -9 -5 -22 -5 -30 0 -8 5 -21 5 -30 0 -9 -5 -22 -5 -30 0 -8 5 -21
5 -31 0 -9 -5 -19 -7 -22 -3 -4 3 -33 5 -64 4 -56 -2 -68 -2 -95 0 -7 0 -26 0
-43 0 -16 -1 -37 -1 -45 0 -8 0 -26 0 -40 -1 -14 0 -32 0 -40 0 -8 1 -30 -1
-47 -3 l-33 -4 0 1802 0 1803 36 0 c19 0 37 2 40 4 5 5 73 0 91 -6z"/>
</g>
</svg>
