<svg width="128" height="128" viewBox="0 0 128 128" fill="none" xmlns="http://www.w3.org/2000/svg">
<path d="M80.1135 89.2593H93.9285L71.875 32.0243H56.6005L34.547 89.2593H48.363L51.967 79.5643H72.8045L69.0325 68.8363H55.3125L64.2375 44.2093L80.1135 89.2593ZM125.67 46.884C125.179 45.116 123.353 44.0775 121.577 44.5705C119.809 45.0615 118.772 46.8935 119.263 48.662C120.65 53.6545 121.352 58.815 121.352 64C121.352 95.624 95.624 121.351 64 121.351C32.376 121.351 6.6485 95.624 6.6485 64C6.6485 32.3755 32.376 6.648 64 6.648C77.3965 6.648 90.359 11.407 100.59 19.876C100.192 20.826 99.9705 21.8685 99.9705 22.9625C99.9705 27.38 103.552 30.961 107.969 30.961C112.387 30.961 115.967 27.38 115.967 22.9625C115.967 18.545 112.387 14.964 107.969 14.964C107.119 14.964 106.3 15.0995 105.531 15.3455C94.011 5.528 79.2565 0 64 0C28.7105 0 0 28.71 0 64C0 99.2895 28.7105 127.999 64 127.999C99.2895 127.999 128 99.2895 128 64C128 58.214 127.217 52.455 125.67 46.884Z" fill="#DFE5EC"/>
</svg>
