<svg width="64" height="64" viewBox="0 0 64 64" fill="black" xmlns="http://www.w3.org/2000/svg">
    <path d="M49.5272 34.0012C49.6171 43.6865 58.0237 46.9095 58.1168 46.9505C58.0457 47.1777 56.7736 51.5435 53.6878 56.053C51.0202 59.9519 48.2518 63.8362 43.8906 63.9166C39.6053 63.9956 38.2273 61.3755 33.328 61.3755C28.4301 61.3755 26.8991 63.8363 22.8426 63.9957C18.6329 64.1551 15.4271 59.7799 12.7376 55.8953C7.24158 47.9495 3.0415 33.4425 8.68115 23.6499C11.4828 18.7869 16.4896 15.7075 21.924 15.6285C26.0578 15.5496 29.9595 18.4096 32.4866 18.4096C35.0122 18.4096 39.7536 14.9703 44.7382 15.4754C46.8249 15.5622 52.6825 16.3183 56.4437 21.8238C56.1406 22.0116 49.4545 25.904 49.5272 34.0012V34.0012ZM41.4734 10.2186C43.7083 7.51324 45.2126 3.74719 44.8022 0C41.5807 0.129478 37.6852 2.14672 35.3745 4.85055C33.3036 7.24491 31.49 11.0772 31.9794 14.7503C35.5701 15.0281 39.2383 12.9256 41.4734 10.2186Z"/>
</svg>
