<svg width="128" height="127" viewBox="0 0 128 127" fill="none" xmlns="http://www.w3.org/2000/svg">
<g clip-path="url(#clip0)">
<g clip-path="url(#clip1)">
<path d="M59.7017 30.2298L32.4891 3.01728L29.8523 0.380432L9.3673 20.8654L-2.30024e-06 30.2298C-0.467894 30.7001 -0.730551 31.3366 -0.730551 32C-0.730551 32.6634 -0.467894 33.2998 -2.30024e-06 33.7701L18.7148 52.4849L29.8523 63.6195L50.3344 43.1346L50.6534 42.8184L59.7017 33.7842C59.9362 33.5515 60.1223 33.2746 60.2493 32.9696C60.3763 32.6646 60.4417 32.3374 60.4417 32.007C60.4417 31.6766 60.3763 31.3495 60.2493 31.0445C60.1223 30.7395 59.9362 30.4626 59.7017 30.2298V30.2298ZM29.8523 41.3503L20.5019 32L29.8523 22.6496L39.1998 32L29.8523 41.3503Z" fill="#2684FF"/>
<path d="M29.8522 22.6496C26.9116 19.7096 25.2538 15.7254 25.2411 11.5671C25.2284 7.40888 26.8618 3.41457 29.7845 0.456665L9.32495 20.9077L20.4595 32.0423L29.8522 22.6496Z" fill="url(#paint0_linear)"/>
<path d="M39.2251 31.9746L29.8522 41.3504C32.804 44.303 34.4622 48.3071 34.4622 52.4821C34.4622 56.6572 32.804 60.6613 29.8522 63.6139L50.3681 43.1092L39.2251 31.9746Z" fill="url(#paint1_linear)"/>
</g>
<g clip-path="url(#clip2)">
<path d="M2.31514 113.832C1.65485 114.909 0.913297 116.159 0.283485 117.154C-0.280246 118.107 0.0223872 119.335 0.964088 119.917L14.1698 128.044C14.6334 128.33 15.1924 128.418 15.7215 128.288C16.2506 128.158 16.7053 127.821 16.9837 127.353C17.5119 126.469 18.1925 125.321 18.934 124.092C24.1656 115.458 29.4275 116.514 38.9153 121.045L52.0093 127.272C52.5053 127.508 53.0756 127.533 53.5904 127.342C54.1052 127.15 54.5206 126.759 54.7419 126.256L61.0299 112.034C61.4741 111.019 61.0221 109.834 60.014 109.373C57.251 108.073 51.7554 105.482 46.8083 103.095C29.011 94.4505 13.8854 95.0092 2.31514 113.832Z" fill="url(#paint2_linear)"/>
<path d="M61.5288 81.558C62.1891 80.4812 62.9306 79.2317 63.5604 78.2362C64.1242 77.2836 63.8215 76.055 62.8798 75.4732L49.6741 67.3466C49.2068 67.0318 48.6297 66.9253 48.0808 67.0524C47.5319 67.1795 47.0604 67.5289 46.779 68.017C46.2508 68.9008 45.5702 70.0487 44.8286 71.2778C39.5971 79.9123 34.3351 78.8559 24.8473 74.3253L11.794 68.1288C11.298 67.8927 10.7277 67.8675 10.2129 68.0589C9.69807 68.2503 9.28268 68.6419 9.06138 69.1446L2.77342 83.3662C2.32916 84.3819 2.7812 85.5662 3.78924 86.0276C6.55229 87.3279 12.0479 89.9182 16.995 92.3054C34.8329 100.94 49.9585 100.361 61.5288 81.558Z" fill="url(#paint3_linear)"/>
</g>
<g clip-path="url(#clip3)">
<path d="M97.0303 0C79.8909 0 66 5.85576 66 13.0659C66.0065 13.4352 66.0439 13.8029 66.112 14.1658L71.5808 42.864C73.8878 55.1069 84.5821 63.9743 97.0405 63.9743C109.499 63.9743 120.193 55.1069 122.5 42.864L127.949 14.1658C128.016 13.8063 128.054 13.4417 128.061 13.0761C128.061 5.85576 114.17 0 97.0303 0ZM97.0303 47.5282C88.0684 47.5282 88.8121 26.7021 78.7707 23.6267C77.9603 23.3794 77.1587 23.1042 76.3673 22.8017C83.0087 20.4989 90.0017 19.3753 97.0303 19.4817C104.059 19.3753 111.052 20.4989 117.693 22.8017C116.92 23.0868 116.125 23.3721 115.29 23.6267C105.249 26.6817 106.002 47.5282 97.0303 47.5282V47.5282Z" fill="#2684FF"/>
<path d="M76.3673 22.8121C83.0087 20.5089 90.0017 19.3852 97.0303 19.4916C104.059 19.3852 111.052 20.5089 117.693 22.8121C124.048 20.4187 128.061 16.9459 128.061 13.0659C128.061 5.85576 114.17 0 97.0303 0C79.8909 0 66 5.85576 66 13.0659C66 16.9358 70.0024 20.4187 76.3673 22.8119V22.8121Z" fill="url(#paint4_linear)"/>
</g>
<path d="M84.2869 95.6482C83.6974 94.8902 82.6025 94.7218 81.8445 95.3113C81.5918 95.4798 81.4234 95.7324 81.3392 95.9851L66.1793 126.389C65.7581 127.316 66.095 128.41 67.0215 128.832C67.2741 128.916 67.5268 129 67.8637 129H89.0033C89.6771 129 90.3509 128.663 90.6035 127.989C95.0673 118.557 92.288 104.239 84.2869 95.6482Z" fill="url(#paint5_linear)"/>
<path d="M95.4041 68.0235C87.74 79.8988 86.8135 94.8902 93.0459 107.608L103.237 127.989C103.574 128.579 104.163 129 104.837 129H125.977C126.987 129 127.829 128.158 127.829 127.147C127.829 126.894 127.745 126.558 127.661 126.305C127.661 126.305 99.1941 69.3711 98.5203 67.9393C98.0992 67.0971 97.0886 66.7602 96.2464 67.1813C95.8252 67.434 95.5726 67.6866 95.4041 68.0235Z" fill="#2684FF"/>
</g>
<defs>
<linearGradient id="paint0_linear" x1="28.1781" y1="13.1892" x2="15.1209" y2="26.2435" gradientUnits="userSpaceOnUse">
<stop offset="0.18" stop-color="#0052CC"/>
<stop offset="1" stop-color="#2684FF"/>
</linearGradient>
<linearGradient id="paint1_linear" x1="2382.01" y1="2745.68" x2="3715.28" y2="3610.03" gradientUnits="userSpaceOnUse">
<stop offset="0.18" stop-color="#0052CC"/>
<stop offset="1" stop-color="#2684FF"/>
</linearGradient>
<linearGradient id="paint2_linear" x1="60.6743" y1="132.239" x2="45.886" y2="98.3127" gradientUnits="userSpaceOnUse">
<stop offset="0.18" stop-color="#0052CC"/>
<stop offset="1" stop-color="#2684FF"/>
</linearGradient>
<linearGradient id="paint3_linear" x1="3.16959" y1="63.1411" x2="17.9815" y2="97.084" gradientUnits="userSpaceOnUse">
<stop offset="0.18" stop-color="#0052CC"/>
<stop offset="1" stop-color="#2684FF"/>
</linearGradient>
<linearGradient id="paint4_linear" x1="97.0303" y1="22.6593" x2="97.0303" y2="0.407425" gradientUnits="userSpaceOnUse">
<stop offset="0.18" stop-color="#0052CC"/>
<stop offset="1" stop-color="#2684FF"/>
</linearGradient>
<linearGradient id="paint5_linear" x1="92.6148" y1="100.345" x2="76.5827" y2="128.114" gradientUnits="userSpaceOnUse">
<stop stop-color="#0052CC"/>
<stop offset="0.923" stop-color="#2684FF"/>
</linearGradient>
<clipPath id="clip0">
<rect width="128" height="128" fill="white"/>
</clipPath>
<clipPath id="clip1">
<rect width="60.4416" height="64" fill="white"/>
</clipPath>
<clipPath id="clip2">
<rect width="64" height="61.5" fill="white" transform="translate(0 67)"/>
</clipPath>
<clipPath id="clip3">
<rect width="62.0606" height="64" fill="white" transform="translate(66)"/>
</clipPath>
</defs>
</svg>
