<svg width="128" height="128" viewBox="0 0 128 128" fill="none" xmlns="http://www.w3.org/2000/svg">
<path d="M112.206 26.1383L71.7986 2.14822C69.4412 0.742274 66.7476 0 64.0028 0C61.258 0 58.5644 0.742274 56.207 2.14822L15.792 26.1383C13.4022 27.58 11.4278 29.6174 10.062 32.0513C8.69618 34.4851 7.98573 37.2318 8.00022 40.0227V87.9948C7.98713 90.7843 8.69825 93.5294 10.064 95.9617C11.4298 98.394 13.4034 100.43 15.792 101.871L56.1989 125.853C58.5566 127.258 61.2501 128 63.9947 128C66.7393 128 69.4328 127.258 71.7905 125.853L112.197 101.871C114.589 100.43 116.565 98.3934 117.932 95.9595C119.299 93.5257 120.011 90.7784 119.997 87.9867V40.0227C120.012 37.2318 119.301 34.4851 117.936 32.0513C116.57 29.6174 114.595 27.58 112.206 26.1383Z" fill="white"/>
<path d="M112.206 26.1383L71.7986 2.14822C69.4412 0.742274 66.7476 0 64.0028 0C61.258 0 58.5644 0.742274 56.207 2.14822L15.792 26.1383C13.4022 27.58 11.4278 29.6174 10.062 32.0513C8.69618 34.4851 7.98573 37.2318 8.00022 40.0227V87.9948C7.98713 90.7843 8.69825 93.5294 10.064 95.9617C11.4298 98.394 13.4034 100.43 15.792 101.871L56.1989 125.853C58.5566 127.258 61.2501 128 63.9947 128C66.7393 128 69.4328 127.258 71.7905 125.853L112.197 101.871C114.589 100.43 116.565 98.3934 117.932 95.9595C119.299 93.5257 120.011 90.7784 119.997 87.9867V40.0227C120.012 37.2318 119.301 34.4851 117.936 32.0513C116.57 29.6174 114.595 27.58 112.206 26.1383ZM57.6149 123.402L17.2079 99.4195C15.2448 98.2299 13.6229 96.5526 12.5 94.5506C11.3771 92.5487 10.7914 90.2902 10.7997 87.9948V40.0227C10.7906 37.7272 11.376 35.4684 12.499 33.4663C13.622 31.4642 15.2443 29.787 17.2079 28.598L57.6149 4.60791C59.5452 3.45632 61.751 2.84832 63.9987 2.84832C66.2465 2.84832 68.4523 3.45632 70.3826 4.60791L110.757 28.598C112.402 29.594 113.809 30.9368 114.881 32.5327C115.953 34.1286 116.663 35.9392 116.963 37.8381C115.62 34.9819 112.602 34.1971 109.082 36.2199L70.8843 59.8783C66.1186 62.6535 62.6071 65.7848 62.599 71.5294V118.636C62.599 122.075 63.9826 124.3 66.1186 124.955C65.4191 125.083 64.7099 125.151 63.9987 125.157C61.7518 125.156 59.5467 124.549 57.6149 123.402Z" fill="#2F3A3E"/>
<path d="M101.614 92.631L91.549 98.6508C91.417 98.7039 91.3032 98.794 91.2214 98.9103C91.1395 99.0266 91.0931 99.1641 91.0878 99.3062V101.952C91.0878 102.276 91.3062 102.405 91.5732 102.251L101.792 96.0374C101.915 95.9455 102.009 95.8206 102.063 95.6774C102.118 95.5342 102.13 95.3784 102.1 95.2283V92.9061C102.092 92.6068 101.857 92.4773 101.614 92.631Z" fill="#3AB14A"/>
<path d="M80.189 70.4695C80.5127 70.3077 80.7797 70.4695 80.7878 70.9307L80.8201 74.4422C82.0305 73.8924 83.3809 73.7285 84.6877 73.973C84.9385 74.0377 85.0437 74.3775 84.9466 74.7821L84.1779 77.8648C84.1197 78.0974 83.9994 78.3099 83.83 78.4797C83.7705 78.5384 83.7023 78.5875 83.6278 78.6253C83.5363 78.6748 83.4308 78.6919 83.3284 78.6739C82.0541 78.3917 80.7203 78.6058 79.5984 79.2726C78.7945 79.6348 78.1091 80.2164 77.6211 80.9506C77.133 81.6849 76.862 82.542 76.8393 83.4234C76.8393 85.0416 77.6484 85.4866 80.4722 85.5352C84.2022 85.5999 85.8204 87.2262 85.8609 90.9886C85.817 92.9289 85.3514 94.8364 84.4963 96.5787C83.6412 98.3211 82.4172 99.8564 80.9091 101.078L80.9739 104.525C80.971 104.736 80.9155 104.942 80.8123 105.126C80.7092 105.31 80.5616 105.465 80.3832 105.577L78.3443 106.75C78.0206 106.912 77.7536 106.75 77.7455 106.297V102.907C75.9978 103.635 74.2259 103.805 73.0931 103.352C72.8828 103.271 72.7857 102.955 72.8747 102.591L73.611 99.4761C73.6669 99.2296 73.7935 99.0047 73.9751 98.8288C74.0327 98.7737 74.0981 98.7273 74.1692 98.6913C74.2214 98.6678 74.2779 98.6557 74.3351 98.6557C74.3923 98.6557 74.4488 98.6678 74.501 98.6913C75.9434 99.0824 77.4818 98.8875 78.7812 98.1492C79.7011 97.7055 80.4822 97.0186 81.0398 96.1629C81.5975 95.3072 81.9104 94.3153 81.9448 93.2945C81.9448 91.5468 80.982 90.8186 78.7084 90.8025C75.7713 90.8025 73.0446 90.2361 72.9879 85.9478C73.0213 84.0976 73.4638 82.2776 74.2835 80.6186C75.1032 78.9595 76.28 77.5024 77.7293 76.3518L77.5837 72.824C77.5831 72.6104 77.637 72.4002 77.7403 72.2133C77.8437 72.0264 77.9931 71.869 78.1743 71.756L80.189 70.4695Z" fill="white"/>
</svg>
