<svg width="128" height="128" viewBox="0 0 128 128" fill="none" xmlns="http://www.w3.org/2000/svg">
<g clip-path="url(#clip0)">
<g clip-path="url(#clip1)">
<path d="M84.9957 28.4506C84.995 26.8426 84.6514 25.4218 83.9568 24.2026C83.2744 23.0033 82.2521 21.9986 80.8815 21.2037C69.5655 14.6726 58.2386 8.16148 46.9266 1.62378C43.8769 -0.138313 40.9199 -0.0742313 37.8927 1.71343C33.3887 4.37234 10.8385 17.3043 4.11885 21.2C1.3517 22.8038 0.00498047 25.2578 0.00431641 28.4476C0 41.5821 0.00431641 54.716 0 67.8508C0.000664063 69.4233 0.329707 70.8165 0.99377 72.0178C1.67643 73.253 2.7127 74.2856 4.1152 75.0984C10.8352 78.9941 33.3884 91.9251 37.8914 94.5847C40.9199 96.3733 43.8769 96.4371 46.9276 94.6743C58.2399 88.1363 69.5675 81.6255 80.8851 75.0944C82.2876 74.2819 83.3239 73.2487 84.0066 72.0145C84.6696 70.8132 84.9993 69.42 85 67.8472C85 67.8472 85 41.5855 84.9957 28.4506" fill="#A9B9CB"/>
<path d="M46.8499 1.70942C43.8052 -0.0483562 40.8531 0.0157259 37.831 1.79873C33.3343 4.45066 10.8209 17.3491 4.11221 21.2348C1.34938 22.8342 0.00498047 25.2819 0.00431641 28.4635C0 41.5637 0.00431641 54.6637 0 67.7643C0.000664063 69.3328 0.329043 70.7224 0.992109 71.9203C1.67377 73.1525 2.70838 74.1825 4.10855 74.9929C6.33803 76.2819 8.56917 77.568 10.802 78.8511L72.9224 16.7308C64.2305 11.7258 55.5362 6.72474 46.8499 1.70942Z" fill="#7F8B99"/>
<path d="M51.2842 42.1621L64.512 42.2554C64.512 36.744 58.9332 23.247 42.9389 23.247C32.7486 23.247 19.049 29.7256 19.049 48.3519C19.049 66.9778 32.4786 73.0517 42.9389 73.0517C59.8782 73.0517 63.9266 61.3303 63.9266 54.7063L51.3071 53.9848C51.3071 53.9848 51.6448 61.6464 42.8715 61.6464C34.7733 61.6464 33.4219 51.726 33.4219 48.3519C33.4219 43.223 35.2458 34.9896 42.8715 34.9896C50.4976 34.9896 51.2842 42.1621 51.2842 42.1621" fill="white"/>
</g>
<g clip-path="url(#clip2)">
<path d="M127.857 61.0424C127.856 59.4437 127.513 58.0309 126.82 56.8185C126.138 55.6262 125.118 54.6269 123.749 53.8368C112.452 47.3429 101.144 40.8689 89.8499 34.3684C86.8052 32.616 83.8531 32.6799 80.831 34.4574C76.3343 37.1011 53.8209 49.9595 47.1122 53.8332C44.3494 55.4276 43.005 57.8678 43.0043 61.0394C43 74.0991 43.0043 87.1584 43 100.218C43.0007 101.782 43.329 103.167 43.9921 104.361C44.6738 105.59 45.7084 106.617 47.1086 107.425C53.8176 111.298 76.3339 124.156 80.8296 126.8C83.8531 128.578 86.8052 128.642 89.8509 126.889C101.145 120.388 112.454 113.914 123.753 107.421C125.153 106.613 126.188 105.585 126.869 104.358C127.531 103.164 127.861 101.779 127.861 100.215C127.861 100.215 127.861 74.1024 127.857 61.0424" fill="#5C8DBC"/>
<path d="M85.5605 80.5016L43.9921 104.362C44.6738 105.59 45.7084 106.617 47.1086 107.425C53.8176 111.298 76.334 124.156 80.8297 126.8C83.8532 128.579 86.8053 128.642 89.851 126.889C101.145 120.388 112.454 113.915 123.753 107.421C125.153 106.613 126.188 105.586 126.87 104.358L85.5605 80.5016" fill="#1A4674"/>
<path d="M73.2484 87.5691C75.6672 91.7788 80.2144 94.6181 85.4306 94.6181C90.679 94.6181 95.2521 91.7427 97.6586 87.488L85.5604 80.5016L73.2484 87.5691" fill="#1A4674"/>
<path d="M127.857 61.0424C127.856 59.4437 127.513 58.031 126.82 56.8185L85.5604 80.5017L126.869 104.358C127.531 103.164 127.861 101.779 127.861 100.215C127.861 100.215 127.861 74.1024 127.857 61.0424" fill="#1B598E"/>
<path d="M125.585 82.2069H122.357V85.4256H119.129V82.2069H115.901V78.9893H119.129V75.7713H122.357V78.9893H125.585V82.2069ZM113.807 82.2069H110.579V85.4256H107.351V82.2069H104.123V78.9893H107.351V75.7713H110.579V78.9893H113.807V82.2069Z" fill="white"/>
<path d="M97.6587 87.4881C95.2521 91.7427 90.679 94.6182 85.4306 94.6182C80.2144 94.6182 75.6672 91.7788 73.2484 87.5692C72.0333 85.4568 71.3951 83.0637 71.3976 80.6287C71.3976 72.9028 77.6807 66.6396 85.4306 66.6396C90.6133 66.6396 95.1366 69.4435 97.5674 73.6102L109.833 66.5691C104.958 58.1796 95.8557 52.5353 85.4306 52.5353C69.8663 52.5353 57.2495 65.1134 57.2495 80.6287C57.2495 85.7189 58.6078 90.4922 60.9818 94.6095C65.8447 103.043 74.9726 108.722 85.4306 108.722C95.9079 108.722 105.05 103.021 109.906 94.5619L97.6587 87.4881Z" fill="white"/>
</g>
</g>
<defs>
<clipPath id="clip0">
<rect width="128" height="128" fill="white"/>
</clipPath>
<clipPath id="clip1">
<rect width="85" height="95.6346" fill="white"/>
</clipPath>
<clipPath id="clip2">
<rect width="85" height="95.3378" fill="white" transform="translate(43 33)"/>
</clipPath>
</defs>
</svg>
