<svg width="128" height="128" viewBox="0 0 128 128" fill="none" xmlns="http://www.w3.org/2000/svg">
    <path d="M125.155 62.5C125.155 97.8462 100.388 126.5 65.5858 126.5C30.7834 126.5 0.108887 99.3462 0.108887 64C0.108887 28.6538 30.7834 1.5 65.5858 1.5C100.388 1.5 125.155 27.1538 125.155 62.5Z" fill="white"/>
    <path d="M64.1091 79.2631C72.5183 79.2631 79.3352 72.4395 79.3352 64.0223C79.3352 55.6051 72.5183 48.7816 64.1091 48.7816C55.7 48.7816 48.8831 55.6051 48.8831 64.0223C48.8831 72.4395 55.7 79.2631 64.1091 79.2631Z" fill="#161616"/>
    <path d="M64.1091 0.0223398C34.3151 0.0223398 9.28402 20.4215 2.18409 48.0223C2.11778 48.2701 2.0822 48.5251 2.07812 48.7816C2.07813 50.4564 3.43899 51.8297 5.12334 51.8297H30.9073C31.4909 51.8317 32.0625 51.6639 32.5527 51.3468C33.0428 51.0296 33.4303 50.5768 33.6681 50.0433C33.6681 50.0433 33.7071 49.9707 33.7239 49.9316C39.039 38.4536 50.6455 30.4871 64.1203 30.4871C82.6202 30.4871 97.6177 45.4934 97.6177 64.0112C97.6177 82.529 82.6258 97.5352 64.1258 97.5352C50.6566 97.5352 39.0502 89.5687 33.7294 78.0907C33.7127 78.0516 33.6737 77.9791 33.6737 77.9791C33.1828 76.896 32.1009 76.1926 30.9129 76.1926H5.12891C3.44456 76.1926 2.0837 77.5548 2.0837 79.2408C2.0866 79.4973 2.12221 79.7525 2.18966 80C9.2896 107.601 34.3262 128 64.1147 128C99.4303 127.994 128.109 99.344 128.109 64C128.109 28.656 99.4805 0 64.1705 0L64.1091 0.0223398Z" fill="#161616"/>
</svg>
