<svg width="41" height="41" viewBox="0 0 41 41" fill="none" xmlns="http://www.w3.org/2000/svg">
<path d="M14.0879 6.61326C15.8833 6.61326 17.3387 5.15698 17.3387 3.36056C17.3387 1.56414 15.8833 0.107849 14.0879 0.107849C12.2925 0.107849 10.837 1.56414 10.837 3.36056C10.837 5.15698 12.2925 6.61326 14.0879 6.61326Z" fill="#E81410"/>
<path d="M37.0729 17.3467C38.8683 17.3467 40.3237 15.8904 40.3237 14.094C40.3237 12.2975 38.8683 10.8412 37.0729 10.8412C35.2775 10.8412 33.822 12.2975 33.822 14.094C33.822 15.8904 35.2775 17.3467 37.0729 17.3467Z" fill="#FFD11F"/>
<path d="M3.35864 29.6134C5.15403 29.6134 6.60949 28.1571 6.60949 26.3607C6.60949 24.5643 5.15403 23.108 3.35864 23.108C1.56324 23.108 0.107788 24.5643 0.107788 26.3607C0.107788 28.1571 1.56324 29.6134 3.35864 29.6134Z" fill="#0995E3"/>
<path d="M26.3456 40.3468C28.141 40.3468 29.5964 38.8906 29.5964 37.0941C29.5964 35.2977 28.141 33.8414 26.3456 33.8414C24.5502 33.8414 23.0947 35.2977 23.0947 37.0941C23.0947 38.8906 24.5502 40.3468 26.3456 40.3468Z" fill="#21BF54"/>
<path d="M22.5144 7.19401C21.2448 5.92375 19.1865 5.92375 17.917 7.19401C16.6474 8.46427 16.6474 10.5238 17.917 11.794L22.5144 16.394C23.7839 17.6643 25.8422 17.6643 27.1118 16.394C28.3813 15.1238 28.3813 13.0643 27.1117 11.794L22.5144 7.19401Z" fill="#E81410"/>
<path d="M33.2417 22.5274C34.5112 21.2571 34.5112 19.1976 33.2417 17.9273C31.9722 16.6571 29.9138 16.6571 28.6443 17.9273L24.0469 22.5273C22.7774 23.7976 22.7774 25.8571 24.0469 27.1274C25.3164 28.3976 27.3748 28.3976 28.6443 27.1274L33.2417 22.5274Z" fill="#FFD11F"/>
<path d="M7.18983 17.9274C5.9203 19.1976 5.9203 21.2571 7.18983 22.5274C8.45936 23.7976 10.5177 23.7976 11.7872 22.5274L16.3846 17.9274C17.6541 16.6571 17.6541 14.5976 16.3846 13.3273C15.1151 12.0571 13.0567 12.0571 11.7872 13.3273L7.18983 17.9274Z" fill="#0995E3"/>
<path d="M17.917 33.2608C19.1866 34.531 21.2449 34.531 22.5144 33.2608C23.7839 31.9905 23.7839 29.931 22.5144 28.6607L17.917 24.0607C16.6475 22.7905 14.5892 22.7905 13.3196 24.0607C12.0501 25.331 12.0501 27.3905 13.3196 28.6608L17.917 33.2608Z" fill="#21BF54"/>
</svg>
