<svg width="128" height="127" viewBox="0 0 128 127" fill="none" xmlns="http://www.w3.org/2000/svg">
<path d="M73.0179 75.9942C77.9145 75.5745 81.517 71.3074 81.1323 66.4108C80.7126 61.5141 76.4455 57.9116 71.5489 58.2964C66.6523 58.7161 63.0498 62.9831 63.4345 67.8798C63.8542 72.7764 68.1213 76.3789 73.0179 75.9942ZM83.3708 75.8543C81.4471 77.9528 79.1037 79.6317 76.4455 80.6809L76.4105 80.7509C78.4042 88.4456 81.552 95.8255 85.7141 102.611C82.0766 104.534 78.0894 105.794 73.9972 106.318L73.4026 106.388L72.7031 106.423L71.339 106.528C70.4996 106.528 69.6602 106.598 68.7858 106.563C65.2882 106.493 61.8256 105.899 58.5379 104.814C56.9989 104.325 55.46 103.73 54.026 102.996C52.6969 102.366 51.4028 101.631 50.1786 100.862C49.1293 100.197 48.115 99.463 47.1357 98.6935C46.2263 98.029 45.5268 97.3295 44.9322 96.8048C43.778 95.6856 43.1135 95.021 43.1135 95.021C43.1135 95.021 43.6731 95.7905 44.6874 97.0496C45.212 97.6792 45.8416 98.4487 46.6461 99.2531C47.5205 100.197 48.4648 101.072 49.4441 101.911C50.5983 102.891 51.8575 103.835 53.1166 104.674C54.5506 105.619 56.0546 106.493 57.6285 107.228C59.3073 108.032 61.0211 108.732 62.8049 109.291C64.6586 109.886 66.5473 110.306 68.471 110.62C69.4154 110.795 70.4646 110.865 71.444 111.005L72.843 111.075L73.5425 111.11H74.347C76.2706 111.145 78.1943 111.005 80.083 110.76C83.3358 110.306 86.5186 109.466 89.5965 108.242C90.7507 109.816 91.9748 111.355 93.2689 112.859L93.0941 112.964L91.5551 113.908L91.3453 114.048L91.2753 114.083C91.0305 114.223 91.6251 113.908 91.5551 113.943H91.5201L91.4152 114.013L90.9605 114.258L89.9812 114.747L89.4566 114.992L89.1767 115.132L89.0368 115.202H89.0019C88.9669 115.237 89.3516 115.062 89.1767 115.132L89.1068 115.167L87.9876 115.657L86.7984 116.181L86.6585 116.251H86.6235C86.9033 116.146 86.6935 116.216 86.7284 116.216L86.6935 116.251L86.6235 116.286L86.3087 116.426L85.6792 116.671C79.8382 118.91 73.6475 119.959 67.3868 119.749L66.5823 119.714L65.6729 119.644L63.7143 119.504C62.5601 119.329 61.4409 119.259 60.2517 118.98C55.6349 118.14 51.158 116.636 46.9608 114.468C45.9465 113.978 44.9672 113.418 44.0578 112.859C43.1135 112.334 42.2391 111.705 41.3647 111.11C39.7558 109.991 38.1819 108.767 36.7129 107.472C35.4538 106.353 34.2646 105.199 33.1454 103.94C32.0961 102.856 31.3266 101.806 30.6271 100.967C29.9625 100.128 29.4729 99.428 29.1231 98.9384L28.5985 98.2039L29.0532 98.9733C29.368 99.463 29.7527 100.232 30.3473 101.142C30.9419 102.051 31.6414 103.17 32.5857 104.36C33.6 105.724 34.6843 107.053 35.8385 108.312C37.2026 109.816 38.6716 111.215 40.2105 112.544C41.0499 113.243 41.8893 113.978 42.8337 114.643C43.7431 115.342 44.6874 116.007 45.7017 116.636C47.7653 117.965 49.9338 119.154 52.1373 120.169C54.4457 121.218 56.859 122.127 59.3073 122.827C60.5315 123.212 61.8606 123.456 63.1197 123.806L64.9385 124.156L65.8478 124.331L66.8621 124.471C69.3454 124.821 71.8637 124.96 74.3819 124.925C78.8938 124.89 83.3708 124.261 87.7078 123.072L88.3723 122.897L88.6871 122.792L89.1418 122.652L90.3659 122.267L91.5551 121.883L92.8492 121.393L93.8635 121.008L94.3532 120.833L94.4581 120.798H94.4931L94.8079 120.658L94.8778 120.623L95.0877 120.518L96.6966 119.749L98.7252 118.77C100.089 120.064 101.523 121.358 102.957 122.582C102.957 122.582 109.952 129.787 113.8 126.814C117.402 124.051 113.24 115.307 113.24 115.307C107.644 99.3231 97.1862 85.5426 83.3708 75.8543ZM58.9925 64.0324L58.9576 63.9974C51.3678 61.759 43.5332 60.6747 35.6286 60.7097C35.8735 56.4077 36.9228 52.2106 38.7065 48.2933L38.9514 47.7686L39.2661 47.174L39.8957 45.9499C40.3504 45.2154 40.7351 44.4809 41.2248 43.7464C43.1485 40.8084 45.4569 38.2202 48.15 35.9817C49.3742 34.9325 50.7033 33.9531 52.1023 33.1137C53.3614 32.3093 54.6206 31.6097 55.9496 30.9802C57.0689 30.4555 58.2231 29.9659 59.4123 29.5462C60.4615 29.1265 61.4059 28.9166 62.1754 28.6718C63.7493 28.287 64.6586 28.0772 64.6586 28.0772C64.6586 28.0772 63.7493 28.1471 62.1054 28.322C61.301 28.4619 60.3216 28.5668 59.2024 28.8117C57.9433 29.0565 56.6841 29.4063 55.46 29.791C53.991 30.2457 52.557 30.8053 51.158 31.4349C49.584 32.1344 48.0801 32.9738 46.6111 33.8832C45.0372 34.8625 43.5332 35.9817 42.0992 37.1709C40.6302 38.4301 39.2312 39.7941 37.972 41.2631C37.3075 41.9626 36.7129 42.802 36.0833 43.6065L35.2789 44.7257L34.8942 45.2853L34.4744 45.9499C33.4601 47.5588 32.5158 49.2376 31.7463 50.9864C30.3473 54.1342 29.333 57.4569 28.7384 60.8496L28.7034 60.9895C26.7797 61.1644 24.8561 61.4092 22.9674 61.724V60.7097V58.9259V58.6811V58.6461C23.0023 58.3663 22.9324 59.0309 22.9324 58.9609V58.9259V58.786L22.9674 58.2614L23.0723 57.1771L23.1073 56.6175L23.1423 56.3377V56.1978V56.1628V56.1279C23.1423 56.0929 23.0723 56.4776 23.1073 56.3027V56.2328L23.2822 55.0086L23.457 53.7145L23.492 53.5396V53.5047C23.4221 53.7845 23.492 53.5746 23.457 53.6096V53.5746V53.5047L23.527 53.1549L23.6669 52.4904C24.8561 46.3696 27.2694 40.5286 30.732 35.3522L31.1867 34.6876L31.7463 33.9531L32.8306 32.4841C33.6 31.6097 34.2646 30.7004 35.104 29.826C38.2518 26.3634 41.9243 23.3554 45.9465 20.9421C46.9259 20.3475 47.8702 19.7879 48.8495 19.3332C49.7939 18.8086 50.8082 18.3889 51.7525 17.9691C53.5713 17.1997 55.425 16.5002 57.3137 15.9755C58.9226 15.4859 60.5315 15.1011 62.1754 14.8213C63.6443 14.5065 64.9385 14.4016 66.0227 14.2617C67.107 14.1218 67.9464 14.1218 68.506 14.0518L69.3804 13.9819L68.506 13.9469C67.9114 13.9469 67.072 13.877 65.9877 13.877C64.9035 13.9119 63.5744 13.877 62.0704 14.0518C60.3566 14.1918 58.6778 14.4016 56.9989 14.7164C55.0053 15.1011 53.0466 15.5908 51.088 16.1854C50.0737 16.5351 48.9894 16.8499 47.9402 17.3046C46.8559 17.6893 45.8066 18.179 44.7224 18.6687C42.4839 19.7179 40.3504 20.9071 38.2868 22.2712C36.1533 23.6702 34.1247 25.2441 32.236 26.958C31.2567 27.7624 30.3473 28.7767 29.4029 29.6861L28.1438 31.0501L27.5142 31.7147L26.8497 32.4841C25.2408 34.4078 23.7718 36.4714 22.4777 38.6049C20.1343 42.4523 18.2806 46.5794 16.9865 50.9164L16.7766 51.581L16.6717 51.8958L16.5668 52.3505L16.252 53.6096L15.9372 54.7988C15.8323 55.2535 15.7623 55.7081 15.6924 56.1279L15.4825 57.2121L15.3776 57.7367L15.3426 57.8767V57.9116L15.3076 58.2614V58.3313L15.2727 58.5762L15.0978 60.3599C14.9229 62.0038 14.818 63.0881 14.748 63.5427C12.8943 64.0324 11.0406 64.627 9.22184 65.2566C9.22184 65.2566 -0.536433 67.53 0.0231811 72.3567C0.54782 76.9035 10.1662 77.8129 10.1662 77.8129C26.7098 81.2405 43.9179 79.3868 59.3423 72.4966C58.7477 69.7335 58.5379 66.8655 58.9925 64.0324ZM127.72 58.821C127.51 56.2678 127.091 53.7495 126.531 51.2662C126.286 50.0071 125.832 48.7479 125.517 47.4888L124.922 45.74L124.607 44.8656L124.223 43.9213C123.278 41.5779 122.194 39.3394 120.935 37.1359C118.661 33.2536 115.933 29.6511 112.751 26.4333L112.261 25.9437L112.016 25.6988L111.666 25.384L110.722 24.5096L109.813 23.6702L108.763 22.7958L107.924 22.0963L107.539 21.7815L107.434 21.7116L107.399 21.6766L107.119 21.4667L107.084 21.4318L106.875 21.2919L105.406 20.2776L103.412 18.9135C103.937 16.8849 104.356 14.8213 104.706 12.7577C105.056 10.6942 107.434 3.10439 102.957 1.25067C98.7252 -0.498124 93.2689 7.47638 93.2689 7.47638C82.2865 20.3125 75.5711 36.2615 74.1371 53.085C76.9352 53.6795 79.5584 54.9037 81.7968 56.6525H81.8668C87.358 51.2312 92.0098 45.0755 95.7522 38.3251C99.3198 40.5636 102.468 43.4666 104.951 46.8592L105.301 47.3139L105.685 47.8735L106.455 49.0277C106.875 49.7622 107.364 50.4618 107.749 51.2312C109.393 54.3091 110.582 57.5968 111.282 61.0245C111.596 62.6334 111.841 64.2423 111.911 65.8512C112.016 67.3201 112.016 68.7891 111.946 70.2581C111.876 71.5173 111.736 72.7414 111.526 74.0005C111.386 75.1198 111.142 76.0641 110.967 76.8686C110.582 78.4425 110.302 79.3169 110.302 79.3169C110.302 79.3169 110.687 78.4775 111.317 76.9735C111.596 76.204 111.981 75.2946 112.261 74.1754C112.646 72.9513 112.96 71.6921 113.205 70.433C113.485 68.929 113.695 67.3901 113.8 65.8861C113.94 64.1723 113.94 62.4235 113.8 60.7097C113.695 58.856 113.45 57.0023 113.065 55.1835C112.681 53.2948 112.121 51.4061 111.456 49.5874C111.142 48.678 110.687 47.7336 110.302 46.8243L109.708 45.5651L109.393 44.9356L109.008 44.2361C108.099 42.5572 107.049 40.9483 105.895 39.4094C103.832 36.7162 101.453 34.3029 98.8301 32.1694C99.6346 30.3506 100.404 28.4619 101.104 26.5732L101.418 26.7481L102.992 27.6225L103.202 27.7274L103.272 27.7624C103.517 27.9373 102.957 27.5525 103.027 27.5875H103.062L103.167 27.6575L103.587 27.9373L104.496 28.5319L104.986 28.8467L105.231 29.0215L105.371 29.0915L105.406 29.1265C105.441 29.1614 105.126 28.8816 105.266 29.0215L105.336 29.0565L106.315 29.791L107.364 30.5605L107.504 30.6654C107.294 30.4905 107.469 30.6304 107.399 30.5955L107.434 30.6304L107.504 30.7004L107.784 30.9102L108.309 31.3299C113.135 35.3172 117.088 40.2138 119.991 45.74L120.375 46.4745L120.76 47.3139L121.529 48.9928C121.949 50.077 122.439 51.0913 122.789 52.2455C124.328 56.6875 125.202 61.3393 125.412 66.026C125.482 67.1453 125.482 68.2645 125.447 69.3487C125.447 70.433 125.342 71.5172 125.272 72.5665C125.097 74.5252 124.782 76.4838 124.397 78.4075C124.048 80.0514 123.628 81.6603 123.103 83.2342C122.684 84.6682 122.159 85.8574 121.774 86.8717C121.355 87.886 120.97 88.6205 120.76 89.1451L120.375 89.9495L120.83 89.1801C121.11 88.6904 121.564 87.9559 122.089 87.0116C122.579 86.0323 123.243 84.878 123.803 83.479C124.502 81.9051 125.097 80.3312 125.622 78.6873C126.251 76.7636 126.741 74.805 127.161 72.8114C127.37 71.7621 127.58 70.6429 127.685 69.5236C127.86 68.4044 127.965 67.2152 128 66.026C127.965 63.7176 127.93 61.2693 127.72 58.821Z" fill="#4DA9E1"/>
</svg>
