<svg width="128" height="128" viewBox="0 0 128 128" fill="none" xmlns="http://www.w3.org/2000/svg">
    <path d="M120.575 37.6495C120.574 35.5031 120.115 33.6064 119.187 31.9785C118.275 30.3778 116.909 29.0362 115.077 27.9754C99.9565 19.2567 84.8211 10.5647 69.7053 1.83714C65.6301 -0.515509 61.679 -0.429739 57.634 1.95669C51.6155 5.50611 21.483 22.7697 12.5039 27.9705C8.80604 30.1112 7.00667 33.3873 7.00578 37.6455C7 55.1793 7.00578 72.7127 7 90.2469C7.00089 92.3462 7.4404 94.206 8.32787 95.8094C9.24022 97.4586 10.625 98.8371 12.499 99.9219C21.4786 105.123 51.6151 122.385 57.6323 125.935C61.679 128.323 65.6301 128.408 69.7066 126.055C84.8229 117.327 99.9591 108.635 115.082 99.9166C116.956 98.8322 118.341 97.4528 119.253 95.805C120.139 94.2016 120.58 92.3418 120.581 90.242C120.581 90.242 120.581 55.1838 120.575 37.6495" fill="#5C8DBC"/>
    <path d="M63.9641 63.7754L8.32787 95.8095C9.24022 97.4587 10.625 98.8372 12.499 99.922C21.4786 105.123 51.6151 122.385 57.6323 125.935C61.679 128.323 65.6302 128.408 69.7067 126.055C84.8229 117.327 99.9592 108.635 115.082 99.9167C116.956 98.8323 118.341 97.4529 119.253 95.8051L63.9641 63.7754" fill="#1A4674"/>
    <path d="M47.4853 73.2642C50.7227 78.916 56.8088 82.728 63.7903 82.728C70.815 82.728 76.9357 78.8676 80.1567 73.1553L63.9641 63.7754L47.4853 73.2642" fill="#1A4674"/>
    <path d="M120.575 37.6496C120.574 35.5031 120.115 33.6064 119.187 31.9786L63.9641 63.7754L119.253 95.8051C120.139 94.2017 120.58 92.3419 120.581 90.2421C120.581 90.2421 120.581 55.1838 120.575 37.6496" fill="#1B598E"/>
    <path d="M117.535 66.0649H113.214V70.3863H108.893V66.0649H104.573V61.7449H108.893V57.4245H113.214V61.7449H117.535V66.0649ZM101.77 66.0649H97.4496V70.3863H93.1292V66.0649H88.8087V61.7449H93.1292V57.4245H97.4496V61.7449H101.77V66.0649Z" fill="white"/>
    <path d="M80.1567 73.1553C76.9357 78.8677 70.815 82.7282 63.7903 82.7282C56.8088 82.7282 50.7227 78.9161 47.4853 73.2642C45.8589 70.4282 45.0048 67.2153 45.0082 63.9461C45.0082 53.5733 53.4176 45.1644 63.7903 45.1644C70.727 45.1644 76.781 48.9289 80.0345 54.523L96.4511 45.0697C89.926 33.806 77.7436 26.228 63.7903 26.228C42.9586 26.228 26.0719 43.1152 26.0719 63.9461C26.0719 70.78 27.8899 77.1887 31.0674 82.7166C37.5761 94.0399 49.7931 101.664 63.7903 101.664C77.8134 101.664 90.0495 94.0093 96.5489 82.6526L80.1567 73.1553Z" fill="white"/>
</svg>
