<svg width="50" height="39" viewBox="0 0 50 39" fill="none" xmlns="http://www.w3.org/2000/svg">
<path fill-rule="evenodd" clip-rule="evenodd" d="M3 14L25 26.5L47 14L40.8552 39H9.08422L3 14Z" fill="#CAC552"/>
<path fill-rule="evenodd" clip-rule="evenodd" d="M25 8L40 39H10L25 8Z" fill="#FEDC2A" fill-opacity="0.262839"/>
<path d="M2 11C3.10457 11 4 10.1046 4 9C4 7.89543 3.10457 7 2 7C0.89543 7 0 7.89543 0 9C0 10.1046 0.89543 11 2 11Z" fill="#FEDC2A"/>
<path d="M25 4C26.1046 4 27 3.10457 27 2C27 0.89543 26.1046 0 25 0C23.8954 0 23 0.89543 23 2C23 3.10457 23.8954 4 25 4Z" fill="#FEDC2A"/>
<path d="M48 11C49.1046 11 50 10.1046 50 9C50 7.89543 49.1046 7 48 7C46.8954 7 46 7.89543 46 9C46 10.1046 46.8954 11 48 11Z" fill="#FEDC2A"/>
</svg>
