<svg width="129" height="128" viewBox="0 0 129 128" fill="none" xmlns="http://www.w3.org/2000/svg">
<path fill-rule="evenodd" clip-rule="evenodd" d="M104.144 90.866L93.5023 83.8465L84.6244 98.6759L74.299 95.6568L65.2075 109.533L65.6735 113.901L115.105 104.793L112.234 73.9079L104.144 90.866ZM58.046 77.5499L65.9768 76.4594C67.26 77.036 68.1533 77.2556 69.692 77.647C72.0881 78.2715 74.8622 78.8705 78.9702 76.8C79.9263 76.3265 81.9176 74.5055 82.7228 73.4672L115.217 67.5725L118.532 107.691L62.8636 117.724L58.046 77.5499ZM118.406 63.094L115.199 63.705L109.037 0.0403442L4.04053 12.2152L16.9757 117.185L29.2656 115.401C28.2841 114 26.7559 112.304 24.1462 110.134C20.5266 107.127 21.8068 102.019 23.9415 98.7939C26.7664 93.3443 41.3209 86.4189 40.4963 77.7083C40.2005 74.5413 39.6971 70.4183 36.7572 67.5935C36.6467 68.7661 36.8453 69.8955 36.8453 69.8955C36.8453 69.8955 35.6383 68.3553 35.0363 66.255C34.4388 65.4498 33.9697 65.1928 33.3348 64.1173C32.8822 65.3617 32.9419 66.8047 32.9419 66.8047C32.9419 66.8047 31.9545 64.4713 31.7947 62.5024C31.2091 63.3838 31.0612 65.0584 31.0612 65.0584C31.0612 65.0584 29.778 61.3806 30.0708 59.3997C29.4852 57.6758 27.7493 54.2549 28.2408 46.4795C31.4451 48.7247 38.499 48.1914 41.2477 44.1401C42.1604 42.7986 42.7849 39.1357 40.7921 31.919C39.5118 27.291 36.3419 20.3999 35.1065 17.7857L34.9586 17.8918C35.6099 19.9981 36.9529 24.4139 37.4683 26.5546C39.0278 33.0483 39.4461 35.3085 38.7141 38.3022C38.0912 40.9044 36.5974 42.6074 32.8105 44.5106C29.0236 46.4197 23.9983 41.7739 23.6801 41.5169C20.0008 38.586 17.155 33.8042 16.8368 31.4813C16.5067 28.9388 18.3023 27.412 19.2075 25.3326C17.9124 25.7031 16.4678 26.3604 16.4678 26.3604C16.4678 26.3604 18.1917 24.5767 20.3175 23.0336C21.1973 22.451 21.7142 22.0805 22.6419 21.3097C21.2989 21.2873 20.2084 21.3261 20.2084 21.3261C20.2084 21.3261 22.4477 20.1161 24.7691 19.2347C23.0706 19.16 21.4453 19.2228 21.4453 19.2228C21.4453 19.2228 26.4422 16.988 30.3889 15.3478C33.1033 14.2348 35.7548 14.5635 37.2442 16.7176C39.1996 19.5395 41.2537 21.0722 45.6067 22.0223C48.2792 20.8376 49.0919 20.2281 52.45 19.3139C55.4063 16.0633 57.7278 15.642 57.7278 15.642C57.7278 15.642 56.576 16.6982 56.2683 18.3579C57.9444 17.0373 59.7818 15.9348 59.7818 15.9348C59.7818 15.9348 59.0707 16.8132 58.4075 18.2085L58.5613 18.437C60.5168 17.2644 62.8158 16.3397 62.8158 16.3397C62.8158 16.3397 62.1585 17.1703 61.3877 18.2458C62.8621 18.2339 65.8528 18.3086 67.0135 18.44C73.8658 18.5909 75.2879 11.1217 77.9171 10.185C81.2095 9.00938 82.6809 8.29831 88.2918 13.8091C93.1065 18.5401 96.868 27.0087 95.0007 28.9059C93.4351 30.4804 90.3459 28.2919 86.922 24.024C85.1129 21.7638 83.7446 19.0928 83.1037 15.6973C82.5629 12.8321 80.4581 11.1695 80.4581 11.1695C80.4581 11.1695 81.6801 13.8853 81.6801 16.2844C81.6801 17.5945 81.8444 22.4928 83.9447 25.2415C83.7371 25.6433 83.64 27.2298 83.4099 27.533C80.966 24.5797 75.7181 22.4659 74.8622 21.843C77.7587 24.2167 84.4168 29.6692 86.9743 34.8947C89.3928 39.8363 87.9677 44.3657 89.1911 45.5383C89.5392 45.8745 94.3927 51.9215 95.3263 54.96C96.9546 60.2557 95.4234 65.8203 93.2917 69.2725L87.3387 70.2002C86.4678 69.9582 85.8808 69.8372 85.0995 69.3846C85.5297 68.6227 86.3857 66.7225 86.3946 66.3312L86.0585 65.7411C84.2062 68.3658 81.102 70.9143 78.5236 72.3782C75.149 74.2904 71.259 73.9961 68.727 73.2118C61.5401 70.9949 54.7446 66.1385 53.1058 64.8627C53.1058 64.8627 53.055 65.8815 53.3643 66.1101C55.1763 68.1536 59.3277 71.8509 63.3402 74.4278L54.7864 75.3689L58.8302 106.856C57.0376 107.113 56.7583 107.239 54.7954 107.518C53.0655 101.407 49.7566 97.4165 46.14 95.0921C42.9507 93.0426 38.5513 92.581 34.3402 93.4145L34.0698 93.7282C36.9977 93.4235 40.4545 93.8478 44.0053 96.096C47.4905 98.2994 50.2989 103.991 51.3326 107.418C52.6562 111.798 53.5719 116.482 50.0091 121.448C47.474 124.978 40.0735 126.929 34.0952 122.709C35.6921 125.277 37.8507 127.377 40.7562 127.773C45.0704 128.359 49.1651 127.61 51.984 124.717C54.3905 122.243 55.6663 117.07 55.3302 111.622L59.138 111.069L60.5123 120.847L123.55 113.257L118.406 63.094ZM80.0548 36.5379C79.8785 36.9398 79.6021 37.2027 80.0174 38.5098L80.0428 38.5845L80.1086 38.7533L80.2818 39.1447C81.0303 40.6744 81.8519 42.1174 83.2247 42.8539C83.5802 42.7942 83.9477 42.7538 84.3287 42.7344C85.6178 42.6776 86.432 42.8823 86.9489 43.1601C86.9952 42.9032 87.0056 42.5268 86.9772 41.9725C86.8772 40.035 87.3612 36.7396 83.637 35.0053C82.2313 34.3524 80.2594 34.5541 79.6021 35.3683C79.7216 35.3832 79.8292 35.4086 79.9129 35.437C80.9063 35.785 80.2325 36.1271 80.0548 36.5379ZM90.4923 54.6164C90.0038 54.3475 87.7212 54.4536 86.1168 54.6448C83.0604 55.0048 79.7605 56.0655 79.0375 56.6301C77.7229 57.6459 78.3204 59.4176 79.2914 60.1452C82.0147 62.1798 84.4019 63.5436 86.922 63.212C88.4696 63.0088 89.8335 60.5589 90.8 58.3361C91.4618 56.8049 91.4618 55.1527 90.4923 54.6164ZM63.4328 38.937C64.2947 38.1184 59.1395 37.0429 55.1389 39.7706C52.1886 41.7828 52.0945 46.097 54.9194 48.5425C55.2017 48.7845 55.4347 48.9563 55.6528 49.0967C56.4774 48.7083 57.4171 48.3154 58.4986 47.9643C60.3256 47.3713 61.8448 47.0651 63.0937 46.9022C63.6912 46.2345 64.3858 45.0588 64.2126 42.9301C63.9765 40.0425 61.788 40.5011 63.4328 38.937Z" fill="#FFFFFF"/>
</svg>
