<svg width="128" height="128" viewBox="0 0 128 128" fill="none" xmlns="http://www.w3.org/2000/svg">
<g clip-path="url(#clip0_878_8)">
<path fill-rule="evenodd" clip-rule="evenodd" d="M64.0817 127.589V102.879C90.4168 102.879 110.666 76.9609 100.619 49.376C96.968 39.2225 88.7423 31.0377 78.548 27.4028C50.8406 17.3964 24.8158 37.7032 24.8158 63.777H0C0 22.0932 40.4911 -10.4908 84.3313 3.15055C103.511 9.05636 118.737 24.3641 124.822 43.4701C138.521 87.2695 105.945 127.589 64.0817 127.589ZM39.4211 78.4802H64.0817V103.035H39.4211V78.4802ZM20.3967 103.035H39.4211V121.977H20.3967V103.035ZM4.41914 103.043V87.2777H20.2496V103.043H4.41914Z" fill="#0181ff"/>
</g>
<defs>
<clipPath id="clip0_878_8">
<rect width="128" height="128" fill="white"/>
</clipPath>
</defs>
</svg>
