<svg width="128" height="128" viewBox="0 0 128 128" fill="none" xmlns="http://www.w3.org/2000/svg">
<path fill-rule="evenodd" clip-rule="evenodd" d="M111.514 54.4513C112.285 48.4541 107.797 43.7438 105.014 41.5072C101.807 45.2155 101.309 54.934 106.34 59.0257C103.532 61.52 97.6149 63.7808 91.5558 63.7808H17.8014C17.2125 70.1056 18.3228 75.9302 20.8588 80.9153L21.6978 82.4503C22.2291 83.3513 22.8096 84.2223 23.4367 85.0594C26.469 85.2541 29.2648 85.3211 31.8225 85.2647H31.8235C36.8498 85.154 40.9511 84.5601 44.0595 83.4831C44.2792 83.4147 44.5169 83.4345 44.7223 83.5383C44.9277 83.642 45.0847 83.8216 45.1601 84.0391C45.2355 84.2565 45.2233 84.4947 45.1262 84.7034C45.0291 84.912 44.8547 85.0747 44.6397 85.157C44.226 85.3009 43.7952 85.4348 43.3503 85.5621H43.3488C40.9013 86.2612 38.2767 86.7313 34.8905 86.9401C35.0919 86.9437 34.6812 86.9703 34.6802 86.9703C34.5649 86.9779 34.42 86.9945 34.3042 87.0005C32.9715 87.0755 31.5331 87.0911 30.0625 87.0911C28.454 87.0911 26.8701 87.0609 25.099 86.9703L25.0538 87.0005C31.1989 93.9077 40.8077 98.0503 52.8524 98.0503C78.343 98.0503 99.9643 86.7504 109.539 61.3821C116.331 62.0792 122.859 60.3469 125.829 54.55C121.099 51.8206 115.016 52.6908 111.514 54.4513" fill="#22A0C8"/>
<path fill-rule="evenodd" clip-rule="evenodd" d="M111.514 54.4513C112.285 48.4541 107.797 43.7438 105.014 41.5072C101.807 45.2155 101.309 54.934 106.34 59.0257C103.532 61.52 97.6149 63.7808 91.5558 63.7808H22.1689C21.8679 73.4671 25.4624 80.8196 31.822 85.2647H31.8235C36.8498 85.154 40.9511 84.5601 44.0594 83.483C44.2792 83.4147 44.5169 83.4345 44.7223 83.5383C44.9277 83.642 45.0847 83.8216 45.1601 84.0391C45.2355 84.2565 45.2233 84.4947 45.1262 84.7033C45.0291 84.912 44.8546 85.0747 44.6397 85.157C44.226 85.3009 43.7952 85.4348 43.3503 85.5621H43.3488C40.9013 86.2612 38.0512 86.7917 34.665 87.0005C34.664 87.0005 34.583 86.9225 34.582 86.9225C43.2572 91.3726 55.8359 91.3565 70.2576 85.8168C86.4283 79.6042 101.476 67.7689 111.975 54.2319C111.817 54.3034 111.663 54.3763 111.514 54.4513" fill="#37B1D9"/>
<path fill-rule="evenodd" clip-rule="evenodd" d="M17.9397 71.4655C18.3977 74.8537 19.3892 78.0259 20.8588 80.9153L21.6978 82.4503C22.2289 83.3513 22.8094 84.2224 23.4366 85.0594C26.4694 85.2541 29.2652 85.3211 31.8234 85.2647C36.8498 85.154 40.9511 84.5601 44.0594 83.4831C44.2791 83.4147 44.5168 83.4345 44.7223 83.5383C44.9277 83.642 45.0847 83.8216 45.16 84.0391C45.2354 84.2565 45.2233 84.4947 45.1262 84.7034C45.029 84.912 44.8546 85.0747 44.6397 85.157C44.226 85.3009 43.7952 85.4348 43.3503 85.5621H43.3487C40.9013 86.2612 38.0662 86.7615 34.6801 86.9708C34.5638 86.9779 34.361 86.9794 34.2437 86.9859C32.912 87.0604 31.4882 87.1062 30.0171 87.1062C28.4091 87.1062 26.7644 87.0755 24.9943 86.9854C31.1395 93.8926 40.8076 98.0503 52.8524 98.0503C74.675 98.0503 93.661 89.7671 104.681 71.4655H17.9397Z" fill="#1B81A5"/>
<path fill-rule="evenodd" clip-rule="evenodd" d="M22.8326 71.4655C24.1372 77.4144 27.2722 82.0844 31.8234 85.2647C36.8497 85.154 40.951 84.5601 44.0594 83.4831C44.2791 83.4147 44.5168 83.4345 44.7222 83.5383C44.9276 83.642 45.0846 83.8216 45.16 84.0391C45.2354 84.2565 45.2232 84.4947 45.1261 84.7034C45.029 84.912 44.8546 85.0747 44.6397 85.157C44.2259 85.3009 43.7951 85.4348 43.3502 85.5621H43.3487C40.9012 86.2612 38.0063 86.7615 34.6197 86.9708C43.2944 91.4199 55.8368 91.356 70.2576 85.8168C78.9816 82.4649 87.3779 77.4753 94.9107 71.4655H22.8326Z" fill="#1D91B4"/>
<path fill-rule="evenodd" clip-rule="evenodd" d="M27.8118 52.0169H37.786V61.9911H27.8118V52.0169ZM28.6427 52.8484H29.4298V61.1602H28.6427V52.8484ZM30.1224 52.8484H30.9412V61.1602H30.1229V52.8484H30.1224ZM31.6332 52.8484H32.4521V61.1602H31.6332V52.8484ZM33.1451 52.8484H33.9635V61.1602H33.1451V52.8484ZM34.6565 52.8484H35.4748V61.1602H34.6565V52.8484ZM36.1674 52.8484H36.955V61.1602H36.1674V52.8484ZM39.32 40.5087H49.2947V50.4824H39.3195V40.5087H39.32ZM40.1514 41.3402H40.9381V49.6515H40.1514V41.3402ZM41.6311 41.3402H42.4494V49.6515H41.6316V41.3402H41.6311ZM43.142 41.3402H43.9603V49.6515H43.142V41.3402ZM44.6533 41.3402H45.4717V49.6515H44.6533V41.3402ZM46.1647 41.3402H46.9836V49.6515H46.1647V41.3402ZM47.6756 41.3402H48.4637V49.6515H47.6756V41.3402Z" fill="#23A3C2"/>
<path fill-rule="evenodd" clip-rule="evenodd" d="M39.32 52.0169H49.2946V61.9911H39.3195V52.0169H39.32ZM40.1514 52.8483H40.938V61.1602H40.1514V52.8483ZM41.6311 52.8483H42.4494V61.1602H41.6316V52.8483H41.6311ZM43.1419 52.8483H43.9603V61.1602H43.1419V52.8483ZM44.6533 52.8483H45.4717V61.1602H44.6533V52.8483ZM46.1647 52.8483H46.9835V61.1602H46.1647V52.8483ZM47.6756 52.8483H48.4637V61.1602H47.6756V52.8483Z" fill="#34BBDE"/>
<path fill-rule="evenodd" clip-rule="evenodd" d="M50.8287 52.0169H60.8029V61.9911H50.8287V52.0169ZM51.6597 52.8483H52.4463V61.1602H51.6597V52.8483ZM53.1393 52.8483H53.9577V61.1602H53.1393V52.8483ZM54.6507 52.8483H55.4691V61.1602H54.6507V52.8483ZM56.1621 52.8483H56.9804V61.1602H56.1621V52.8483ZM57.673 52.8483H58.4923V61.1602H57.673V52.8483ZM59.1843 52.8483H59.9715V61.1602H59.1843V52.8483V52.8483Z" fill="#23A3C2"/>
<path fill-rule="evenodd" clip-rule="evenodd" d="M50.8287 40.5087H60.8029V50.4824H50.8287V40.5087ZM51.6597 41.3402H52.4463V49.6515H51.6597V41.3402ZM53.1393 41.3402H53.9577V49.6515H53.1393V41.3402ZM54.6507 41.3402H55.4691V49.6515H54.6507V41.3402ZM56.1621 41.3402H56.9804V49.6515H56.1621V41.3402ZM57.673 41.3402H58.4923V49.6515H57.673V41.3402ZM59.1843 41.3402H59.9715V49.6515H59.1843V41.3402V41.3402ZM62.3369 52.0169H72.3111V61.9911H62.3369V52.0169ZM63.1684 52.8484H63.955V61.1602H63.1684V52.8484ZM64.648 52.8484H65.4664V61.1602H64.648V52.8484ZM66.1589 52.8484H66.9773V61.1602H66.1589V52.8484ZM67.6703 52.8484H68.4891V61.1602H67.6703V52.8484ZM69.1817 52.8484H70.0005V61.1602H69.1817V52.8484ZM70.6931 52.8484H71.4802V61.1602H70.6931V52.8484Z" fill="#34BBDE"/>
<path fill-rule="evenodd" clip-rule="evenodd" d="M62.3368 40.5087H72.311V50.4824H62.3368V40.5087ZM63.1682 41.3402H63.9549V49.6515H63.1682V41.3402ZM64.6479 41.3402H65.4662V49.6515H64.6479V41.3402ZM66.1588 41.3402H66.9771V49.6515H66.1588V41.3402ZM67.6701 41.3402H68.489V49.6515H67.6701V41.3402ZM69.1815 41.3402H70.0004V49.6515H69.1815V41.3402ZM70.6929 41.3402H71.48V49.6515H70.6929V41.3402Z" fill="#23A3C2"/>
<path fill-rule="evenodd" clip-rule="evenodd" d="M62.3368 29H72.311V38.9752H62.3368V29ZM63.1682 29.8309H63.9549V38.1433H63.1682V29.8304V29.8309ZM64.6479 29.8309H65.4662V38.1433H64.6479V29.8304V29.8309ZM66.1588 29.8309H66.9771V38.1433H66.1588V29.8304V29.8309ZM67.6701 29.8309H68.489V38.1433H67.6701V29.8304V29.8309ZM69.1815 29.8309H70.0004V38.1433H69.1815V29.8304V29.8309ZM70.6929 29.8309H71.48V38.1433H70.6929V29.8304V29.8309Z" fill="#34BBDE"/>
<path fill-rule="evenodd" clip-rule="evenodd" d="M73.8451 52.0169H83.8193V61.9911H73.8451V52.0169ZM74.6755 52.8483H75.4632V61.1602H74.676V52.8483H74.6755ZM76.1552 52.8483H76.974V61.1602H76.1557V52.8483H76.1552ZM77.6671 52.8483H78.4859V61.1602H77.6671V52.8483ZM79.1779 52.8483H79.9968V61.1602H79.1779V52.8483ZM80.6898 52.8483H81.5082V61.1602H80.6898V52.8483ZM82.2007 52.8483H82.9878V61.1602H82.2007V52.8483Z" fill="#23A3C2"/>
<path fill-rule="evenodd" clip-rule="evenodd" d="M48.6701 78.1623C49.0346 78.1574 49.3964 78.225 49.7346 78.3612C50.0727 78.4973 50.3805 78.6993 50.6399 78.9553C50.8994 79.2114 51.1054 79.5164 51.2459 79.8528C51.3865 80.1891 51.4589 80.55 51.4588 80.9145C51.4587 81.2791 51.3862 81.6399 51.2456 81.9762C51.1049 82.3125 50.8987 82.6175 50.6392 82.8734C50.3797 83.1294 50.0719 83.3313 49.7337 83.4673C49.3955 83.6033 49.0336 83.6708 48.6691 83.6658C47.9457 83.6558 47.2554 83.3615 46.7474 82.8464C46.2394 82.3313 45.9547 81.637 45.9548 80.9135C45.955 80.1901 46.2399 79.4958 46.7481 78.9809C47.2563 78.466 47.9467 78.1719 48.6701 78.1623Z" fill="#D3ECEC"/>
<path fill-rule="evenodd" clip-rule="evenodd" d="M48.6701 78.9429C48.9217 78.9429 49.1618 78.9902 49.3832 79.0763C49.2304 79.165 49.1111 79.3015 49.0436 79.4649C48.9762 79.6282 48.9644 79.8092 49.0101 79.9799C49.0558 80.1505 49.1565 80.3014 49.2965 80.4092C49.4365 80.5169 49.6082 80.5756 49.7849 80.5761C50.0893 80.5761 50.3536 80.4075 50.4905 80.1578C50.6525 80.5483 50.6848 80.9805 50.5823 81.3907C50.4799 81.8008 50.2483 82.1672 49.9216 82.4356C49.595 82.704 49.1907 82.8602 48.7685 82.8812C48.3463 82.9022 47.9285 82.7868 47.5769 82.5522C47.2252 82.3175 46.9584 81.9759 46.8158 81.578C46.6732 81.18 46.6623 80.7467 46.7849 80.3421C46.9074 79.9375 47.1569 79.583 47.4963 79.3311C47.8358 79.0791 48.2473 78.943 48.6701 78.9429V78.9429ZM0 72.46H128C125.213 71.7534 119.182 70.7982 120.177 67.1453C115.109 73.0096 102.887 71.2597 99.8027 68.3683C96.3683 73.3498 76.3726 71.456 74.978 67.5751C70.6719 72.6286 57.3292 72.6286 53.023 67.5751C51.6274 71.456 31.6322 73.3498 28.1973 68.3678C25.1131 71.2597 12.8923 73.0096 7.82413 67.1458C8.81863 70.7982 2.78772 71.7534 0 72.4605" fill="#364548"/>
<path fill-rule="evenodd" clip-rule="evenodd" d="M55.9844 97.9909C49.1698 94.7572 45.4299 90.361 43.3488 85.5627C40.8173 86.2849 37.7749 86.7469 34.2393 86.9452C32.9076 87.0197 31.5064 87.0579 30.0368 87.0579C28.3417 87.0579 26.5556 87.0076 24.6803 86.9084C30.9296 93.1543 38.6174 97.9627 52.8524 98.0503C53.9033 98.0503 54.9461 98.0301 55.9844 97.9909" fill="#BDD9D7"/>
<path fill-rule="evenodd" clip-rule="evenodd" d="M45.8798 89.9906C44.9372 88.7107 44.0227 87.1022 43.3503 85.5616C40.8188 86.2849 37.7754 86.7469 34.2393 86.9457C36.6681 88.2638 40.1413 89.4853 45.8803 89.9906" fill="#D3ECEC"/>
</svg>
