<svg width="129" height="128" viewBox="0 0 129 128" fill="none" xmlns="http://www.w3.org/2000/svg">
<g clip-path="url(#clip0_975_19)">
<path d="M126.737 55.6569C126.389 55.3844 123.144 52.9671 116.298 52.9671C114.49 52.9751 112.687 53.1274 110.905 53.4239C109.58 44.4652 102.307 40.2556 101.971 40.0607L100.133 39.0136L98.923 40.7338C97.4086 43.0469 96.0704 45.4348 95.4213 48.1138C94.1953 53.2289 94.9405 58.0314 97.5742 62.1368C94.3903 63.8863 88.9654 64.0413 87.9344 64.0787H4.01563C1.80935 64.0813 0.0197487 65.8415 0.00639346 68.0158C-0.0924351 75.3157 0.949271 82.8481 3.49477 89.7019C6.40354 97.2289 10.7333 102.774 16.3638 106.166C22.6728 109.978 32.9243 112.157 44.546 112.157C49.7946 112.173 55.0352 111.706 60.1956 110.758C67.37 109.457 74.2747 106.984 80.6211 103.439C85.851 100.45 90.5573 96.6493 94.5612 92.1807C101.252 84.7071 105.237 76.3868 108.202 68.9907C108.6 68.9907 108.998 68.9907 109.383 68.9907C116.71 68.9907 121.213 66.098 123.697 63.6753C125.348 62.1288 126.638 60.2457 127.474 58.1596L128 56.6425L126.737 55.6569Z" fill="#2395EC"/>
<path d="M21.1583 61.4077H13.1452C11.6707 61.4077 10.4741 60.2111 10.4741 58.7367V50.7235C10.4741 49.2491 11.6707 48.0525 13.1452 48.0525H21.1583C22.6327 48.0525 23.8293 49.2491 23.8293 50.7235V58.7367C23.8293 60.2111 22.6327 61.4077 21.1583 61.4077Z" fill="#2395EC"/>
<path d="M37.1847 61.4077H29.1715C27.6971 61.4077 26.5005 60.2111 26.5005 58.7367V50.7235C26.5005 49.2491 27.6971 48.0525 29.1715 48.0525H37.1847C38.6591 48.0525 39.8557 49.2491 39.8557 50.7235V58.7367C39.8557 60.2111 38.6591 61.4077 37.1847 61.4077Z" fill="#2395EC"/>
<path d="M53.2108 61.4077H45.1977C43.7232 61.4077 42.5266 60.2111 42.5266 58.7367V50.7235C42.5266 49.2491 43.7232 48.0525 45.1977 48.0525H53.2108C54.6852 48.0525 55.8818 49.2491 55.8818 50.7235V58.7367C55.8818 60.2111 54.6852 61.4077 53.2108 61.4077Z" fill="#2395EC"/>
<path d="M69.2371 61.4077H61.224C59.7496 61.4077 58.553 60.2111 58.553 58.7367V50.7235C58.553 49.2491 59.7496 48.0525 61.224 48.0525H69.2371C70.7116 48.0525 71.9082 49.2491 71.9082 50.7235V58.7367C71.9082 60.2111 70.7116 61.4077 69.2371 61.4077Z" fill="#2395EC"/>
<path d="M37.1847 45.3814H29.1715C27.6971 45.3814 26.5005 44.1848 26.5005 42.7104V34.6973C26.5005 33.2229 27.6971 32.0262 29.1715 32.0262H37.1847C38.6591 32.0262 39.8557 33.2229 39.8557 34.6973V42.7104C39.8557 44.1848 38.6591 45.3814 37.1847 45.3814Z" fill="#2395EC"/>
<path d="M53.2108 45.3814H45.1977C43.7232 45.3814 42.5266 44.1848 42.5266 42.7104V34.6973C42.5266 33.2229 43.7232 32.0262 45.1977 32.0262H53.2108C54.6852 32.0262 55.8818 33.2229 55.8818 34.6973V42.7104C55.8818 44.1848 54.6852 45.3814 53.2108 45.3814Z" fill="#2395EC"/>
<path d="M69.2371 45.3814H61.224C59.7496 45.3814 58.553 44.1848 58.553 42.7104V34.6973C58.553 33.2229 59.7496 32.0262 61.224 32.0262H69.2371C70.7116 32.0262 71.9082 33.2229 71.9082 34.6973V42.7104C71.9082 44.1848 70.7116 45.3814 69.2371 45.3814Z" fill="#2395EC"/>
<path d="M69.2371 29.3552H61.224C59.7496 29.3552 58.553 28.1586 58.553 26.6842V18.671C58.553 17.1966 59.7496 16 61.224 16H69.2371C70.7116 16 71.9082 17.1966 71.9082 18.671V26.6842C71.9082 28.1586 70.7116 29.3552 69.2371 29.3552Z" fill="#2395EC"/>
<path d="M85.2633 61.4077H77.2501C75.7757 61.4077 74.5791 60.2111 74.5791 58.7367V50.7235C74.5791 49.2491 75.7757 48.0525 77.2501 48.0525H85.2633C86.7377 48.0525 87.9343 49.2491 87.9343 50.7235V58.7367C87.9343 60.2111 86.7377 61.4077 85.2633 61.4077Z" fill="#2395EC"/>
</g>
<defs>
<clipPath id="clip0_975_19">
<rect width="128" height="128" fill="white" transform="translate(0.108887)"/>
</clipPath>
</defs>
</svg>
