<svg width="129" height="128" viewBox="0 0 129 128" fill="none" xmlns="http://www.w3.org/2000/svg">
<g clip-path="url(#clip0_975_13)">
<path d="M128 66.8125C128.011 61.6186 126.416 56.5483 123.433 52.2965C120.45 48.0447 116.225 44.8195 111.337 43.0629C112.339 37.8297 112.175 32.4399 110.857 27.2773C109.538 22.1147 107.098 17.3062 103.709 13.1943C100.321 9.08242 96.067 5.7682 91.2514 3.48765C86.4358 1.20709 81.1767 0.016289 75.8484 2.57883e-05C70.1227 -0.00681789 64.4775 1.34856 59.3791 3.95422C54.2806 6.55988 49.8752 10.3411 46.5266 14.9855C43.6855 12.7911 40.2861 11.4369 36.7143 11.0767C33.1425 10.7164 29.5412 11.3645 26.319 12.9474C23.0969 14.5303 20.383 16.9847 18.4851 20.0319C16.5872 23.0792 15.5815 26.5974 15.5819 30.1873C15.5899 32.4752 15.9926 34.7446 16.7721 36.8956C11.8674 38.6503 7.62414 41.8766 4.62216 46.1338C1.62018 50.3909 0.00593579 55.4711 1.63384e-05 60.6802C-0.00590312 65.8893 1.59679 70.9732 4.58909 75.2372C7.58138 79.5011 11.8173 82.7371 16.718 84.5029C15.1435 92.5799 16.3788 100.953 20.2188 108.231C24.0588 115.509 30.2725 121.255 37.8284 124.515C45.3843 127.775 53.8278 128.352 61.7572 126.152C69.6867 123.952 76.6251 119.105 81.4206 112.418C84.7591 115.071 88.8956 116.52 93.1601 116.53C98.2532 116.528 103.137 114.504 106.739 110.903C110.34 107.302 112.364 102.417 112.365 97.3244C112.357 95.0365 111.955 92.7671 111.175 90.6161C116.078 88.8469 120.321 85.6158 123.329 81.3591C126.338 77.1024 127.968 72.025 128 66.8125Z" fill="white"/>
<path d="M50.3136 54.9107L78.337 67.6781L106.577 42.9007C106.994 40.8537 107.194 38.7683 107.172 36.6793C107.177 29.9354 105.021 23.3673 101.022 17.9372C97.0229 12.5072 91.3897 8.50063 84.948 6.50461C78.5063 4.50859 71.5947 4.62802 65.2258 6.84541C58.8569 9.0628 53.3655 13.2616 49.5562 18.8266L44.8496 43.2253L50.3136 54.9107Z" fill="#FED10A"/>
<path d="M21.3164 84.557C20.899 86.6405 20.6996 88.7618 20.7213 90.8866C20.7296 97.6584 22.9068 104.25 26.9338 109.694C30.9608 115.138 36.6258 119.149 43.0986 121.14C49.5713 123.13 56.5114 122.994 62.9016 120.753C69.2917 118.512 74.7959 114.283 78.6074 108.685L83.2599 84.3947L77.0385 72.4929L48.907 59.6714L21.3164 84.557Z" fill="#24BBB1"/>
<path d="M21.1541 36.0841L40.3593 40.6285L44.579 18.8265C41.9738 16.8318 38.7914 15.7369 35.5104 15.7065C32.2293 15.6762 29.0272 16.712 26.3855 18.6581C23.7438 20.6043 21.8055 23.3556 20.8621 26.4982C19.9186 29.6408 20.0211 33.0048 21.1541 36.0841Z" fill="#EF5098"/>
<path d="M19.4771 40.6826C15.3219 42.0461 11.6915 44.664 9.08555 48.1759C6.47958 51.6878 5.02615 55.921 4.92531 60.293C4.82446 64.665 6.08115 68.9608 8.52243 72.5891C10.9637 76.2175 14.4695 78.9999 18.5574 80.5536L45.4988 56.209L40.5757 45.6597L19.4771 40.6826Z" fill="#17A8E0"/>
<path d="M83.4763 108.685C86.0833 110.656 89.2576 111.73 92.5255 111.749C95.7934 111.767 98.9795 110.728 101.608 108.787C104.237 106.845 106.168 104.106 107.112 100.978C108.056 97.849 107.963 94.499 106.847 91.4275L87.6961 86.9373L83.4763 108.685Z" fill="#93C83E"/>
<path d="M87.3715 81.9061L108.47 86.8291C112.625 85.4656 116.256 82.8477 118.862 79.3358C121.468 75.8239 122.921 71.5906 123.022 67.2187C123.123 62.8467 121.866 58.5509 119.425 54.9225C116.984 51.2942 113.478 48.5117 109.39 46.9581L81.7993 71.1404L87.3715 81.9061Z" fill="#0779A1"/>
</g>
<defs>
<clipPath id="clip0_975_13">
<rect width="128" height="128" fill="white" transform="translate(0.108887)"/>
</clipPath>
</defs>
</svg>
