<svg width="128" height="128" viewBox="0 0 128 128" fill="#666666" xmlns="http://www.w3.org/2000/svg">
<path d="M128 99.18C123.344 100.364 120.464 99.232 117.88 95.352L99.504 69.928L96.848 66.408L75.388 95.436C72.936 98.928 70.364 100.448 65.788 99.212L93.268 62.324L67.684 29.004C72.084 28.148 75.124 28.584 77.824 32.524L96.884 58.264L116.084 32.664C118.544 29.172 121.188 27.844 125.604 29.132L115.684 42.284L102.244 59.784C100.644 61.784 100.864 63.152 102.336 65.084L128 99.18ZM0.032 61.708L2.28 50.652C8.4 28.772 33.48 19.68 50.776 33.2C60.884 41.152 63.396 52.4 62.896 65H5.92C5.064 87.68 21.388 101.368 42.2 94.384C49.5 91.932 53.8 86.216 55.952 79.064C57.044 75.48 58.852 74.92 62.22 75.944C60.5 84.888 56.62 92.36 48.42 97.036C36.168 104.036 18.68 101.772 9.48 92.044C4 86.4 1.736 79.248 0.72 71.6C0.56 70.336 0.24 69.132 0 67.92C0.0213333 65.8507 0.032 63.7813 0.032 61.712V61.708ZM6.024 60.188H57.512C57.176 43.788 46.964 32.14 33.008 32.04C17.688 31.92 6.688 43.292 6.024 60.188Z"/>
</svg>
