<svg width="128" height="128" viewBox="0 0 128 128" fill="none" xmlns="http://www.w3.org/2000/svg">
    <path d="M125.586 58.297L69.7001 2.41388C66.4836 -0.804627 61.2636 -0.804627 58.0431 2.41388L46.4381 14.0189L61.1596 28.7404C64.5806 27.5844 68.5036 28.3599 71.2306 31.0869C73.9706 33.8314 74.7406 37.7879 73.5566 41.22L87.7442 55.408C91.1767 54.2255 95.1372 54.9905 97.8787 57.7365C101.71 61.5665 101.71 67.774 97.8787 71.6065C94.0462 75.4395 87.8387 75.4395 84.0042 71.6065C81.1222 68.7215 80.4102 64.489 81.8692 60.9385L68.6381 47.7075L68.6366 82.526C69.5958 83.0003 70.4718 83.6267 71.2306 84.381C75.0621 88.211 75.0621 94.4191 71.2306 98.2546C67.3981 102.086 61.1876 102.086 57.3606 98.2546C53.5291 94.4191 53.5291 88.2115 57.3606 84.3815C58.2788 83.4629 59.37 82.7354 60.5711 82.241V47.098C59.3683 46.6069 58.2764 45.879 57.3606 44.9575C54.4576 42.0585 53.7596 37.7989 55.2471 34.2344L40.7351 19.7209L2.415 58.0385C-0.805002 61.26 -0.805002 66.4805 2.415 69.6995L58.3021 125.584C61.5196 128.803 66.7386 128.803 69.9601 125.584L125.586 69.959C128.805 66.739 128.805 61.5155 125.586 58.297" fill="#DE4C36"/>
</svg>
