<svg width="128" height="128" viewBox="0 0 128 128" fill="none" xmlns="http://www.w3.org/2000/svg">
<path d="M18.2607 69.2043C18.4408 72.9865 22.2631 71.2054 23.9241 70.0448C25.585 68.8841 25.9252 69.8646 26.1654 67.6433C26.3129 66.1941 26.3731 64.7373 26.3455 63.2808C23.8236 63.0228 21.292 63.6682 19.2013 65.1018C18.1607 65.8623 16.2195 68.2637 18.2407 69.1042" fill="#F6D2A2"/>
<path d="M20.2219 71.9459C19.8479 71.9511 19.4779 71.8688 19.1413 71.7057C18.7562 71.4836 18.438 71.1621 18.2197 70.7748C18.0015 70.3876 17.8912 69.9488 17.9005 69.5044C17.653 69.3811 17.4406 69.1971 17.2832 68.9697C17.1257 68.7423 17.0283 68.4788 17 68.2037C17.0717 67.5377 17.288 66.8954 17.6336 66.3216C17.9793 65.7479 18.446 65.2565 19.0012 64.8817C21.1601 63.3954 23.7786 62.7284 26.3855 63.0006H26.6857V63.3008C26.7275 64.4424 26.6941 65.5856 26.5857 66.7228V67.7234C26.4856 69.2843 26.1854 69.5244 25.3849 69.7246C24.9579 69.8568 24.5531 70.0524 24.1842 70.3049C23.0328 71.1944 21.6651 71.7608 20.2219 71.9459V71.9459ZM25.3049 63.681C23.2032 63.6485 21.1447 64.2787 19.4214 65.4821C18.9737 65.7913 18.5936 66.1886 18.3046 66.6496C18.0156 67.1107 17.8236 67.6259 17.7404 68.1636C17.765 68.3506 17.8419 68.5269 17.9623 68.672C18.0827 68.8172 18.2416 68.9254 18.4208 68.9841H18.621V69.2043C18.592 69.5517 18.6544 69.9006 18.8018 70.2165C18.9492 70.5324 19.1766 70.8043 19.4615 71.0053C20.2194 71.1229 20.994 71.0727 21.7305 70.8584C22.467 70.644 23.1475 70.2706 23.724 69.7646C24.1415 69.4718 24.6001 69.2425 25.0848 69.0842C25.6051 68.9041 25.7251 68.8641 25.8052 67.6233V66.6227C25.8989 65.625 25.939 64.623 25.9253 63.621H25.3049V63.681Z" fill="#010101"/>
<path d="M18.2607 69.2042C18.8327 69.0776 19.3548 68.7853 19.7616 68.3637Z" fill="#C7B199"/>
<path d="M18.2607 69.5645C18.1678 69.5937 18.0672 69.5848 17.9809 69.5397C17.8945 69.4947 17.8296 69.4172 17.8005 69.3243C17.7713 69.2314 17.7802 69.1308 17.8252 69.0445C17.8702 68.9581 17.9477 68.8932 18.0406 68.8641H18.2807C18.7036 68.766 19.0871 68.5428 19.3814 68.2237C19.4103 68.1856 19.4464 68.1535 19.4877 68.1294C19.529 68.1053 19.5746 68.0895 19.622 68.083C19.6694 68.0765 19.7176 68.0794 19.7639 68.0915C19.8102 68.1036 19.8536 68.1247 19.8917 68.1536C19.9298 68.1825 19.9618 68.2187 19.986 68.26C20.0101 68.3013 20.0259 68.3469 20.0324 68.3943C20.0389 68.4417 20.036 68.4899 20.0239 68.5361C20.0118 68.5824 19.9906 68.6258 19.9617 68.6639C19.5834 69.0986 19.0803 69.4061 18.5209 69.5445H18.2607V69.5645Z" fill="#010101"/>
<path d="M26.9858 24.1977C12.5173 20.1954 23.2837 1.72446 34.9906 9.28893L26.9858 24.1977Z" fill="#74CDDD"/>
<path d="M27.166 24.618H26.8858C22.7634 23.4573 20.2219 21.0158 19.7416 17.7539C19.5714 15.9804 19.8988 14.1946 20.687 12.5968C21.4753 10.9991 22.6933 9.65261 24.2043 8.70858C25.8457 7.6701 27.7616 7.14915 29.7029 7.21338C31.6442 7.27762 33.5214 7.92407 35.0907 9.06879L35.3708 9.24889L27.166 24.618ZM29.1672 7.84807C27.525 7.85019 25.9188 8.32995 24.5445 9.22888C23.146 10.0967 22.0173 11.3375 21.2855 12.8118C20.5537 14.286 20.2477 15.9352 20.402 17.5738C20.8423 20.4755 23.0836 22.6768 26.7458 23.7775L34.3502 9.429C32.812 8.46696 31.0412 7.94124 29.2272 7.9081L29.1672 7.84807Z" fill="#010101"/>
<path d="M91.2638 7.90811C102.711 -0.0966078 113.057 17.914 99.7488 22.5768L91.2638 7.90811Z" fill="#74CDDD"/>
<path d="M99.5886 23.017L90.7834 7.80806L91.0436 7.62795C92.5089 6.45341 94.291 5.7423 96.1624 5.58546C98.0338 5.42863 99.9094 5.83317 101.55 6.74743C103.098 7.65391 104.364 8.97158 105.208 10.5542C106.052 12.1367 106.442 13.9223 106.333 15.7127C106.133 17.7139 105.052 21.1359 99.8688 22.917L99.5886 23.017ZM91.744 8.00818L99.9088 22.1365C101.391 21.7346 102.722 20.9055 103.736 19.7526C104.75 18.5997 105.403 17.1738 105.612 15.6527C105.717 13.9945 105.359 12.3399 104.578 10.8734C103.797 9.40695 102.624 8.18633 101.19 7.34779C99.727 6.5093 98.0482 6.12441 96.3664 6.24199C94.6846 6.35957 93.0757 6.97433 91.744 8.00818V8.00818Z" fill="#010101"/>
<path d="M93.7252 115.712C96.6269 117.513 101.95 122.956 97.5875 125.598C93.405 129.44 91.0436 121.375 87.3615 120.274C88.0687 119.132 88.9952 118.14 90.0874 117.357C91.1796 116.574 92.4159 116.015 93.7252 115.712Z" fill="#F6D2A2"/>
<path d="M95.3662 126.978H95.2061C93.5451 126.878 92.1843 125.257 90.8635 123.716C89.9509 122.389 88.7099 121.32 87.2614 120.615L86.7811 120.474L87.0813 119.974C88.5699 117.6 90.9363 115.909 93.6652 115.271H93.9253C95.7864 116.432 99.6287 119.794 99.6087 122.836C99.5972 123.437 99.4238 124.024 99.1068 124.534C98.7898 125.045 98.341 125.461 97.8076 125.738C97.1875 126.455 96.311 126.9 95.3662 126.978ZM87.9218 120.094C89.2793 120.893 90.4578 121.962 91.3838 123.236C92.2588 124.673 93.6232 125.746 95.2261 126.258C95.6054 126.242 95.9776 126.15 96.3212 125.989C96.6648 125.827 96.9728 125.599 97.2273 125.317C97.6637 125.104 98.0328 124.774 98.2941 124.365C98.5554 123.955 98.6986 123.482 98.7082 122.996C98.7082 120.555 95.6263 117.493 93.4851 116.112C91.2039 116.698 89.2257 118.12 87.9418 120.094H87.9218Z" fill="#010101"/>
<path d="M97.5876 125.978C97.5209 125.977 97.4557 125.958 97.3992 125.923C97.3426 125.888 97.297 125.837 97.2674 125.778C97.0557 125.335 96.8687 124.88 96.7071 124.417C96.4636 123.511 96.0112 122.675 95.3863 121.975C95.3521 121.943 95.3248 121.903 95.3058 121.86C95.2868 121.816 95.2765 121.77 95.2756 121.722C95.2747 121.675 95.2831 121.628 95.3003 121.584C95.3176 121.54 95.3434 121.499 95.3763 121.465C95.4091 121.431 95.4484 121.404 95.4918 121.385C95.5352 121.366 95.582 121.355 95.6293 121.354C95.6767 121.353 95.7238 121.362 95.768 121.379C95.8121 121.396 95.8524 121.422 95.8866 121.455C96.5775 122.209 97.0844 123.114 97.3674 124.097C97.5243 124.533 97.7046 124.961 97.9078 125.377C97.9496 125.462 97.9563 125.56 97.9263 125.65C97.8963 125.74 97.8322 125.815 97.7477 125.858L97.5876 125.978Z" fill="#010101"/>
<path d="M41.7546 121.855C38.3325 122.376 36.4114 125.457 33.5697 127.018C33.2716 127.294 32.9105 127.492 32.518 127.595C32.1256 127.698 31.7139 127.704 31.3188 127.611C30.9238 127.518 30.5576 127.33 30.2522 127.062C29.9469 126.795 29.7117 126.457 29.5674 126.078C29.3688 126.083 29.1717 126.042 28.9913 125.958C28.8109 125.875 28.652 125.752 28.5268 125.598C26.0453 121.595 31.1083 118.814 33.7699 116.852C37.5121 116.132 39.8134 119.314 41.7546 121.855V121.855Z" fill="#F6D2A2"/>
<path d="M31.7687 127.979C31.5562 128.007 31.3409 128.007 31.1283 127.979C30.7528 127.857 30.4053 127.662 30.1063 127.404C29.8073 127.147 29.5628 126.832 29.3873 126.478C29.194 126.477 29.004 126.429 28.8333 126.338C28.6626 126.247 28.5162 126.117 28.4067 125.958C26.0053 122.175 30.0877 119.314 32.7893 117.413L33.7299 116.732C37.5121 115.972 39.9135 119.094 41.8346 121.615L42.375 122.336H41.7746C39.8435 122.797 38.0859 123.804 36.7116 125.237C35.7899 126.085 34.7841 126.836 33.7099 127.479C33.1157 127.807 32.4477 127.98 31.7687 127.979V127.979ZM29.3673 125.658C29.5057 125.627 29.6491 125.627 29.7875 125.658H29.8876L30.0477 125.978C30.1778 126.261 30.3636 126.515 30.594 126.724C30.8243 126.934 31.0945 127.095 31.3885 127.198C32.0926 127.304 32.8103 127.132 33.3897 126.718C34.4275 126.098 35.3997 125.374 36.2914 124.557C37.6422 123.207 39.2955 122.198 41.1142 121.615C39.2731 119.214 37.1119 116.612 33.97 117.213L33.0695 117.853C30.3078 119.854 26.8858 122.216 28.867 125.397C28.9114 125.473 28.9723 125.537 29.045 125.586C29.1178 125.634 29.2006 125.666 29.2872 125.678L29.3673 125.658Z" fill="#010101"/>
<path d="M29.6275 126.458C29.5682 126.461 29.5089 126.45 29.455 126.425C29.4011 126.4 29.3542 126.362 29.3185 126.315C29.2829 126.267 29.2595 126.211 29.2506 126.153C29.2416 126.094 29.2474 126.034 29.2673 125.978C29.4148 125.016 29.8154 124.112 30.428 123.356C30.7177 122.959 30.9721 122.537 31.1884 122.095C31.2282 122.008 31.3012 121.94 31.3913 121.906C31.4813 121.872 31.5811 121.876 31.6687 121.915C31.7563 121.955 31.8245 122.028 31.8582 122.118C31.892 122.208 31.8886 122.308 31.8488 122.396C31.6164 122.879 31.3419 123.341 31.0283 123.776C30.4999 124.456 30.1616 125.264 30.0478 126.118C30.0456 126.169 30.0327 126.219 30.0097 126.265C29.9867 126.31 29.9543 126.351 29.9145 126.383C29.8747 126.415 29.8286 126.438 29.7791 126.451C29.7296 126.464 29.6779 126.467 29.6275 126.458V126.458ZM27.5863 19.1147C25.5851 18.1141 24.2844 16.7333 25.445 14.532C26.6057 12.3307 28.5269 12.7109 30.448 13.7115L27.5863 19.1147ZM96.7271 17.1936C98.7283 16.193 100.029 14.8122 98.8683 12.6109C97.7076 10.4096 95.7865 10.7898 93.8654 11.7904L96.7271 17.1936Z" fill="#010101"/>
<path d="M109.875 68.724C109.695 72.5062 105.872 70.7252 104.211 69.5645C102.55 68.4038 102.21 69.3844 101.97 67.1631C101.823 65.7138 101.762 64.257 101.79 62.8005C104.312 62.5426 106.843 63.1879 108.934 64.6216C109.975 65.382 111.916 67.7834 109.895 68.6239" fill="#F6D2A2"/>
<path d="M107.914 71.3855C106.538 71.236 105.223 70.7403 104.091 69.9447C103.722 69.6922 103.318 69.4966 102.891 69.3643C102.09 69.0842 101.79 68.844 101.69 67.3632V66.3626C101.581 65.2253 101.548 64.0822 101.59 62.9406V62.4603H101.89C104.497 62.188 107.115 62.8551 109.274 64.3414C109.83 64.7161 110.296 65.2075 110.642 65.7813C110.988 66.3551 111.204 66.9974 111.276 67.6633C111.247 67.9385 111.15 68.202 110.992 68.4294C110.835 68.6568 110.623 68.8407 110.375 68.9641C110.384 69.4085 110.274 69.8473 110.056 70.2345C109.838 70.6217 109.519 70.9432 109.134 71.1654C108.753 71.3435 108.333 71.4194 107.914 71.3855V71.3855ZM102.09 63.1407C102.077 64.1427 102.117 65.1447 102.21 66.1424V67.143C102.21 68.3637 102.39 68.4038 102.931 68.6039C103.415 68.7623 103.874 68.9915 104.291 69.2843C104.867 69.7915 105.548 70.1656 106.284 70.3801C107.021 70.5945 107.796 70.644 108.554 70.525C108.839 70.324 109.066 70.0521 109.214 69.7362C109.361 69.4203 109.423 69.0714 109.394 68.724V68.4838H109.595C109.774 68.4251 109.933 68.3169 110.053 68.1717C110.173 68.0266 110.25 67.8503 110.275 67.6633C110.192 67.1256 110 66.6104 109.711 66.1493C109.422 65.6883 109.042 65.291 108.594 64.9818C106.698 63.6471 104.404 62.9978 102.09 63.1407V63.1407Z" fill="#010101"/>
<path d="M109.875 68.724C109.31 68.6142 108.788 68.3431 108.374 67.9435Z" fill="#C7B199"/>
<path d="M109.875 69.0842H109.495C108.934 68.9059 108.444 68.5559 108.094 68.0836C108.065 68.0455 108.044 68.0021 108.032 67.9558C108.019 67.9095 108.017 67.8613 108.023 67.8139C108.03 67.7666 108.045 67.7209 108.069 67.6796C108.094 67.6383 108.126 67.6022 108.164 67.5733C108.202 67.5444 108.245 67.5233 108.292 67.5111C108.338 67.499 108.386 67.4961 108.433 67.5026C108.481 67.5091 108.526 67.5249 108.568 67.549C108.609 67.5732 108.645 67.6052 108.674 67.6433C108.968 67.9625 109.352 68.1856 109.775 68.2837H110.015C110.121 68.3023 110.215 68.3623 110.277 68.4505C110.339 68.5387 110.364 68.6478 110.345 68.754C110.326 68.8601 110.266 68.9546 110.178 69.0165C110.09 69.0784 109.981 69.1028 109.875 69.0842V69.0842Z" fill="#010101"/>
<path d="M62.6269 0.263596C77.1154 0.263596 90.6434 2.26478 97.7676 16.273C104.111 31.8622 101.77 48.6922 102.831 65.1619C103.671 79.3102 105.512 95.6599 98.9483 108.788C92.0842 122.556 74.754 125.978 60.5456 125.517C49.379 125.117 35.8911 121.515 29.5874 111.269C22.183 99.262 25.6851 81.4915 26.2254 68.1836C26.8658 52.4143 21.9429 36.585 27.1259 21.1359C32.5091 5.12646 46.9976 1.50433 62.6068 0.263596" fill="#74CDDD"/>
<path d="M63.0072 125.978H60.5257C54.5606 125.81 48.6671 124.633 43.0954 122.496C37.4229 120.44 32.5705 116.598 29.2673 111.549C23.2637 101.864 24.3444 88.4956 25.2649 76.6887C25.5051 73.7269 25.7252 70.9053 25.8253 68.2637C25.9313 62.6642 25.6907 57.0636 25.1048 51.4938C24.2643 41.4879 23.3838 31.1418 26.7458 21.1159C27.8305 17.5935 29.636 14.3353 32.0476 11.5482C34.4592 8.76104 37.4241 6.50602 40.7541 4.92635C46.1572 2.28479 52.7611 0.763896 62.4669 0.00344789C76.7553 -0.0966111 90.8436 1.90457 98.0879 16.0929C102.731 27.4997 102.791 39.7469 102.871 51.5939C102.871 56.0365 102.871 60.6192 103.191 65.1018C103.191 66.4626 103.351 67.8435 103.451 69.2243C104.292 82.2119 105.252 96.9606 99.2686 108.888C91.7841 123.816 72.9731 125.978 63.0072 125.978ZM62.627 0.623814C47.5581 1.90457 32.8694 5.14648 27.4662 21.256C24.1443 31.1418 25.0248 41.4079 25.8453 51.2737C26.4331 56.8701 26.6737 62.4975 26.5657 68.1236C26.4656 70.7852 26.2255 73.6069 26.0054 76.5886C25.0848 88.2755 24.0042 101.543 29.8676 111.009C32.3291 115.011 40.2538 124.357 60.5457 125.017C69.3309 125.337 90.5634 124.337 98.5681 108.447C104.452 96.6805 103.511 82.0518 102.671 69.1442C102.671 67.7434 102.49 66.3626 102.41 65.0218C102.19 60.6592 102.09 56.0565 102.09 51.6139C102.09 39.8469 101.97 27.5997 97.3674 16.3931C94.4068 10.3012 89.1656 5.62075 82.7788 3.36543C76.2672 1.30831 69.4515 0.38105 62.627 0.623814V0.623814Z" fill="#010101"/>
<path d="M65.1684 19.6951C67.7699 34.804 92.4645 30.8216 88.9224 15.5726C85.7405 1.90457 64.3079 5.6868 65.1684 19.6951Z" fill="white"/>
<path d="M76.9153 29.5609C75.3771 29.5673 73.8485 29.3171 72.3927 28.8204C70.4119 28.1651 68.6538 26.969 67.3171 25.367C65.9803 23.7651 65.1183 21.8212 64.8282 19.7551C64.6937 18.1378 64.9023 16.5103 65.4403 14.9791C65.9783 13.4479 66.8335 12.0477 67.95 10.8699C70.0917 8.67268 72.9121 7.26248 75.9548 6.86749C78.7434 6.42614 81.5997 6.91861 84.0796 8.26832C85.4024 9.04094 86.5476 10.0836 87.4407 11.3283C88.3337 12.573 88.9545 13.9919 89.2626 15.4926C89.8012 17.3899 89.798 19.4002 89.2534 21.2958C88.7087 23.1915 87.6444 24.8968 86.1808 26.2189C83.5987 28.4178 80.3065 29.6052 76.9153 29.5609V29.5609ZM65.5286 19.655C65.8026 21.5939 66.6129 23.4176 67.8682 24.9204C69.1235 26.4232 70.7737 27.5453 72.6328 28.1601C74.8477 28.9007 77.2153 29.0615 79.51 28.6271C81.8046 28.1927 83.9497 27.1776 85.7405 25.6786C87.0894 24.4337 88.0699 22.8418 88.5746 21.077C89.0793 19.3122 89.0889 17.4425 88.6022 15.6727C87.988 12.9511 86.3338 10.5776 83.9929 9.05943C81.6521 7.54125 78.8103 6.99877 76.0748 7.5479C73.0897 7.80344 70.3208 9.20924 68.3529 11.4684C66.3851 13.7275 65.3723 16.6631 65.5286 19.655V19.655Z" fill="#010101"/>
<path d="M35.651 22.1565C39.013 35.3043 60.0654 31.9223 59.285 18.7345C58.3444 2.92517 32.4291 5.90693 35.651 22.1565Z" fill="white"/>
<path d="M46.8976 30.8216C44.757 30.8377 42.646 30.322 40.754 29.3207C39.3996 28.5867 38.216 27.5742 37.2812 26.3497C36.3465 25.1252 35.6817 23.7165 35.3308 22.2165C34.8089 20.1695 34.886 18.0157 35.553 16.0112C36.22 14.0068 37.4487 12.2361 39.093 10.9099C41.0811 9.39286 43.4345 8.42747 45.9152 8.11123C48.3959 7.79499 50.9162 8.1391 53.2213 9.10881C55.0965 9.92865 56.6967 11.2697 57.832 12.9725C58.9672 14.6753 59.5895 16.6683 59.6251 18.7145C60.0454 25.7186 54.4821 29.801 49.1589 30.7216C48.4089 30.8133 47.6528 30.8467 46.8976 30.8216V30.8216ZM36.0512 22.0765C36.7439 24.8582 38.502 27.2563 40.9465 28.7538C43.391 30.2512 46.3261 30.7279 49.1189 30.0812C54.1619 29.2807 59.425 25.4384 59.0247 18.8546C59.0006 16.929 58.4213 15.0513 57.3564 13.4469C56.2915 11.8424 54.7862 10.5794 53.0212 9.80922C50.8295 8.88928 48.4338 8.56397 46.0761 8.86615C43.7184 9.16833 41.4822 10.0873 39.5933 11.5302C38.0635 12.7713 36.9183 14.4218 36.2911 16.2891C35.6639 18.1564 35.5807 20.1636 36.0512 22.0765V22.0765Z" fill="#010101"/>
<path d="M68.0701 37.9258C68.2627 40.0093 68.2627 42.1061 68.0701 44.1895C67.4842 44.9312 66.6548 45.4416 65.7287 45.6304C65.1592 45.5429 64.6207 45.3138 64.1626 44.9642C63.7046 44.6146 63.3417 44.1555 63.1072 43.6292C62.9786 41.2668 63.0389 38.8978 63.2873 36.545L68.0701 37.9258Z" fill="white"/>
<path d="M65.9488 45.9305H65.8488C65.2126 45.8317 64.6122 45.5721 64.1044 45.1764C63.5967 44.7807 63.1983 44.2619 62.947 43.6692C62.7808 42.0525 62.7808 40.423 62.947 38.8063C62.947 38.0659 63.0671 37.2854 63.0871 36.525V35.9246L68.4903 37.5856V37.9258C68.4903 38.5662 68.4903 39.2466 68.5904 39.927C68.771 41.3555 68.771 42.801 68.5904 44.2295V44.3296C68.3806 44.672 68.1043 44.9689 67.7777 45.2027C67.4512 45.4364 67.0811 45.6023 66.6893 45.6904L66.0689 45.9305H65.9488ZM63.6275 43.409C63.8276 43.8661 64.1365 44.2672 64.5271 44.5776C64.9178 44.8881 65.3783 45.0983 65.8688 45.1901L66.4291 44.97C67.0322 44.8248 67.5557 44.4519 67.89 43.9293C68.0488 42.5999 68.0488 41.2564 67.89 39.927C67.89 39.3066 67.89 38.7063 67.7899 38.1059L63.7875 36.8852C63.7875 37.5056 63.7875 38.1259 63.6675 38.7263C63.4902 40.2745 63.4701 41.8367 63.6074 43.389L63.6275 43.409Z" fill="#010101"/>
<path d="M41.4544 23.8575C43.4217 23.8575 45.0165 22.1283 45.0165 19.9952C45.0165 17.8622 43.4217 16.133 41.4544 16.133C39.4871 16.133 37.8923 17.8622 37.8923 19.9952C37.8923 22.1283 39.4871 23.8575 41.4544 23.8575Z" fill="#010101"/>
<path d="M43.0754 21.8563C43.5396 21.8563 43.9159 21.4173 43.9159 20.8757C43.9159 20.3342 43.5396 19.8952 43.0754 19.8952C42.6112 19.8952 42.2349 20.3342 42.2349 20.8757C42.2349 21.4173 42.6112 21.8563 43.0754 21.8563Z" fill="white"/>
<path d="M71.272 22.8969C73.2061 22.8969 74.774 21.1677 74.774 19.0347C74.774 16.9016 73.2061 15.1724 71.272 15.1724C69.3378 15.1724 67.7699 16.9016 67.7699 19.0347C67.7699 21.1677 69.3378 22.8969 71.272 22.8969Z" fill="#010101"/>
<path d="M72.853 20.8958C73.3061 20.8958 73.6734 20.4568 73.6734 19.9152C73.6734 19.3736 73.3061 18.9346 72.853 18.9346C72.3998 18.9346 72.0325 19.3736 72.0325 19.9152C72.0325 20.4568 72.3998 20.8958 72.853 20.8958Z" fill="white"/>
<path d="M58.0642 37.6256C56.5032 41.3879 58.9247 48.9123 63.1472 43.369C63.0186 41.0066 63.0789 38.6377 63.3273 36.2849L58.0642 37.6256Z" fill="white"/>
<path d="M60.2456 45.7104C59.8796 45.7139 59.5197 45.617 59.2049 45.4302C57.5039 44.4497 56.4433 40.4273 57.644 37.4255V37.2654L63.6476 35.7445V36.2248C63.6476 37.0053 63.6476 37.7857 63.5075 38.5262C63.3445 40.0962 63.3445 41.6789 63.5075 43.2489V43.5091C63.1833 44.1133 62.717 44.6294 62.1486 45.013C61.5803 45.3965 60.9271 45.6359 60.2456 45.7104V45.7104ZM58.2644 37.9258C57.4039 40.2672 58.0843 43.9293 59.5852 44.7899C60.6658 45.4102 61.8665 44.3296 62.707 43.2489C62.5548 41.6784 62.5548 40.0967 62.707 38.5262C62.707 37.9458 62.707 37.3255 62.8271 36.7251L58.2644 37.9258Z" fill="#010101"/>
<path d="M58.5245 30.3814C57.8029 30.45 57.1078 30.689 56.4963 31.0785C55.8849 31.468 55.3746 31.997 55.0074 32.6221C54.6402 33.2472 54.4265 33.9504 54.3839 34.6741C54.3413 35.3978 54.471 36.1213 54.7623 36.7851C56.7635 40.3873 61.2061 36.465 63.9678 36.7851C67.1496 36.7851 69.7712 40.1471 72.3327 37.3855C75.1744 34.3037 71.112 31.382 67.9301 29.9611L58.5245 30.3814Z" fill="#F6D2A2"/>
<path d="M70.0713 38.9064C69.054 38.8217 68.0622 38.5432 67.1496 38.0859C66.1599 37.5973 65.0874 37.2986 63.9877 37.2054C62.8416 37.2049 61.7087 37.4506 60.6657 37.9258C58.4244 38.7063 55.8829 39.5868 54.4421 37.0053C54.0846 36.3626 53.897 35.6394 53.897 34.904C53.897 34.1687 54.0846 33.4454 54.4421 32.8028C54.8307 32.0507 55.3997 31.4066 56.0981 30.9282C56.7966 30.4498 57.6027 30.1519 58.4444 30.0612L68.0701 29.6409C70.4315 30.6415 73.1331 32.4626 73.5934 34.5838C73.663 35.1017 73.6257 35.6284 73.4839 36.1313C73.342 36.6342 73.0984 37.1027 72.7684 37.5078C72.4383 37.9129 72.0286 38.246 71.5647 38.4866C71.1009 38.7271 70.5926 38.87 70.0713 38.9064V38.9064ZM64.0677 36.485C65.2509 36.581 66.4053 36.9001 67.4697 37.4255C69.2708 38.186 70.6916 38.7663 72.1325 37.2054C72.4615 36.9031 72.7091 36.5228 72.8525 36.0996C72.9959 35.6765 73.0305 35.224 72.953 34.784C72.5527 32.9429 70.0112 31.2619 67.93 30.3814L58.6245 30.7616C57.9083 30.8493 57.2243 31.1102 56.6315 31.5216C56.0388 31.9331 55.5552 32.4827 55.2225 33.123C54.9264 33.6591 54.7711 34.2616 54.7711 34.874C54.7711 35.4865 54.9264 36.0889 55.2225 36.625C56.3632 38.6262 58.4044 37.9658 60.5857 37.2254C61.681 36.7351 62.8678 36.4828 64.0677 36.485V36.485Z" fill="#231F20"/>
<path d="M58.0642 30.2413C57.844 25.2383 67.4097 24.598 68.5303 28.8004C69.651 33.0029 58.5244 33.9635 58.0642 30.2413Z" fill="#010101"/>
</svg>
