<svg width="128" height="128" viewBox="0 0 128 128" fill="none" xmlns="http://www.w3.org/2000/svg">
<path d="M13.7895 94.1952L18.3896 96.8512L69.6376 8.08966L65.0374 5.43366L13.7895 94.1952Z" fill="#E535AB"/>
<path d="M115.232 87.104H12.736V92.416H115.232V87.104Z" fill="#E535AB"/>
<path d="M14.7641 90.0882L66.0313 119.688L68.6873 115.088L17.4201 85.488L14.7641 90.0882Z" fill="#E535AB"/>
<path d="M59.3001 12.9429L110.567 42.5429L113.223 37.9427L61.9561 8.34274L59.3001 12.9429Z" fill="#E535AB"/>
<path d="M14.7783 37.9225L17.4343 42.5227L68.7015 12.9227L66.0455 8.32251L14.7783 37.9225Z" fill="#E535AB"/>
<path d="M58.3739 8.09064L109.622 96.8522L114.222 94.1962L62.9741 5.43464L58.3739 8.09064Z" fill="#E535AB"/>
<path d="M22.112 34.4H16.8V93.6H22.112V34.4Z" fill="#E535AB"/>
<path d="M111.2 34.4H105.888V93.6H111.2V34.4Z" fill="#E535AB"/>
<path d="M62.807 113.421L65.127 117.44L109.716 91.6957L107.396 87.6775L62.807 113.421Z" fill="#E535AB"/>
<path d="M118.24 95.328C115.168 100.672 108.32 102.496 102.976 99.424C97.6319 96.352 95.8079 89.504 98.8799 84.16C101.952 78.816 108.8 76.992 114.144 80.064C119.52 83.168 121.344 89.984 118.24 95.328Z" fill="#E535AB"/>
<path d="M29.088 43.84C26.016 49.184 19.168 51.008 13.824 47.936C8.47998 44.864 6.65598 38.016 9.72798 32.672C12.8 27.328 19.648 25.504 24.992 28.576C30.336 31.68 32.16 38.496 29.088 43.84Z" fill="#E535AB"/>
<path d="M9.76002 95.328C6.68802 89.984 8.51202 83.168 13.856 80.064C19.2 76.992 26.016 78.816 29.12 84.16C32.192 89.504 30.368 96.32 25.024 99.424C19.648 102.496 12.832 100.672 9.76002 95.328Z" fill="#E535AB"/>
<path d="M98.912 43.84C95.84 38.496 97.664 31.68 103.008 28.576C108.352 25.504 115.168 27.328 118.272 32.672C121.344 38.016 119.52 44.832 114.176 47.936C108.832 51.008 101.984 49.184 98.912 43.84Z" fill="#E535AB"/>
<path d="M64 126.656C57.824 126.656 52.832 121.664 52.832 115.488C52.832 109.312 57.824 104.32 64 104.32C70.176 104.32 75.168 109.312 75.168 115.488C75.168 121.632 70.176 126.656 64 126.656Z" fill="#E535AB"/>
<path d="M64 23.68C57.824 23.68 52.832 18.688 52.832 12.512C52.832 6.33599 57.824 1.34399 64 1.34399C70.176 1.34399 75.168 6.33599 75.168 12.512C75.168 18.688 70.176 23.68 64 23.68Z" fill="#E535AB"/>
</svg>
