<svg width="128" height="128" viewBox="0 0 128 128" fill="none" xmlns="http://www.w3.org/2000/svg">
<path d="M120.864 0L110.582 115.187L64.363 128L18.2715 115.204L8 0H120.864Z" fill="#E44D26"/>
<path d="M64.432 118.206L101.779 107.852L110.566 9.41943H64.432V118.206Z" fill="#F16529"/>
<path d="M44.4438 37.6786H64.4321V23.5492H29.0023L29.3403 27.3398L32.8132 66.2766H64.4321V52.1473H45.7352L44.4438 37.6786V37.6786ZM47.6283 73.3415H33.4445L35.4239 95.5268L64.367 103.561L64.4321 103.543V88.8428L64.3701 88.8592L48.6344 84.6102L47.6283 73.3415V73.3415Z" fill="#EBEBEB"/>
<path d="M64.3834 66.2766H81.7822L80.1417 84.6014L64.383 88.8548V103.554L93.3491 95.5268L93.5615 93.1395L96.8822 55.9414L97.2269 52.1473H64.3834V66.2766ZM64.3834 37.6441V37.6786H98.5125L98.7957 34.5029L99.4398 27.3398L99.7774 23.5492H64.3834V37.6445V37.6441Z" fill="white"/>
</svg>
