<svg width="128" height="128" viewBox="0 0 128 128" fill="none" xmlns="http://www.w3.org/2000/svg">
<path d="M47.4035 98.9894C47.4035 98.9894 42.5121 101.834 50.8846 102.797C61.0276 103.954 66.2116 103.788 77.3893 101.672C77.3893 101.672 80.328 103.515 84.4321 105.111C59.3747 115.85 27.7222 104.489 47.4035 98.9894ZM44.3416 84.9755C44.3416 84.9755 38.8554 89.0365 47.2341 89.9031C58.0692 91.0209 66.6259 91.1124 81.4323 88.2613C81.4323 88.2613 83.4806 90.3375 86.7008 91.4729C56.4046 100.332 22.6604 92.1715 44.3416 84.9755" fill="#5382A1"/>
<path d="M70.1542 61.2032C76.3284 68.3116 68.5324 74.7086 68.5324 74.7086C68.5324 74.7086 84.2089 66.6156 77.0094 56.4812C70.285 47.0299 65.1283 42.3344 93.0447 26.1438C93.0451 26.1435 49.2251 37.0876 70.1542 61.2032" fill="#E76F00"/>
<path d="M103.295 109.355C103.295 109.355 106.914 112.338 99.3082 114.645C84.8447 119.026 39.1097 120.349 26.4046 114.82C21.8375 112.833 30.4022 110.075 33.0963 109.497C35.906 108.888 37.5116 109.001 37.5116 109.001C32.4325 105.423 4.68234 116.026 23.4159 119.063C74.505 127.349 116.547 115.332 103.295 109.355V109.355ZM49.7557 70.4554C49.7557 70.4554 26.4919 75.981 41.5174 77.9875C47.8616 78.8369 60.5087 78.6447 72.2888 77.6577C81.9164 76.8455 91.584 75.1192 91.584 75.1192C91.584 75.1192 88.1892 76.573 85.7331 78.2497C62.1092 84.4632 16.4721 81.5724 29.6104 75.2171C40.7215 69.8462 49.7557 70.4554 49.7557 70.4554V70.4554ZM91.4881 93.7823C115.503 81.3033 104.4 69.3107 96.6493 70.9267C94.7497 71.3221 93.9027 71.6647 93.9027 71.6647C93.9027 71.6647 94.6083 70.56 95.9545 70.0818C111.287 64.6915 123.078 85.9798 91.0051 94.4116C91.0051 94.4116 91.3773 94.0797 91.4881 93.7823Z" fill="#5382A1"/>
<path d="M77.0094 0C77.0094 0 90.3092 13.3039 64.3951 33.7625C43.6147 50.1732 59.6565 59.5303 64.3865 70.2215C52.257 59.2771 43.3552 49.6432 49.3272 40.6767C58.0923 27.5145 82.3755 21.133 77.0094 0" fill="#E76F00"/>
<path d="M52.1155 127.598C75.1668 129.073 110.565 126.779 111.403 115.872C111.403 115.872 109.791 120.007 92.352 123.291C72.6776 126.993 48.4112 126.561 34.0188 124.188C34.0195 124.187 36.9655 126.626 52.1155 127.598" fill="#5382A1"/>
</svg>
