<svg width="128" height="128" viewBox="0 0 128 128" fill="#F7DF1E" xmlns="http://www.w3.org/2000/svg">
    <path fill-rule="evenodd" clip-rule="evenodd" d="M128 0H0V128H128V0ZM43.451 101.038L33.656 106.966L33.6555 106.965C36.491 112.98 42.0765 117.963 51.699 117.963C62.354 117.963 69.657 112.292 69.657 99.8335V58.7645H57.6285V99.6635C57.6285 105.678 55.136 107.224 51.1835 107.224C47.06 107.224 45.341 104.389 43.451 101.038ZM85.9845 100.007L76.1905 105.677L76.19 105.678C79.7125 112.638 86.93 117.965 98.0995 117.965C109.527 117.965 118.033 112.037 118.033 101.21C118.033 91.1575 112.277 86.69 102.052 82.3075L99.0445 81.019C93.8895 78.785 91.6555 77.3235 91.6555 73.715C91.6555 70.794 93.8895 68.56 97.4125 68.56C100.85 68.56 103.083 70.0205 105.145 73.715L114.511 67.7C110.559 60.7405 105.06 58.0765 97.413 58.0765C86.6725 58.0765 79.799 64.9505 79.799 73.9725C79.799 83.7675 85.5555 88.4075 94.234 92.101L97.2405 93.391C102.74 95.796 106.005 97.257 106.005 101.381C106.005 104.818 102.827 107.31 97.842 107.31C91.914 107.31 88.563 104.217 85.9845 100.007Z" />
</svg>
