<svg width="128" height="128" viewBox="0 0 128 128" fill="none" xmlns="http://www.w3.org/2000/svg">
<path fill-rule="evenodd" clip-rule="evenodd" d="M125.028 95.1299L124.456 96.6149C114.693 115.627 97.3925 127.291 72.7167 127.805C61.1811 128.043 50.19 125.083 43.0099 121.865C27.5152 114.903 14.4818 101.992 7.36436 88.1977C-2.84574 68.4231 -4.68709 40.9154 16.5426 20.3698C16.8704 20.3698 13.9673 24.825 14.2951 24.825L13.7108 26.7262C-1.58729 74.6213 45.5453 115.667 91.3625 110.972C102.374 109.844 116.415 103.814 125.028 95.1299Z" fill="#21609B"/>
<path fill-rule="evenodd" clip-rule="evenodd" d="M97.3027 75.3254C108.83 75.4038 120.87 70.0165 128 62.453C121.762 78.2869 103.7 88.4642 79.4807 85.2276C59.2001 82.514 39.8816 62.1067 37.892 41.658C36.4369 26.7761 41.6232 17.8943 50.1701 7.11979C47.2 12.755 46.0898 17.1004 45.8133 19.8724C42.5667 52.0648 71.5295 75.1558 97.3027 75.3254" fill="#21609B"/>
<path fill-rule="evenodd" clip-rule="evenodd" d="M126.841 35.3401C125.05 39.4503 114.733 47.212 110.177 48.1825C92.135 52.0263 80.5809 43.4708 74.5281 33.7353C73.6288 32.2816 71.9656 28.311 71.6678 27.3006C69.3205 19.3195 70.3993 7.24806 77.4013 1C75.292 6.94164 74.9842 13.8424 76.0944 18.3289C76.7671 21.0411 78.8165 25.777 80.8674 28.7557C84.5986 34.1814 86.9658 35.4997 91.7587 38.3814C93.9179 39.6784 96.2339 40.7188 97.2343 41.0038C101.779 42.3421 111.375 45.8666 126.843 35.3401" fill="#21609B"/>
</svg>
