<svg width="64" height="64" viewBox="0 0 64 64" fill="none" xmlns="http://www.w3.org/2000/svg">
<path d="M0.00037904 46.0825L7.42985 41.5861C8.86341 44.1275 10.1673 46.2778 13.2949 46.2778C16.2929 46.2778 18.1834 45.1052 18.1834 40.5436V9.52185H27.307V40.6725C27.307 50.1222 21.7677 54.4237 13.6859 54.4237C6.3873 54.4237 2.15072 50.6437 0 46.0817L0.00037904 46.0825ZM32.2626 45.1048L39.6913 40.8037C41.6471 43.9974 44.1888 46.3434 48.6852 46.3434C52.4659 46.3434 54.8764 44.4532 54.8764 41.8463C54.8764 38.7183 52.3999 37.6101 48.229 35.7859L45.9486 34.8074C39.3659 32.0059 34.9997 28.4865 34.9997 21.0571C34.9997 14.2139 40.2132 9 48.3598 9C54.16 9 58.331 11.0206 61.3286 16.2994L54.2245 20.8617C52.6601 18.0595 50.9664 16.9517 48.3594 16.9517C45.6873 16.9517 43.9928 18.6462 43.9928 20.8617C43.9928 23.5988 45.6873 24.7073 49.5973 26.4018L51.8781 27.3791C59.6337 30.7032 64 34.0918 64 41.7162C64 49.9285 57.5482 54.4248 48.8805 54.4248C40.4085 54.4248 34.9341 50.3843 32.2623 45.1052" fill="#F7DF1E"/>
</svg>
