<svg width="64" height="64" viewBox="0 0 64 64" fill="none" xmlns="http://www.w3.org/2000/svg">
<path d="M0.00037904 55.0825L7.42985 50.5861C8.86341 53.1275 10.1673 55.2778 13.2949 55.2778C16.2929 55.2778 18.1834 54.1052 18.1834 49.5436V18.5218H27.307V49.6725C27.307 59.1222 21.7677 63.4237 13.6859 63.4237C6.3873 63.4237 2.15072 59.6437 0 55.0817L0.00037904 55.0825ZM32.2626 54.1048L39.6913 49.8037C41.6471 52.9974 44.1888 55.3434 48.6852 55.3434C52.4659 55.3434 54.8764 53.4532 54.8764 50.8463C54.8764 47.7183 52.3999 46.6101 48.229 44.7859L45.9486 43.8074C39.3659 41.0059 34.9997 37.4865 34.9997 30.0571C34.9997 23.2139 40.2132 18 48.3598 18C54.16 18 58.331 20.0206 61.3286 25.2994L54.2245 29.8617C52.6601 27.0595 50.9664 25.9517 48.3594 25.9517C45.6873 25.9517 43.9928 27.6462 43.9928 29.8617C43.9928 32.5988 45.6873 33.7073 49.5973 35.4018L51.8781 36.3791C59.6337 39.7032 64 43.0918 64 50.7162C64 58.9285 57.5482 63.4248 48.8805 63.4248C40.4085 63.4248 34.9341 59.3843 32.2623 54.1052" fill="#F7DF1E"/>
</svg>
