<svg width="128" height="128" viewBox="0 0 128 128" fill="none" xmlns="http://www.w3.org/2000/svg">
<path fill-rule="evenodd" clip-rule="evenodd" d="M73.6945 34.4324L73.5713 0H54.3055L54.4288 34.4324L64.0616 47.6236L73.6945 34.4324ZM54.4288 93.4447V128H73.6945V93.4447L64.0616 80.2535L54.4288 93.4447Z" fill="white"/>
<path fill-rule="evenodd" clip-rule="evenodd" d="M73.6944 93.4447L93.9871 121.363L109.515 110.098L89.222 82.1789L73.6944 77.181V93.4447ZM54.4287 34.4324L34.0128 6.51367L18.4852 17.7795L38.7779 45.6777L54.4287 50.6756V34.4324Z" fill="#00F2E6"/>
<path fill-rule="evenodd" clip-rule="evenodd" d="M38.7779 45.6982L5.91527 35.0674L0 53.236L32.8626 63.9898L48.3902 58.8689L38.7779 45.6982ZM79.5892 68.9877L89.2221 82.1789L122.085 92.8097L128 74.6411L95.1374 64.0102L79.5892 68.9877Z" fill="#00B9F1"/>
<path fill-rule="evenodd" clip-rule="evenodd" d="M95.1168 64.0103L127.979 53.2565L122.064 35.0879L89.2015 45.7187L79.5687 58.9099L95.1168 64.0103ZM32.8626 64.0103L0 74.6411L5.91527 92.8098L38.7779 82.1789L48.4108 68.9877L32.8626 64.0103Z" fill="#D63AFF"/>
<path fill-rule="evenodd" clip-rule="evenodd" d="M38.7779 82.1789L18.4852 110.098L34.0128 121.363L54.4287 93.4447V77.181L38.7779 82.1789ZM89.222 45.6982L109.515 17.7795L93.9871 6.51367L73.6944 34.4119V50.6756L89.222 45.6982Z" fill="#FB015B"/>
</svg>
