<svg width="50" height="60" viewBox="0 0 50 60" fill="none" xmlns="http://www.w3.org/2000/svg">
<path fill-rule="evenodd" clip-rule="evenodd" d="M23.1048 47.4757C26.0115 42.4411 24.8609 36.1775 20.6676 32.4709L28.8059 18.375L31.3432 32.7645C31.516 33.7449 32.4509 34.3995 33.4312 34.2266C34.4116 34.0537 35.0662 33.1189 34.8933 32.1386L32.1807 16.7546C32.1577 16.6244 32.1213 16.5 32.0732 16.3824L48.0368 10.5721C48.9723 10.2316 49.4546 9.19732 49.1141 8.26189C48.7736 7.32646 47.7393 6.84414 46.8039 7.18461L32.1972 12.501L37.0098 4.16533C37.6735 3.01586 37.2796 1.54605 36.1302 0.882404C34.9807 0.21876 33.5109 0.612604 32.8473 1.76207L16.505 30.0676C11.1984 28.2894 5.19859 30.4248 2.29188 35.4594C-0.464761 40.234 0.427756 46.1141 4.10409 49.8702L12.6963 59.44L21.2987 49.8637C21.9831 49.1616 22.5921 48.3638 23.1048 47.4757ZM18.9422 45.0724C20.9331 41.624 19.7516 37.2146 16.3032 35.2237C12.8549 33.2327 8.44541 34.4142 6.45448 37.8626C4.46354 41.311 5.64505 45.7205 9.09344 47.7114C12.5418 49.7023 16.9513 48.5208 18.9422 45.0724Z" fill="#AF52DE"/>
</svg>
