<svg width="128" height="128" viewBox="0 0 128 128" fill="none" xmlns="http://www.w3.org/2000/svg">
<path d="M63.5685 3.78143C62.4683 3.83685 61.3903 4.10965 60.3977 4.58381L17.1299 25.2577C16.01 25.7925 15.026 26.5707 14.251 27.5344C13.4759 28.4982 12.9298 29.6227 12.6531 30.8245L1.97862 77.2632C1.73214 78.3332 1.70455 79.4413 1.8975 80.522C2.09045 81.6027 2.50002 82.6341 3.10196 83.555C3.24792 83.7802 3.4049 83.9981 3.57233 84.208L33.5206 121.444C34.2958 122.408 35.2799 123.186 36.3998 123.72C37.5197 124.255 38.7467 124.532 39.9895 124.532L88.0163 124.521C89.2587 124.522 90.4854 124.245 91.6053 123.712C92.7251 123.178 93.7095 122.401 94.4852 121.439L124.422 84.1969C125.198 83.2329 125.745 82.108 126.021 80.9056C126.298 79.7033 126.298 78.4545 126.022 77.2522L115.331 30.8135C115.054 29.6116 114.508 28.4871 113.733 27.5233C112.958 26.5596 111.974 25.7814 110.854 25.2466L67.5805 4.58381C66.332 3.98735 64.9525 3.71145 63.5685 3.78143V3.78143Z" fill="#326CE5"/>
<path d="M63.9972 19.5851C62.5669 19.5853 61.4073 20.8735 61.4074 22.4626C61.4074 22.487 61.4124 22.5103 61.413 22.5346C61.4109 22.7505 61.4004 23.0106 61.4074 23.1986C61.4415 24.1152 61.6413 24.8167 61.7616 25.6611C61.9794 27.4685 62.162 28.9667 62.0493 30.3592C61.9398 30.8843 61.553 31.3645 61.2082 31.6983L61.1474 32.794C59.5932 32.9228 58.0286 33.1586 56.4659 33.5134C49.7414 35.0402 43.9517 38.504 39.5438 43.1807C39.2578 42.9856 38.7574 42.6266 38.6086 42.5167C38.1463 42.5791 37.6789 42.7218 37.0703 42.3673C35.9113 41.5872 34.8558 40.5103 33.5785 39.2131C32.9933 38.5926 32.5695 38.0017 31.8741 37.4036C31.7162 37.2677 31.4753 37.084 31.2986 36.9443C30.755 36.5109 30.1139 36.2848 29.4947 36.2636C28.6985 36.2364 27.9321 36.5476 27.4306 37.1767C26.539 38.295 26.8244 40.0043 28.067 40.9949C28.0796 41.005 28.093 41.0128 28.1057 41.0226C28.2765 41.161 28.4855 41.3384 28.6425 41.4542C29.3803 41.999 30.0544 42.2779 30.7895 42.7104C32.3384 43.6669 33.6225 44.4601 34.641 45.4164C35.0387 45.8403 35.1082 46.5874 35.1612 46.9104L35.9912 47.652C31.5477 54.3391 29.4912 62.599 30.7066 71.0152L29.6219 71.3306C29.3361 71.6997 28.9322 72.2806 28.5097 72.4539C27.1771 72.8737 25.6774 73.0278 23.8669 73.2176C23.0169 73.2883 22.2834 73.2461 21.3823 73.4168C21.1839 73.4544 20.9076 73.5264 20.6906 73.5773C20.683 73.5789 20.676 73.5811 20.6684 73.5828C20.6566 73.5855 20.6411 73.5913 20.6297 73.5939C19.1033 73.9627 18.1227 75.3657 18.4384 76.7481C18.7541 78.1308 20.2451 78.9716 21.7807 78.6406C21.7918 78.6381 21.8079 78.6376 21.8194 78.6351C21.8368 78.6311 21.852 78.6227 21.8692 78.6185C22.0833 78.5715 22.3516 78.5192 22.5388 78.4691C23.4248 78.2318 24.0665 77.8833 24.863 77.5781C26.5765 76.9635 27.9958 76.4501 29.3785 76.2501C29.9559 76.2048 30.5644 76.6064 30.867 76.7758L31.9959 76.5821C34.5937 84.6361 40.0377 91.1459 46.9313 95.2306L46.4609 96.3595C46.6305 96.7978 46.8175 97.3909 46.6912 97.8238C46.1885 99.1273 45.3275 100.503 44.3471 102.037C43.8724 102.746 43.3865 103.296 42.9581 104.107C42.8556 104.301 42.7251 104.599 42.6261 104.804C41.9605 106.228 42.4487 107.868 43.7273 108.484C45.0139 109.103 46.6109 108.45 47.3021 107.023C47.3031 107.021 47.3066 107.019 47.3076 107.017C47.3083 107.016 47.3069 107.013 47.3076 107.012C47.406 106.81 47.5455 106.544 47.6285 106.353C47.9955 105.513 48.1176 104.792 48.3756 103.979C49.0608 102.258 49.4373 100.452 50.3806 99.3268C50.6389 99.0186 51.06 98.9001 51.4966 98.7832L52.0832 97.7208C58.0929 100.028 64.8198 100.647 71.5396 99.1208C73.0725 98.7727 74.5525 98.3223 75.9831 97.7816C76.148 98.0741 76.4544 98.6362 76.5365 98.7777C76.9802 98.9221 77.4645 98.9966 77.8591 99.5801C78.5648 100.786 79.0474 102.212 79.6354 103.935C79.8934 104.748 80.021 105.468 80.388 106.309C80.4716 106.501 80.6104 106.77 80.7089 106.973C81.3986 108.405 83.0007 109.06 84.2892 108.44C85.5676 107.824 86.0564 106.184 85.3904 104.76C85.2914 104.555 85.1554 104.256 85.0528 104.062C84.6244 103.251 84.1386 102.707 83.6639 101.998C82.6834 100.464 81.8702 99.1903 81.3674 97.8868C81.1572 97.2145 81.4029 96.7964 81.5666 96.3595C81.4686 96.2471 81.2587 95.6122 81.135 95.3136C88.2991 91.0835 93.5833 84.331 96.0649 76.5323C96.4 76.585 96.9824 76.688 97.1716 76.726C97.5611 76.4691 97.9192 76.1339 98.6214 76.1892C100.004 76.3892 101.423 76.9028 103.137 77.5173C103.933 77.8224 104.575 78.1766 105.461 78.4137C105.648 78.4639 105.917 78.5106 106.131 78.5576C106.148 78.5618 106.163 78.5703 106.18 78.5742C106.192 78.5768 106.208 78.5772 106.219 78.5797C107.755 78.9103 109.246 78.07 109.562 76.6872C109.877 75.3048 108.897 73.9014 107.37 73.533C107.148 73.4825 106.833 73.3968 106.618 73.3559C105.716 73.1853 104.983 73.2274 104.133 73.1567C102.322 72.967 100.823 72.8127 99.4902 72.3931C98.9469 72.1823 98.5604 71.5358 98.3724 71.2697L97.3266 70.9654C97.8688 67.0423 97.7226 62.9595 96.7843 58.8743C95.8372 54.7511 94.1634 50.98 91.9312 47.6575C92.1995 47.4136 92.7061 46.965 92.8498 46.833C92.8918 46.3683 92.8557 45.8811 93.3368 45.3666C94.3552 44.4102 95.6394 43.6172 97.1882 42.6606C97.9234 42.2281 98.603 41.9493 99.3408 41.4044C99.5077 41.2812 99.7355 41.0861 99.9108 40.9451C101.153 39.9542 101.439 38.245 100.547 37.1269C99.6552 36.0088 97.9269 35.9035 96.6846 36.8945C96.5078 37.0345 96.2679 37.2172 96.1091 37.3538C95.4138 37.9519 94.9844 38.5428 94.3992 39.1633C93.1221 40.4606 92.0664 41.5428 90.9075 42.323C90.4053 42.6154 89.6697 42.5142 89.3359 42.4946L88.3509 43.1974C82.7342 37.3076 75.087 33.5421 66.8526 32.8106C66.8296 32.4655 66.7994 31.8418 66.7917 31.6541C66.4546 31.3315 66.0474 31.0561 65.9451 30.3592C65.8324 28.9667 66.0205 27.4685 66.2383 25.6611C66.3586 24.8167 66.5584 24.1152 66.5925 23.1986C66.6003 22.9903 66.5878 22.6879 66.587 22.4626C66.5868 20.8735 65.4275 19.585 63.9972 19.5851H63.9972ZM60.7545 39.6724L59.9853 53.2576L59.9299 53.2853C59.8784 54.5006 58.8781 55.4711 57.6501 55.4711C57.147 55.4711 56.6827 55.3095 56.3054 55.0339L56.2832 55.045L45.1439 47.1484C48.5675 43.7819 52.9465 41.2941 57.9932 40.1483C58.915 39.939 59.8365 39.7837 60.7545 39.6724ZM67.2455 39.6724C73.1375 40.397 78.5864 43.065 82.7619 47.1539L71.6946 55.0007L71.6558 54.9841C70.6735 55.7016 69.2895 55.5236 68.5238 54.5635C68.2101 54.1703 68.0455 53.7078 68.0257 53.241L68.0147 53.2355L67.2455 39.6724ZM41.1043 52.2228L51.2753 61.3202L51.2642 61.3755C52.1822 62.1736 52.3176 63.5585 51.5519 64.5186C51.2383 64.9119 50.8185 65.1757 50.3677 65.2989L50.3567 65.3432L37.3193 69.1061C36.6557 63.0385 38.0858 57.1403 41.1043 52.2228ZM86.8181 52.2283C88.3293 54.6778 89.4737 57.4135 90.1549 60.3794C90.828 63.3098 90.9969 66.2349 90.7194 69.0618L77.6156 65.2878L77.6045 65.2325C76.4311 64.9118 75.71 63.7182 75.9832 62.521C76.0951 62.0305 76.3554 61.6156 76.7081 61.3091L76.7025 61.2814L86.8181 52.2283H86.8181ZM61.911 62.0229H66.0779L68.6676 65.2601L67.738 69.2997L63.9972 71.0982L60.2454 69.2942L59.3157 65.2546L61.911 62.0229ZM75.2693 73.1014C75.4464 73.0924 75.6227 73.1084 75.795 73.1401L75.8172 73.1124L89.3027 75.3923C87.3291 80.9372 83.5525 85.7408 78.5065 88.9554L73.2717 76.3109L73.2882 76.2888C72.8074 75.1714 73.2886 73.8611 74.395 73.3283C74.6782 73.1918 74.9742 73.1163 75.2693 73.1014H75.2693ZM52.6199 73.1567C53.6491 73.1711 54.5722 73.8854 54.8113 74.933C54.9232 75.4235 54.8687 75.9094 54.684 76.3386L54.7227 76.3884L49.5432 88.9056C44.7006 85.7981 40.8435 81.1453 38.7802 75.4366L52.1496 73.1678L52.1717 73.1955C52.3213 73.1679 52.4729 73.1547 52.6199 73.1567V73.1567ZM63.9142 78.6406C64.2727 78.6274 64.6364 78.701 64.9822 78.8675C65.4354 79.0857 65.7856 79.4294 66.0059 79.8414H66.0557L72.6463 91.7499C71.791 92.0366 70.9117 92.2817 70.0123 92.4859C64.9719 93.6303 59.9475 93.2836 55.3979 91.7333L61.9719 79.8469H61.9829C62.3774 79.1095 63.1255 78.6696 63.9142 78.6406Z" fill="white" stroke="white" stroke-width="0.25"/>
</svg>
