<svg width="128" height="128" viewBox="0 0 128 128" fill="none" xmlns="http://www.w3.org/2000/svg">
<g clip-path="url(#clip0_1275_3)">
<path d="M55.7288 64C55.7288 59.4 59.4703 55.8 63.9995 55.8C68.5287 55.8 72.2702 59.4 72.2702 64C72.2702 68.6 68.5287 72.2 63.9995 72.2C59.4703 72.2 55.7288 68.6 55.7288 64ZM78.1778 51.8L98.0669 40.4C101.415 38.6 102.596 34.4 100.627 31C100.233 30.4 100.036 30 99.4453 29.4C93.1439 22.8 85.0701 18.2 76.4055 16C72.0733 14.8 67.741 18.2 67.741 22.8V45.8C67.741 51 73.4517 54.4 78.1778 51.8ZM60.4549 45.8V22.8C60.4549 18.2 56.1226 15 51.7903 16C43.1258 18.2 35.052 22.8 28.7505 29.4C25.5998 32.6 26.3875 38 30.3259 40.2L50.215 51.6C54.7442 54.4 60.4549 51 60.4549 45.8ZM81.7224 70L101.611 81.4C105.55 83.6 110.473 81.6 111.851 77.2C114.214 68.4 114.214 59.2 111.851 50.4C110.67 46 105.55 44 101.611 46.2L81.7224 58C78.3747 59.8 77.1932 64 79.1624 67.4C79.7532 68.4 80.7378 69.4 81.7224 70ZM50.018 76.2L30.129 87.6C26.7813 89.4 25.5998 93.6 27.569 97C27.9628 97.6 28.1598 98 28.7505 98.6C35.052 105.2 43.1258 109.8 51.7903 112C56.1226 113.2 60.4549 109.8 60.4549 105.2V82.2C60.4549 77 54.7442 73.6 50.018 76.2ZM46.4735 58L26.5844 46.6C22.646 44.4 17.7229 46.4 16.3445 50.8C13.9814 59.6 13.9814 68.8 16.3445 77.6C17.526 82 22.646 84 26.5844 81.8L46.4735 70C49.8211 68.2 50.8057 64 49.0334 60.6C48.4427 59.6 47.4581 58.6 46.4735 58ZM67.741 82.4V105.4C67.741 110 72.0733 113.2 76.4055 112.2C85.0701 110 93.1439 105.4 99.4453 98.8C102.596 95.6 101.808 90.2 97.87 88L77.9809 76.6C73.4517 73.6 67.741 77 67.741 82.4Z" fill="#00DD00"/>
<path d="M63.9995 128C28.7505 128 0 99.4 0 64C0 28.6 28.7505 0 63.9995 0C99.4454 0 127.999 28.6 127.999 64C128.196 99.4 99.4454 128 63.9995 128ZM120.91 64C120.91 32.8 95.5069 7.2 63.9995 7.2C32.689 7.2 7.2861 32.8 7.2861 64C7.2861 95.2 32.689 120.8 63.9995 120.8C95.31 120.8 120.91 95.2 120.91 64Z" fill="#00DD00"/>
</g>
<defs>
<clipPath id="clip0_1275_3">
<rect width="128" height="128" fill="white"/>
</clipPath>
</defs>
</svg>
