<svg width="128" height="128" viewBox="0 0 128 128" fill="none" xmlns="http://www.w3.org/2000/svg">
<path d="M127.402 22.4163C127.054 22.1298 126.613 21.9821 126.163 22.0017C124.928 22.0017 123.33 22.8396 122.471 23.2891L122.13 23.4637C120.688 24.1618 119.118 24.5569 117.517 24.6245C115.877 24.6768 114.463 24.7729 112.621 24.9649C101.711 26.0864 96.8454 34.4478 92.1584 42.5342C89.6055 46.9331 86.9697 51.5022 83.3563 54.9934C82.6087 55.7183 81.8142 56.3933 80.9779 57.0139C77.238 59.7938 72.5424 61.7794 68.8897 63.1846C65.3724 64.5287 61.5321 65.7375 57.8227 66.907C54.4231 67.9762 51.2156 68.9887 48.2656 70.084C46.9346 70.5771 45.8043 70.9568 44.8049 71.2885C42.1167 72.1613 40.1791 72.829 37.3469 74.7797C36.2428 75.5346 35.1344 76.3507 34.3838 76.9616C32.1356 78.7555 30.1457 80.8511 28.4706 83.189C27.0301 85.3457 25.3654 87.3439 23.5044 89.1502C22.9065 89.735 21.8461 90.023 20.2576 90.023C18.3985 90.023 16.1423 89.639 13.7553 89.2331C11.294 88.7968 8.74977 88.3822 6.56778 88.3822C4.79601 88.3822 3.43881 88.6702 2.42637 89.255C2.42637 89.255 0.720056 90.25 0 91.5373L0.706964 91.8559C1.80327 92.4503 2.81828 93.1837 3.72684 94.0379C4.67477 94.9134 5.73067 95.6643 6.8689 96.2722C7.23224 96.4055 7.56265 96.6153 7.8377 96.8876C7.54095 97.324 7.10455 97.8869 6.64634 98.4891C4.12832 101.784 2.65766 103.866 3.49991 105C3.90359 105.21 4.35446 105.312 4.8091 105.297C10.299 105.297 13.249 103.87 16.9802 102.063C18.0625 101.54 19.1622 101.003 20.4714 100.449C22.6534 99.5016 25.0012 97.9916 27.493 96.3944C30.7529 94.2692 34.1612 92.0872 37.4691 91.0355C40.1876 90.2065 43.0193 89.8089 45.861 89.8572C49.3522 89.8572 53.0267 90.3241 56.5702 90.778C59.2104 91.1184 61.9466 91.4675 64.6305 91.629C65.6735 91.6901 66.6379 91.7206 67.5762 91.7206C68.8313 91.7243 70.0857 91.6587 71.3335 91.5242L71.6347 91.4195C73.5155 90.263 74.3971 87.7799 75.2524 85.3798C75.8023 83.8349 76.2648 82.4472 76.998 81.5656C77.0412 81.5226 77.0879 81.4832 77.1376 81.4478C77.172 81.4287 77.2118 81.4217 77.2506 81.4281C77.2894 81.4344 77.325 81.4537 77.3515 81.4827C77.3515 81.4827 77.3515 81.5045 77.3515 81.5525C76.9151 90.9395 73.1359 96.9007 69.313 102.199L66.7601 104.935C66.7601 104.935 70.3342 104.935 72.3678 104.149C79.7866 101.932 85.3856 97.0447 89.4615 89.2506C90.4667 87.2498 91.3654 85.1974 92.1541 83.1018C92.2239 82.9272 92.8654 82.6043 92.8043 83.5076C92.7825 83.7738 92.765 84.0706 92.7432 84.3804C92.7432 84.5637 92.7432 84.7513 92.7083 84.939C92.6036 86.2482 92.2937 89.0149 92.2937 89.0149L94.5848 87.7887C100.11 84.2975 104.369 77.254 107.598 66.2961C108.942 61.7314 109.929 57.1972 110.797 53.2042C111.836 48.4038 112.73 44.2886 113.756 42.6913C115.366 40.1864 117.823 38.4932 120.201 36.848C120.524 36.6254 120.852 36.4116 121.17 36.1759C124.159 34.0769 127.131 31.6548 127.786 27.1381V27.0378C128.262 23.6688 127.86 22.8091 127.402 22.4163Z" fill="#003545"/>
</svg>
