<svg width="128" height="128" viewBox="0 0 128 128" fill="none" xmlns="http://www.w3.org/2000/svg">
<path d="M55.466 121.2C54.6041 121.2 53.8105 120.675 53.4841 119.851C49.2388 109.14 41.3369 89.1998 35.466 89.1998C32.7225 89.1998 30.0089 90.9577 29.9833 90.9747C29.2452 91.4697 28.2745 91.4526 27.5535 90.9299L0.886874 71.73C0.259675 71.2777 -0.0752575 70.5183 0.0143423 69.7481C0.103942 68.978 0.605274 68.3188 1.32207 68.0244L36.4495 53.6074C38.0175 51.2927 44.1038 42.8106 50.7001 40.2741C51.6964 39.8901 52.5284 39.5786 53.2366 39.3141C56.8057 37.9765 56.8057 37.9765 59.5363 35.4101L60.1401 34.8426C63.8499 31.3653 70.9283 20.4362 73.1171 16.8821C73.3688 16.4704 73.6376 16.0181 73.9214 15.5402C76.3043 11.5125 79.5662 6 84.5326 6C90.2285 6 93.2536 11.8688 96.62 19.5445C99.7133 26.5994 107.976 49.9615 111.355 59.986C119.483 84.1076 127.698 100.893 127.782 101.059C128.198 101.906 128.008 102.928 127.312 103.57C126.619 104.212 125.586 104.321 124.771 103.832C124.599 103.73 120.466 101.225 113.691 94.4414C108.665 89.411 104.569 87.0665 100.799 87.0665C94.1667 87.0665 89.4819 92.3401 83.5491 99.0195L83.195 99.4185C82.491 100.21 81.7166 101.119 80.8718 102.106C74.9838 108.999 66.0878 119.418 55.8265 121.172C55.7049 121.191 55.5833 121.2 55.466 121.2ZM35.466 84.9332C43.3444 84.9332 49.5758 98.5267 56.7737 116.581C64.8931 114.245 72.4899 105.349 77.627 99.3353C78.491 98.3241 79.2867 97.3918 80.0056 96.5833L80.3598 96.1843C86.7405 89.0014 92.2509 82.7998 100.799 82.7998C107.263 82.7998 112.697 87.41 116.71 91.4249C117.983 92.7006 119.156 93.8142 120.221 94.7806C117.008 87.4548 112.138 75.6681 107.312 61.3471C103.824 50.9962 95.6323 27.9136 92.7139 21.2554C89.5864 14.1301 87.3571 10.2667 84.5326 10.2667C81.9982 10.2667 79.2398 14.928 77.5907 17.7141C77.2942 18.2154 77.0126 18.689 76.748 19.1178C76.6606 19.2608 67.9609 33.3599 63.0585 37.9573L62.459 38.5205C59.2014 41.5839 58.9859 41.7183 54.7364 43.3098C54.0388 43.5722 53.2174 43.8794 52.2318 44.2591C47.0798 46.241 41.4116 53.7567 39.6623 56.4852C39.4255 56.8543 39.082 57.1423 38.6767 57.3087L6.49753 70.514L28.938 86.6697C30.3801 85.9358 32.8313 84.9332 35.466 84.9332Z" fill="url(#paint0_linear)"/>
<path d="M29.7081 91.1305L27.8884 87.2713C28.0206 87.2094 41.0979 80.882 51.2739 65.1103C60.94 50.1279 65.7144 38.4287 68.2787 32.1439C68.9315 30.5439 69.4307 29.3279 69.8125 28.5386C70.7512 26.5952 71.6579 24.257 72.6179 21.7802C75.6259 14.0213 78.7384 6 84.5325 6V10.2667C81.6589 10.2667 78.732 17.8122 76.5965 23.3226C75.6045 25.8805 74.6659 28.2976 73.6547 30.3946C73.2984 31.1306 72.8397 32.2655 72.2296 33.7589C69.612 40.1717 64.7416 52.1076 54.86 67.4249C43.9865 84.2761 30.2862 90.8574 29.7081 91.1305Z" fill="url(#paint1_linear)"/>
<path d="M51.5193 68.2399L36.586 57.0399L39.146 53.6266L54.0793 64.8265L51.5193 68.2399Z" fill="url(#paint2_linear)"/>
<path d="M77.1683 93.3513C83.8222 85.8612 90.1133 78.7806 100.266 78.5396C100.266 78.5396 93.0659 46.7999 86.9326 20.6666C85.6867 15.3568 85.1896 14.5333 84.6712 14.5333C84.3192 14.5333 83.9011 15.312 83.5704 17.1061C81.7976 26.6869 73.4179 62.3668 66.6659 79.5998C64.0867 86.1833 59.4745 90.0553 55.466 91.8665C53.6313 92.6963 50.986 93.4665 50.986 93.4665C53.7614 98.3283 56.3982 104.304 59.1118 110.964C64.8419 107.736 70.4462 101.172 74.3822 96.5641C75.2654 95.5294 76.0803 94.5779 76.8184 93.7459L77.1683 93.3513Z" fill="url(#paint3_linear)"/>
<defs>
<linearGradient id="paint0_linear" x1="63.9993" y1="6.35627" x2="63.9993" y2="121.2" gradientUnits="userSpaceOnUse">
<stop stop-color="#1A6DFF"/>
<stop offset="1" stop-color="#C822FF"/>
</linearGradient>
<linearGradient id="paint1_linear" x1="56.2104" y1="6.35627" x2="56.2104" y2="121.2" gradientUnits="userSpaceOnUse">
<stop stop-color="#1A6DFF"/>
<stop offset="1" stop-color="#C822FF"/>
</linearGradient>
<linearGradient id="paint2_linear" x1="45.3326" y1="6.35627" x2="45.3326" y2="121.2" gradientUnits="userSpaceOnUse">
<stop stop-color="#1A6DFF"/>
<stop offset="1" stop-color="#C822FF"/>
</linearGradient>
<linearGradient id="paint3_linear" x1="75.6259" y1="4.7968" x2="75.6259" y2="122.2" gradientUnits="userSpaceOnUse">
<stop stop-color="#6DC7FF"/>
<stop offset="1" stop-color="#E6ABFF"/>
</linearGradient>
</defs>
</svg>
