<svg width="131" height="150" viewBox="0 0 131 150" fill="none" xmlns="http://www.w3.org/2000/svg">
<path d="M0 0H30V150H0V0Z" fill="url(#paint0_linear)"/>
<path d="M30 0H90V30H30V0Z" fill="url(#paint1_linear)"/>
<path d="M30 120H90V150H30V120Z" fill="url(#paint2_linear)"/>
<path d="M60 60H90V90H60V60Z" fill="url(#paint3_linear)"/>
<path d="M118.991 69.9914C111.302 77.6804 100.874 82 90 82V60C93.9782 60 97.7935 58.4196 100.607 55.6066C103.42 52.7936 105 48.9782 105 45C105 41.0218 103.42 37.2064 100.607 34.3934C97.7936 31.5804 93.9782 30 90 30V0C100.874 2.11722e-06 111.302 4.31963 118.991 12.0086C126.68 19.6976 131 30.1261 131 41C131 51.8739 126.68 62.3024 118.991 69.9914Z" fill="url(#paint4_linear)"/>
<path d="M105.69 146.879C100.716 148.94 95.3842 150 90 150V120C93.9782 120 97.7935 118.42 100.607 115.607C103.42 112.794 105 108.978 105 105C105 101.022 103.42 97.2065 100.607 94.3934C97.7935 91.5804 93.9782 90 90 90V105L90 68C95.3842 68 100.716 69.0605 105.69 71.1209C110.664 73.1814 115.184 76.2014 118.991 80.0086C122.799 83.8158 125.819 88.3356 127.879 93.31C129.939 98.2843 131 103.616 131 109C131 114.384 129.939 119.716 127.879 124.69C125.819 129.664 122.799 134.184 118.991 137.991C115.184 141.799 110.664 144.819 105.69 146.879Z" fill="url(#paint5_linear)"/>
<defs>
<linearGradient id="paint0_linear" x1="0" y1="0" x2="131" y2="150" gradientUnits="userSpaceOnUse">
<stop stop-color="#26C485"/>
<stop offset="1" stop-color="#003545"/>
</linearGradient>
<linearGradient id="paint1_linear" x1="0" y1="0" x2="131" y2="150" gradientUnits="userSpaceOnUse">
<stop stop-color="#26C485"/>
<stop offset="1" stop-color="#003545"/>
</linearGradient>
<linearGradient id="paint2_linear" x1="0" y1="0" x2="131" y2="150" gradientUnits="userSpaceOnUse">
<stop stop-color="#26C485"/>
<stop offset="1" stop-color="#003545"/>
</linearGradient>
<linearGradient id="paint3_linear" x1="0" y1="0" x2="131" y2="150" gradientUnits="userSpaceOnUse">
<stop stop-color="#26C485"/>
<stop offset="1" stop-color="#003545"/>
</linearGradient>
<linearGradient id="paint4_linear" x1="0" y1="0" x2="131" y2="150" gradientUnits="userSpaceOnUse">
<stop stop-color="#26C485"/>
<stop offset="1" stop-color="#003545"/>
</linearGradient>
<linearGradient id="paint5_linear" x1="0" y1="0" x2="131" y2="150" gradientUnits="userSpaceOnUse">
<stop stop-color="#26C485"/>
<stop offset="1" stop-color="#003545"/>
</linearGradient>
</defs>
</svg>
