<svg width="128" height="128" viewBox="0 0 128 128" fill="#58AA50" xmlns="http://www.w3.org/2000/svg">
<path fill-rule="evenodd" clip-rule="evenodd" d="M66.5718 128L63.1645 126.835C63.1645 126.835 63.5806 109.465 57.346 108.218C53.1912 103.397 58.0125 -96.249 72.9729 107.553C72.9729 107.553 67.8192 110.129 66.905 114.535C65.9071 118.857 66.5718 128 66.5718 128V128Z"/>
<path fill-rule="evenodd" clip-rule="evenodd" d="M66.5718 128L63.1645 126.835C63.1645 126.835 63.5806 109.465 57.346 108.218C53.1912 103.397 58.0125 -96.249 72.9729 107.553C72.9729 107.553 67.8192 110.129 66.905 114.535C65.9071 118.857 66.5718 128 66.5718 128V128Z"/>
<path fill-rule="evenodd" clip-rule="evenodd" d="M68.4011 111.21C68.4011 111.21 98.2408 91.5943 91.2577 50.7833C84.526 21.1121 68.6505 11.3874 66.905 7.64682C64.9938 4.98709 63.1645 0.333252 63.1645 0.333252L64.4119 82.8666C64.4119 82.9504 61.8351 108.134 68.402 111.211"/>
<path fill-rule="evenodd" clip-rule="evenodd" d="M68.4011 111.21C68.4011 111.21 98.2408 91.5943 91.2577 50.7833C84.526 21.1121 68.6505 11.3874 66.905 7.64682C64.9938 4.98709 63.1645 0.333252 63.1645 0.333252L64.4119 82.8666C64.4119 82.9504 61.8351 108.134 68.402 111.211"/>
<path fill-rule="evenodd" clip-rule="evenodd" d="M61.4198 112.29C61.4198 112.29 33.4085 93.1732 35.0712 59.5119C36.6501 25.8497 56.4318 9.30948 60.2553 6.31741C62.7493 3.65768 62.8321 2.65972 62.9987 0C64.7443 3.74055 64.4119 55.938 64.6605 62.0878C65.4081 85.7759 63.3311 107.803 61.4198 112.29Z"/>
<path fill-rule="evenodd" clip-rule="evenodd" d="M61.4198 112.29C61.4198 112.29 33.4085 93.1732 35.0712 59.5119C36.6501 25.8497 56.4318 9.30948 60.2553 6.31741C62.7493 3.65768 62.8321 2.65972 62.9987 0C64.7443 3.74055 64.4119 55.938 64.6605 62.0878C65.4081 85.7759 63.3311 107.803 61.4198 112.29Z"/>
</svg>
