<svg width="128" height="128" viewBox="0 0 128 128" fill="#62A5B8" xmlns="http://www.w3.org/2000/svg">
<path d="M117.824 98.106C110.865 97.9325 105.472 98.6285 100.948 100.542C99.6431 101.064 97.5551 101.064 97.3811 102.717C98.0771 103.413 98.1641 104.544 98.7731 105.501C99.8181 107.24 101.644 109.589 103.297 110.808C105.123 112.199 106.951 113.591 108.864 114.809C112.257 116.897 116.085 118.114 119.39 120.202C121.305 121.419 123.217 122.986 125.131 124.291C126.088 124.986 126.697 126.118 127.915 126.552V126.292C127.306 125.508 127.132 124.378 126.523 123.508C125.654 122.638 124.783 121.855 123.913 120.985C121.391 117.593 118.259 114.635 114.867 112.199C112.083 110.285 105.993 107.676 104.863 104.457C104.863 104.457 104.775 104.37 104.689 104.283C106.602 104.109 108.864 103.413 110.691 102.891C113.649 102.108 116.345 102.282 119.39 101.499C120.782 101.151 122.174 100.716 123.565 100.281V99.4985C122 97.9325 120.869 95.845 119.216 94.366C114.78 90.5375 109.908 86.7975 104.863 83.666C102.166 81.926 98.6856 80.795 95.8151 79.3165C94.7721 78.794 93.0316 78.5335 92.4231 77.6635C90.8566 75.75 89.9866 73.2275 88.8561 70.9655C86.3341 66.1805 83.8976 60.8745 81.7226 55.8295C80.1576 52.4365 79.2006 49.0435 77.2866 45.9125C68.3266 31.124 58.5836 22.164 43.6215 13.3775C40.4025 11.551 36.575 10.768 32.4865 9.81152C30.3125 9.72402 28.137 9.55052 25.9625 9.46302C24.5705 8.85402 23.1785 7.20152 21.9605 6.41852C17.003 3.28652 4.2145 -3.49798 0.560994 5.46202C-1.78801 11.116 4.041 16.683 6.041 19.5545C7.521 21.555 9.434 23.8165 10.478 26.0785C11.087 27.5565 11.2605 29.1235 11.8695 30.689C13.262 34.5155 14.566 38.779 16.3935 42.346C17.3505 44.1725 18.394 46.086 19.612 47.739C20.308 48.6955 21.5255 49.131 21.787 50.6965C20.5695 52.4365 20.482 55.0465 19.7855 57.221C16.654 67.051 17.8725 79.2295 22.3085 86.4495C23.7 88.6235 27.006 93.4095 31.4425 91.582C35.3575 90.0165 34.4875 85.058 35.6175 80.7085C35.8795 79.6635 35.7055 78.9685 36.227 78.2725V78.447C37.445 80.882 38.6625 83.2315 39.7935 85.667C42.4905 89.929 47.1875 94.366 51.1021 97.324C53.1906 98.889 54.8431 101.586 57.4531 102.543V102.282H57.2786C56.7566 101.499 55.9736 101.151 55.2781 100.542C53.7126 98.9765 51.9721 97.0625 50.7546 95.3225C47.1016 90.4505 43.882 85.0575 41.0115 79.49C39.62 76.794 38.4015 73.836 37.271 71.1395C36.7485 70.0945 36.7485 68.5295 35.879 68.008C34.574 69.9215 32.6605 71.5745 31.7035 73.923C30.0515 77.6635 29.877 82.274 29.268 87.058C28.92 87.146 29.0935 87.058 28.9195 87.233C26.1365 86.536 25.1795 83.666 24.135 81.23C21.525 75.054 21.09 65.137 23.3525 58.004C23.9615 56.177 26.5715 50.436 25.5275 48.696C25.0055 47.043 23.265 46.086 22.3085 44.7815C21.178 43.1285 19.9595 41.0415 19.177 39.214C17.089 34.3425 16.045 28.949 13.7835 24.0775C12.7395 21.8155 10.9135 19.4675 9.434 17.3795C7.7815 15.031 5.9545 13.3775 4.6495 10.594C4.215 9.63752 3.6055 8.07152 4.3015 7.02752C4.4755 6.33152 4.823 6.07102 5.5195 5.89702C6.6505 4.93952 9.8695 6.15752 10.9995 6.67952C14.2185 7.98352 16.915 9.20252 19.612 11.029C20.8295 11.899 22.1345 13.552 23.7 13.987H25.527C28.311 14.5955 31.442 14.161 34.052 14.9435C38.663 16.422 42.838 18.597 46.579 20.946C57.9751 28.166 67.3691 38.431 73.7201 50.6965C74.7641 52.6965 75.1986 54.5245 76.1556 56.6115C77.9831 60.8745 80.2446 65.224 82.0706 69.3995C83.8976 73.4875 85.6371 77.6635 88.2471 81.0565C89.5521 82.8825 94.7711 83.84 97.1201 84.797C98.8601 85.5795 101.557 86.276 103.123 87.2325C106.08 89.0585 109.038 91.1475 111.822 93.1475C113.214 94.1915 117.563 96.3665 117.824 98.106Z"/>
<path d="M29.093 22.511C27.6145 22.511 26.571 22.686 25.527 22.9465V23.1205H25.701C26.3975 24.5125 27.6145 25.4695 28.484 26.687C29.1805 28.0785 29.789 29.471 30.4855 30.863C30.572 30.7755 30.659 30.689 30.659 30.689C31.8775 29.8185 32.486 28.427 32.486 26.339C31.964 25.7305 31.877 25.1215 31.442 24.5125C30.9205 23.642 29.789 23.2075 29.093 22.511Z" fill="#62A5B8"/>
</svg>
