<svg width="128" height="128" viewBox="0 0 128 128" fill="none" xmlns="http://www.w3.org/2000/svg">
    <path d="M76.547 82.8395L45.1545 76.2795C45.023 76.5337 44.8768 76.7799 44.7165 77.017L73.295 118.706L75.019 116.984L79.881 86.749C79.0592 86.4018 78.3299 85.8676 77.751 85.1888C77.1722 84.5099 76.7599 83.7053 76.547 82.839V82.8395ZM65.095 41.8025C63.919 43.6065 61.889 44.8005 59.577 44.8005C59.221 44.8005 58.875 44.7645 58.535 44.7105L44.2185 67.111L82.4675 50.651C82.4555 50.497 82.4215 50.353 82.4215 50.195C82.4215 49.873 82.4655 49.561 82.5175 49.253L65.095 41.803V41.8025ZM66.135 37.7205L84.6675 45.6445C85.258 45.1829 85.9335 44.8418 86.6555 44.6405L89.7015 25.7005L78.097 14.096L65.035 34.535C65.6752 35.4819 66.0546 36.5808 66.135 37.721V37.7205ZM104.967 40.9665L93.3375 29.3345L90.8095 45.0385C91.4504 45.3607 92.026 45.7988 92.5075 46.3305L104.967 40.9665ZM77.103 78.703C77.5581 77.8768 78.212 77.1769 79.0054 76.6668C79.7988 76.1566 80.7069 75.8522 81.6475 75.781L84.9875 55.007C84.7255 54.833 84.4915 54.625 84.2615 54.411L45.7925 70.967C45.8905 71.369 45.9585 71.779 45.9905 72.205L77.103 78.703ZM108.135 44.1365L94.6795 49.9265L127.88 64.121L128 64.001L108.135 44.1365ZM84.0895 86.8115L80.0455 111.953L103.527 88.4715L86.6135 84.9395C85.9648 85.7883 85.0901 86.4371 84.0895 86.8115ZM38.4465 80.3475C37.5965 80.3475 36.7825 80.2015 36.0205 79.943L28.2205 92.1495L25.2065 89.1375L32.5945 77.5775C32.4118 77.3508 32.2415 77.1142 32.0845 76.869L18.7005 82.6315L15.528 79.459L30.178 73.153L3.6925 67.625L0.07 64.001L1.216 62.855L31.7585 69.231C32.1097 68.5647 32.5595 67.9552 33.0925 67.423L18.2685 45.8005L21.2625 42.8065L36.75 65.399C37.3062 65.2699 37.875 65.2034 38.446 65.201C39.1 65.201 39.734 65.293 40.34 65.449L54.8325 42.7725C53.6526 41.5486 52.9937 39.9145 52.9945 38.2145C52.9945 37.6945 53.0605 37.1905 53.1745 36.7065L35.0945 28.9765L38.266 25.8045L55.396 33.1305C56.2646 32.4146 57.3029 31.9342 58.4109 31.7356C59.5188 31.537 60.6593 31.6269 61.7225 31.9965L75.0845 11.084L64.001 0L0 64.001L64.001 128.002L70.299 121.704L41.5065 79.699C40.5429 80.1262 39.5006 80.3471 38.4465 80.3475ZM89.0615 55.9025L85.6635 77.021C86.2573 77.4982 86.7491 78.0899 87.1095 78.761C87.4699 79.4322 87.6917 80.1689 87.7615 80.9275L107.048 84.9535L124.707 67.2935L92.8315 53.665C91.9194 54.8793 90.5643 55.6837 89.0615 55.903V55.9025Z" fill="#25C7B7"/>
</svg>
