<svg width="128" height="128" viewBox="0 0 128 128" fill="#8CC84B" xmlns="http://www.w3.org/2000/svg">
<path d="M58.8813 1.62496C62.0413 -0.18383 66.1573 -0.192001 69.3146 1.62496C85.1989 10.6004 101.088 19.5618 116.97 28.5427C119.957 30.2253 121.955 33.5496 121.924 36.9916V90.9913C121.947 94.5757 119.751 97.9795 116.6 99.624C100.768 108.55 84.9438 117.487 69.1145 126.413C65.8891 128.257 61.6905 128.115 58.5658 126.12C53.8194 123.368 49.0648 120.63 44.3179 117.881C43.3479 117.303 42.2544 116.843 41.5695 115.902C42.175 115.086 43.2576 114.984 44.1372 114.628C46.1185 113.998 47.9382 112.987 49.7583 112.006C50.2186 111.69 50.7805 111.811 51.2217 112.093C55.2805 114.42 59.3034 116.815 63.3758 119.12C64.2446 119.622 65.1242 118.956 65.8668 118.542C81.4029 109.761 96.9581 101.013 112.492 92.2299C113.067 91.9531 113.385 91.3421 113.338 90.7116C113.349 72.8983 113.341 55.0818 113.344 37.2684C113.41 36.5531 112.996 35.8954 112.349 35.6026C96.5719 26.7175 80.8029 17.8188 65.0285 8.93141C64.7552 8.74352 64.4314 8.6427 64.0997 8.64222C63.7681 8.64173 63.444 8.7416 63.1702 8.92869C47.3958 17.8188 31.6295 26.7257 15.8551 35.6103C15.2106 35.9036 14.778 36.5504 14.8547 37.2684C14.8574 55.0818 14.8547 72.8983 14.8547 90.7144C14.8273 91.022 14.8949 91.3306 15.0483 91.5987C15.2017 91.8667 15.4335 92.0813 15.7126 92.2136C19.922 94.6007 24.137 96.9709 28.3492 99.3498C30.7222 100.627 33.6358 101.386 36.2502 100.407C38.5574 99.58 40.1747 97.2256 40.1306 94.7759C40.1524 77.0665 40.1197 59.3544 40.147 41.6477C40.0893 40.8615 40.8351 40.212 41.5994 40.286C43.622 40.2724 45.6473 40.2587 47.6699 40.2914C48.5142 40.2724 49.0952 41.1189 48.9908 41.9109C48.9826 59.7325 49.0126 77.5544 48.9772 95.3759C48.9826 100.126 47.0313 105.294 42.638 107.618C37.2257 110.421 30.5361 109.827 25.1891 107.138C20.5602 104.828 16.1429 102.101 11.5961 99.6263C8.43654 97.9909 6.25192 94.5734 6.27416 90.9917V36.9916C6.24102 33.4784 8.31853 30.0936 11.3987 28.4355C27.228 19.5023 43.0547 10.5623 58.8813 1.62496Z"/>
<path d="M72.6907 39.0309C79.5945 38.5866 86.9854 38.7677 93.198 42.1687C98.0079 44.775 100.675 50.245 100.759 55.5888C100.625 56.3095 99.8717 56.7072 99.1835 56.6577C97.1805 56.655 95.177 56.6849 93.1739 56.6441C92.3242 56.6767 91.8304 55.8933 91.7237 55.1421C91.1481 52.5853 89.7538 50.053 87.3472 48.8197C83.6529 46.9701 79.3694 47.0631 75.341 47.1017C72.4002 47.2579 69.2379 47.5125 66.7464 49.2419C64.8337 50.5518 64.2527 53.1962 64.9354 55.3259C65.579 56.8551 67.3442 57.3485 68.7885 57.8033C77.1085 59.9793 85.9251 59.7628 94.0862 62.6265C97.4651 63.7939 100.77 66.0634 101.927 69.6011C103.44 74.3425 102.777 80.0099 99.4032 83.8164C96.6676 86.9487 92.6832 88.6536 88.7093 89.5795C83.4227 90.7583 77.9364 90.7883 72.5677 90.2649C67.5194 89.6894 62.266 88.3631 58.3688 84.9234C55.0363 82.0298 53.4086 77.5212 53.5702 73.1697C53.6087 72.4348 54.3404 71.9224 55.0444 71.9827C57.0616 71.9664 59.0787 71.9609 61.0958 71.9854C61.9015 71.9278 62.4988 72.6241 62.5401 73.3835C62.9123 75.8195 63.8279 78.3764 65.9521 79.8207C70.0517 82.4655 75.1958 82.2844 79.89 82.3584C83.7791 82.1859 88.1447 82.1337 91.3184 79.5633C92.9928 78.0972 93.4889 75.6443 93.0364 73.5342C92.5462 71.7526 90.6824 70.9224 89.082 70.3795C80.8686 67.7814 71.9536 68.7242 63.8197 65.7861C60.5176 64.6191 57.3244 62.4127 56.0557 59.0202C54.2855 54.2189 55.0966 48.2801 58.8236 44.6021C62.4575 40.9437 67.7033 39.5348 72.6907 39.0305V39.0309Z" />
</svg>
