<svg width="125" height="128" viewBox="0 0 125 128" fill="none" xmlns="http://www.w3.org/2000/svg">
<path d="M123.628 76.6401C122.884 74.3862 120.934 72.8164 118.413 72.4398C117.224 72.2623 115.863 72.3379 114.252 72.67C111.444 73.2494 109.361 73.4699 107.841 73.5126C113.579 63.8239 118.245 52.7753 120.932 42.3749C125.276 25.5577 122.954 17.8964 120.242 14.4311C113.063 5.25865 102.59 0.33115 89.9555 0.180378C83.2153 0.0979618 77.2983 1.42874 74.2116 2.38573C71.3377 1.87863 68.2476 1.59551 65.0053 1.54315C58.9273 1.44619 53.5572 2.77115 48.9686 5.49427C46.4282 4.6352 42.3511 3.42417 37.6427 2.6514C26.5689 0.833403 17.6437 2.24999 11.1154 6.86189C3.21028 12.4458 -0.454322 22.1476 0.223428 35.6978C0.438679 39.9999 2.84523 53.0895 6.63442 65.5032C8.81214 72.6385 11.1343 78.5637 13.5365 83.116C16.9432 89.5711 20.5884 93.3724 24.6806 94.7376C26.9742 95.5017 31.1415 96.0369 35.5246 92.3863C36.0802 93.0592 36.8214 93.7278 37.8051 94.3488C39.0544 95.1366 40.582 95.7804 42.1077 96.162C47.6058 97.5364 52.7558 97.1926 57.1496 95.2661C57.1767 96.0476 57.1976 96.7941 57.215 97.4389C57.2441 98.4846 57.2732 99.51 57.3115 100.469C57.5718 106.953 58.013 111.994 59.32 115.521C59.3918 115.715 59.4882 116.011 59.5901 116.325C60.2421 118.321 61.3324 121.663 64.1064 124.281C66.9789 126.992 70.4534 127.824 73.6357 127.824C75.2316 127.824 76.7544 127.614 78.09 127.328C82.8507 126.308 88.2577 124.754 92.1691 119.184C95.8671 113.919 97.6648 105.989 97.9901 93.4946C98.0322 93.1412 98.071 92.8038 98.1084 92.4823L98.1859 91.822L99.0571 91.8986L99.2816 91.9137C104.131 92.1347 110.06 91.1065 113.701 89.415C116.578 88.0799 125.799 83.212 123.628 76.6401" fill="black"/>
<path d="M115.337 77.918C100.919 80.8923 99.9275 76.0108 99.9275 76.0108C115.15 53.4225 121.514 24.75 116.023 17.7325C101.041 -1.40978 75.1062 7.64337 74.6733 7.87802L74.5342 7.90322C71.6855 7.31177 68.4979 6.9598 64.9148 6.90114C58.3913 6.79449 53.4425 8.61152 49.6872 11.4592C49.6872 11.4592 3.42274 -7.60019 5.57477 35.4297C6.03242 44.5837 18.6954 104.695 33.7989 86.5383C39.3193 79.8989 44.6535 74.2854 44.6535 74.2854C47.3025 76.0453 50.474 76.9431 53.7988 76.6207L54.0572 76.4016C53.9767 77.2257 54.0136 78.032 54.1605 78.9865C50.2694 83.3337 51.4131 84.0968 43.635 85.6981C35.7642 87.3203 40.3878 90.2077 43.4066 90.963C47.0664 91.8779 55.5329 93.1742 61.2536 85.1658L61.0257 86.0797C62.5499 87.3009 63.6204 94.0221 63.441 100.116C63.2616 106.209 63.1419 110.392 64.3427 113.659C65.5445 116.927 66.7415 124.279 76.9669 122.088C85.5105 120.257 89.9382 115.512 90.5544 107.597C90.9912 101.971 91.9807 102.803 92.0427 97.7721L92.8363 95.3907C93.7512 87.7634 92.9818 85.3025 98.2453 86.4471L99.5251 86.5596C103.399 86.7356 108.47 85.9361 111.446 84.553C117.854 81.5793 121.655 76.6134 115.336 77.918H115.337" fill="#336791"/>
<path d="M52.3953 39.5233C51.096 39.3425 49.9194 39.5097 49.3241 39.9606C48.9896 40.2141 48.8858 40.5079 48.8577 40.7101C48.783 41.2458 49.1583 41.8382 49.389 42.1436C50.0416 43.0085 50.9947 43.6029 51.9381 43.7338C52.0748 43.7532 52.211 43.7619 52.3463 43.7619C53.9195 43.7619 55.3501 42.5368 55.4762 41.6327C55.6337 40.5002 53.9898 39.7453 52.3953 39.5238V39.5233ZM95.4378 39.5592C95.3136 38.6715 93.7342 38.4184 92.2352 38.6269C90.7381 38.8354 89.2866 39.5112 89.4078 40.4008C89.5048 41.0926 90.7541 42.2736 92.2327 42.2736C92.3578 42.2736 92.4839 42.2653 92.6109 42.2474C93.5979 42.1107 94.3222 41.4838 94.6664 41.1226C95.19 40.5719 95.4935 39.9582 95.4378 39.5592" fill="white"/>
<path d="M120.134 77.5802C119.585 75.9178 117.815 75.3831 114.875 75.9901C106.147 77.7916 103.021 76.5437 101.994 75.7879C108.779 65.452 114.361 52.9577 117.372 41.3006C118.798 35.7788 119.586 30.6506 119.65 26.4706C119.721 21.8829 118.94 18.5116 117.328 16.4522C110.831 8.14999 101.295 3.69661 89.752 3.57444C81.8164 3.48524 75.1116 5.51607 73.8118 6.08716C71.0746 5.4065 68.0907 4.98861 64.842 4.93528C58.8848 4.8388 53.7353 6.26509 49.4719 9.17243C47.62 8.48305 42.834 6.84006 36.981 5.89712C26.8623 4.26819 18.8214 5.5025 13.0833 9.56755C6.23645 14.4185 3.07555 23.0896 3.68785 35.3395C3.89389 39.4608 6.24226 52.1393 9.94808 64.2812C14.8261 80.2621 20.1289 89.309 25.708 91.1701C26.361 91.3878 27.1139 91.54 27.9444 91.54C29.9795 91.54 32.4748 90.6228 35.0709 87.5017C38.2374 83.703 41.513 79.9966 44.8935 76.3871C47.0867 77.5642 49.4962 78.2216 51.9604 78.2875C51.9652 78.352 51.9715 78.4165 51.9774 78.4805C51.5532 78.9863 51.1378 79.4995 50.7314 80.0197C49.024 82.1873 48.6686 82.6386 43.1724 83.7701C41.6089 84.093 37.4566 84.9487 37.3955 87.8594C37.3296 91.0397 42.3041 92.3754 42.8709 92.5169C44.846 93.0114 46.7488 93.2553 48.5634 93.2553C52.9765 93.2553 56.8603 91.8047 59.964 88.9982C59.8685 100.336 60.3411 111.508 61.7025 114.911C62.8175 117.698 65.5411 124.508 74.1444 124.507C75.4068 124.507 76.7962 124.361 78.3248 124.033C87.3038 122.108 91.2031 118.14 92.7113 109.39C93.5185 104.714 94.9035 93.549 95.5551 87.5598C96.93 87.9889 98.7 88.1852 100.614 88.1847C104.604 88.1847 109.21 87.3368 112.097 85.9963C115.342 84.4896 121.196 80.7925 120.134 77.5802V77.5802ZM98.7519 37.1091C98.7223 38.8771 98.4789 40.4823 98.221 42.1578C97.9432 43.9598 97.6562 45.8229 97.584 48.0845C97.5127 50.2855 97.7876 52.5737 98.0533 54.7868C98.5904 59.2567 99.1417 63.8584 97.0081 68.3991C96.6536 67.7711 96.3379 67.122 96.0627 66.4555C95.7975 65.8126 95.2216 64.78 94.4241 63.3508C91.3218 57.7873 84.0571 44.7587 87.776 39.4424C88.8838 37.86 91.6951 36.233 98.7519 37.1091V37.1091ZM90.1981 7.1547C100.541 7.38304 108.722 11.2522 114.515 18.6542C118.957 24.3317 114.065 50.1652 99.9028 72.452C99.7604 72.2709 99.6172 72.0904 99.4733 71.9105L99.2939 71.6865C102.954 65.6425 102.238 59.6625 101.601 54.3607C101.339 52.1849 101.092 50.1298 101.155 48.1994C101.22 46.1535 101.491 44.3985 101.752 42.7017C102.074 40.6108 102.401 38.4471 102.311 35.8966C102.378 35.629 102.405 35.3129 102.37 34.9376C102.14 32.4918 99.3472 25.1718 93.6557 18.5465C90.5423 14.9227 86.0021 10.8673 79.803 8.13205C82.4694 7.57938 86.1156 7.06404 90.1981 7.1547V7.1547ZM32.3236 85.2173C29.4632 88.6564 27.4882 87.9971 26.8385 87.7809C22.6062 86.3692 17.6952 77.4236 13.3654 63.2384C9.6189 50.9642 7.42954 38.6216 7.25598 35.1606C6.70913 24.2148 9.36244 16.5865 15.1427 12.487C24.5498 5.81616 40.0159 9.80898 46.2305 11.834C46.1413 11.9222 46.0483 12.0046 45.96 12.0943C35.7618 22.3934 36.0037 39.9897 36.0289 41.0655C36.0279 41.4805 36.0628 42.0681 36.1103 42.8762C36.2858 45.836 36.6126 51.3443 35.7399 57.5822C34.9294 63.3789 36.7163 69.0526 40.6418 73.1486C41.0446 73.5682 41.4681 73.9675 41.9105 74.3451C40.1633 76.2165 36.3658 80.3547 32.3236 85.2173V85.2173ZM43.2214 70.6766C40.0576 67.3752 38.6206 62.7831 39.2785 58.0767C40.1996 51.4873 39.8598 45.7482 39.677 42.6649C39.6513 42.2334 39.6285 41.8553 39.6154 41.5571C41.1052 40.236 48.0093 36.537 52.9329 37.6651C55.1795 38.1795 56.5486 39.7095 57.1177 42.341C60.0634 55.9654 57.5075 61.6438 55.4539 66.2073C55.0306 67.1473 54.6307 68.0359 54.2894 68.9551L54.0247 69.6658C53.3547 71.4625 52.7312 73.1331 52.3448 74.7194C48.9813 74.7097 45.7094 73.2728 43.2214 70.6762V70.6766ZM43.7377 89.0506C42.7555 88.8053 41.8722 88.3791 41.3539 88.0257C41.7869 87.8221 42.5572 87.5448 43.8933 87.2694C50.3591 85.9387 51.3578 84.9991 53.5384 82.2304C54.0383 81.5953 54.605 80.8759 55.3899 79.9994L55.3908 79.9984C56.5597 78.6894 57.0944 78.9115 58.064 79.3139C58.8499 79.6387 59.6154 80.6238 59.9257 81.7078C60.0726 82.2197 60.2374 83.1913 59.6978 83.9476C55.1426 90.3256 48.5047 90.2437 43.7377 89.0506V89.0506ZM77.5763 120.539C69.6663 122.234 66.8656 118.198 65.02 113.584C63.8288 110.606 63.2432 97.1739 63.6586 82.3405C63.664 82.1431 63.6358 81.9526 63.5815 81.7732C63.533 81.419 63.4591 81.0688 63.3605 80.7251C62.7428 78.5668 61.2375 76.7614 59.4317 76.0128C58.7142 75.7157 57.3974 75.1703 55.815 75.5751C56.1525 74.1847 56.7376 72.6144 57.3722 70.9142L57.6384 70.1991C57.938 69.3929 58.3142 68.5576 58.7117 67.6733C60.8609 62.899 63.8041 56.3595 60.6097 41.5862C59.4132 36.0527 55.4175 33.3504 49.3604 33.9782C45.7293 34.3539 42.4069 35.819 40.7499 36.6592C40.3935 36.8395 40.0678 37.014 39.7633 37.1837C40.2258 31.6085 41.973 21.1892 48.5091 14.5969C52.6246 10.447 58.1052 8.39724 64.7829 8.50777C77.9404 8.72302 86.3778 15.4753 91.1395 21.1024C95.2429 25.9509 97.4647 30.8353 98.3514 33.4697C91.683 32.7914 87.1477 34.1077 84.8488 37.3946C79.8471 44.5444 87.585 58.4214 91.3039 65.0908C91.986 66.313 92.5746 67.3693 92.7597 67.8183C93.9708 70.7532 95.5386 72.7128 96.6832 74.143C97.0342 74.5812 97.3746 75.0064 97.6335 75.3778C95.6138 75.96 91.986 77.3053 92.3166 84.03C92.05 87.4042 90.1539 103.202 89.1906 108.783C87.919 116.157 85.2056 118.904 77.5763 120.54V120.539ZM110.593 82.7559C108.528 83.7144 105.072 84.4333 101.789 84.588C98.1624 84.7577 96.3162 84.1817 95.8819 83.8273C95.6782 79.6367 97.2378 79.199 98.8886 78.7355C99.148 78.6628 99.401 78.5915 99.6454 78.5062C99.7971 78.6298 99.9634 78.7525 100.146 78.8727C103.06 80.7964 108.259 81.0039 115.598 79.4889L115.679 79.4729C114.689 80.3984 112.995 81.6404 110.593 82.7559Z" fill="white"/>
</svg>
