<svg width="129" height="128" viewBox="0 0 129 128" fill="none" xmlns="http://www.w3.org/2000/svg">
<g clip-path="url(#clip0_975_43)">
<circle cx="64" cy="64" r="60" fill="white"/>
<path d="M64.0006 0C28.6555 0 0 28.6521 0 63.9983C0 99.3433 28.6555 127.998 64.0006 127.998C99.3456 127.998 128 99.3433 128 63.9983C128 28.6521 99.3445 0 64.0006 0ZM64.0006 119.78C53.9442 119.78 45.791 113.062 45.791 104.778H82.2101C82.2101 113.061 74.0569 119.78 64.0006 119.78ZM94.0769 99.8098H33.9209V88.9019H94.078L94.0769 99.8098ZM93.8612 83.2876H34.0925C33.8937 83.0583 33.6905 82.8324 33.4984 82.5998C27.3409 75.123 25.8907 71.2198 24.4823 67.242C24.4586 67.111 31.9489 68.7723 37.2605 69.9673C37.2605 69.9673 39.9937 70.5997 43.9896 71.3282C40.153 66.8309 37.8749 61.1138 37.8749 55.2702C37.8749 42.4412 47.7144 31.2306 44.1646 22.1693C47.6195 22.4505 51.315 29.4608 51.5646 40.4218C55.2374 35.3462 56.7746 26.0771 56.7746 20.3938C56.7746 14.5096 60.6518 7.67438 64.5303 7.44059C61.0731 13.1385 65.4259 18.0232 69.2953 30.1407C70.7466 34.6922 70.5613 42.3519 71.6817 47.2095C72.0533 37.1205 73.7881 22.3997 80.1885 17.3173C77.3649 23.7177 80.6064 31.7264 82.8234 35.5766C86.4003 41.7884 88.5687 46.4946 88.5687 55.3955C88.5687 61.3634 86.3652 66.9822 82.6483 71.3745C86.8746 70.5817 89.793 69.8667 89.793 69.8667L103.518 67.1889C103.519 67.1878 101.524 75.3896 93.8612 83.2876Z" fill="#E6522C"/>
</g>
<defs>
<clipPath id="clip0_975_43">
<rect width="128" height="128" fill="white" transform="translate(0.108887)"/>
</clipPath>
</defs>
</svg>
