<svg width="128" height="128" viewBox="0 0 128 128" fill="none" xmlns="http://www.w3.org/2000/svg">
<g clip-path="url(#clip0)">
<path d="M63.452 0.0359955C31.0391 0.0359955 33.0629 14.0922 33.0629 14.0922L33.0989 28.6548H64.03V33.0269H20.8135C20.8135 33.0269 0.0724792 30.6746 0.0724792 63.379C0.0724792 96.0844 18.1758 94.9245 18.1758 94.9245H28.9798V79.7479C28.9798 79.7479 28.3973 61.6447 46.7941 61.6447H77.4722C77.4722 61.6447 94.7081 61.9231 94.7081 44.9867V16.9834C94.7081 16.9834 97.3258 0.0359955 63.452 0.0359955ZM46.3966 9.82907C47.1275 9.82841 47.8514 9.97189 48.5268 10.2513C49.2022 10.5307 49.8159 10.9406 50.3328 11.4574C50.8496 11.9742 51.2595 12.5879 51.5389 13.2633C51.8183 13.9387 51.9618 14.6626 51.9611 15.3935C51.9618 16.1245 51.8183 16.8483 51.5389 17.5238C51.2595 18.1992 50.8496 18.8128 50.3328 19.3297C49.8159 19.8465 49.2022 20.2564 48.5268 20.5358C47.8514 20.8152 47.1275 20.9587 46.3966 20.958C45.6657 20.9587 44.9418 20.8152 44.2664 20.5358C43.591 20.2564 42.9773 19.8465 42.4605 19.3297C41.9436 18.8128 41.5338 18.1992 41.2544 17.5238C40.975 16.8483 40.8315 16.1245 40.8321 15.3935C40.8315 14.6626 40.975 13.9387 41.2544 13.2633C41.5338 12.5879 41.9436 11.9742 42.4605 11.4574C42.9773 10.9406 43.591 10.5307 44.2664 10.2513C44.9418 9.97189 45.6657 9.82841 46.3966 9.82907V9.82907Z" fill="url(#paint0_linear)"/>
<path d="M64.3725 127.051C96.7855 127.051 94.7616 112.995 94.7616 112.995L94.7256 98.4328H63.7941V94.0607H107.01C107.01 94.0607 127.752 96.413 127.752 63.7075C127.752 31.0026 109.648 32.1625 109.648 32.1625H98.8443V47.3385C98.8443 47.3385 99.4267 65.4419 81.0299 65.4419H50.3518C50.3518 65.4419 33.116 65.1634 33.116 82.1003V110.104C33.116 110.104 30.4987 127.051 64.372 127.051H64.3725ZM81.4279 117.259C80.697 117.26 79.9731 117.116 79.2977 116.837C78.6223 116.557 78.0086 116.148 77.4918 115.631C76.9749 115.114 76.5651 114.5 76.2857 113.825C76.0063 113.149 75.8628 112.425 75.8634 111.695C75.8627 110.964 76.0061 110.24 76.2855 109.564C76.5649 108.889 76.9747 108.275 77.4916 107.758C78.0084 107.241 78.6221 106.831 79.2976 106.552C79.973 106.272 80.6969 106.129 81.4279 106.13C82.1588 106.129 82.8827 106.272 83.5581 106.552C84.2335 106.831 84.8472 107.241 85.3641 107.758C85.8809 108.275 86.2907 108.888 86.5702 109.564C86.8496 110.239 86.993 110.963 86.9924 111.694C86.993 112.425 86.8496 113.149 86.5702 113.824C86.2907 114.5 85.8809 115.113 85.3641 115.63C84.8472 116.147 84.2335 116.557 83.5581 116.836C82.8827 117.116 82.1588 117.259 81.4279 117.259V117.259Z" fill="url(#paint1_linear)"/>
</g>
<defs>
<linearGradient id="paint0_linear" x1="12.3424" y1="11.4602" x2="75.6162" y2="74.1028" gradientUnits="userSpaceOnUse">
<stop stop-color="#387EB8"/>
<stop offset="1" stop-color="#366994"/>
</linearGradient>
<linearGradient id="paint1_linear" x1="51.1799" y1="51.6856" x2="119.129" y2="115.92" gradientUnits="userSpaceOnUse">
<stop stop-color="#FFE052"/>
<stop offset="1" stop-color="#FFC331"/>
</linearGradient>
<clipPath id="clip0">
<rect width="128" height="127.488" fill="white"/>
</clipPath>
</defs>
</svg>
