<svg width="129" height="128" viewBox="0 0 129 128" fill="none" xmlns="http://www.w3.org/2000/svg">
<g clip-path="url(#clip0_1086_10)">
<path d="M3.95198 103.554C3.95198 103.554 5.64511 86.8515 17.493 67.0956C29.345 47.3397 49.5502 32.3904 65.972 30.9179C98.647 27.644 128 56.9368 128 56.9368C128 56.9368 127.037 57.6109 126.018 58.4614C93.9648 34.7616 74.3855 45.9314 68.2268 48.9245C40.0093 64.6723 48.5271 103.554 48.5271 103.554H3.96H3.95198ZM96.8415 34.0795C95.0361 33.3493 93.2306 32.6753 91.369 32.0534L91.5936 28.3221C95.1444 29.3412 96.5567 30.0192 97.0622 30.3001L96.8375 34.0835L96.8415 34.0795ZM91.4773 46.0518C93.2828 46.1642 95.1484 46.3888 97.0662 46.786L96.8415 50.2846C94.9799 49.8834 93.1183 49.6628 91.2566 49.6026L91.4813 46.0518H91.4773ZM70.602 28.4344C68.9691 28.4344 67.3321 28.4946 65.6951 28.6671L64.6199 25.337C66.4855 25.1123 68.291 25 70.0363 25L71.1677 28.4424H70.606L70.602 28.4344ZM73.3142 49.2094C74.7185 48.5915 76.3635 47.9656 78.2773 47.4039L79.521 51.1352C77.8761 51.6367 76.2431 52.3148 74.6061 53.1012L73.3102 49.2094H73.3142ZM47.6926 34.3644C46.2241 35.1026 44.8118 35.9492 43.3474 36.8519L40.7515 32.8999C42.2761 31.9972 43.7406 31.2148 45.1529 30.4766L47.6926 34.3644ZM59.2596 59.7614C60.2707 58.4654 61.4583 57.1695 62.7502 55.9819L65.2939 59.8216C64.0502 61.1175 62.9267 62.4174 61.9638 63.8337L59.2596 59.7614ZM51.0748 77.9365C51.5242 75.9063 52.0377 73.816 52.768 71.7296L56.8283 74.9474C56.2666 77.1461 55.8653 79.3487 55.6447 81.5474L51.0748 77.9365ZM26.3599 51.1312C24.9958 52.5355 23.7039 54.0601 22.5163 55.5847L18.1751 51.8614C19.471 50.4491 20.8793 49.0369 22.3477 47.6286L26.3599 51.1272V51.1312ZM9.30821 76.3517C8.40949 78.438 7.22189 81.2064 6.49168 83.1242L0 80.757C0.561703 79.2324 1.7493 76.4078 2.82055 73.9765L9.31223 76.3517H9.30821ZM50.2323 92.2679L56.3227 94.4666C56.6597 97.1266 57.1653 99.6021 57.6748 101.809L50.9023 99.3815C50.6214 97.6883 50.3406 95.261 50.2283 92.2719L50.2323 92.2679Z" fill="#CC0000"/>
</g>
<defs>
<clipPath id="clip0_1086_10">
<rect width="128" height="128" fill="white" transform="translate(0.108887)"/>
</clipPath>
</defs>
</svg>
