<svg width="128" height="128" viewBox="0 0 128 128" fill="none" xmlns="http://www.w3.org/2000/svg">
<path d="M26.2067 0.13405C20.2717 0.106869 13.9516 6.06026 14.0109 12.3172V57.7281V70.3295V76.4021L24.8502 58.083L14.7082 32.9308L36.0508 0.197437L26.2067 0.13405ZM14.0109 80.0025L14.0299 127.993H35.737L14.0109 80.0009V80.0011L14.0109 80.0009V80.0025ZM113.427 80.5477L93.9681 127.987H101.241C107.176 128.013 113.484 122.061 113.424 115.804L113.426 80.5483H113.427V80.5477ZM63.7687 99.4715L38.3518 127.987L93.6195 127.993L63.7687 99.4712V99.4714V99.4715Z" fill="#8B1E25"/>
<path d="M36.0589 0.18512L36.3505 29.8062L14.6957 32.9218L24.7125 57.7855L36.5914 29.6667L66.2061 18.3077L36.0589 0.18512ZM24.5097 58.6602L14 76.4215L14.0634 78.6781L37.4027 85.6148L37.0541 127.981H38.3599L63.772 99.4819L93.6149 128L93.9699 127.987L113.427 80.5513L113.427 79.106L63.772 99.0383L37.4049 85.6082L24.5097 58.6603V58.6602V58.6602Z" fill="#A42F38"/>
<path d="M36.0614 0.179337L14.6892 32.9291L36.3619 29.8045L36.0614 0.179337ZM14.0278 78.6279V80.0098H14.0151L35.7191 127.982L37.0677 127.987L37.4052 85.6133L14.0278 78.628V78.6279V78.6279Z" fill="#932630"/>
<path d="M104.788 58.5523L93.0203 29.3478L64.0175 18.1871L93.404 0.210327L93.0158 29.3466L113.43 35.6655L113.425 37.4536L104.991 58.5523L113.428 79.1074L92.8191 87.3799L104.788 58.5523Z" fill="#C68A66"/>
<path d="M64.0555 18.1542L93.404 0.215505L36.1522 0.202926L64.0555 18.1542V18.1542ZM93.011 29.3357L113.431 35.6675L93.404 0.202728L93.011 29.3357ZM113.422 37.4493L104.902 58.5828L113.422 79.1076V37.4493V37.4493Z" fill="#BE785F"/>
<path d="M113.485 0L93.404 0.20284L113.427 35.6678L113.485 0ZM63.6118 17.7866L36.6341 29.3485L23.8551 58.3547L37.4003 85.6172L63.7677 99.0539L92.8225 87.3799L104.839 58.5448L93.0237 29.3485L63.6118 17.7866Z" fill="#AA4042"/>
<path d="M76.9301 4.29511C76.4573 4.30363 76.126 4.36002 76.0427 4.44724C75.8762 4.62173 76.0229 5.44473 76.3597 6.27281C76.908 7.62117 77.1414 7.79552 78.667 7.93361C79.6039 8.0184 80.5922 8.10993 80.8602 8.14908C81.1281 8.18803 81.4664 8.0352 81.6082 7.80684C81.7499 7.57844 81.6538 6.78164 81.4053 6.03199C80.9815 4.75324 80.8177 4.64972 78.6543 4.39653C78.0201 4.32233 77.403 4.28655 76.9301 4.29511ZM60.2212 7.41379C59.3223 7.41379 56.4236 9.03071 56.177 9.67039C55.8991 10.3915 58.6993 13.93 59.5493 13.93C59.8765 13.93 60.8727 13.4423 61.7678 12.8525C62.6629 12.2627 63.4032 11.5714 63.4032 11.3058C63.4032 10.5586 60.8305 7.41379 60.2212 7.41379ZM98.52 10.2663C97.5364 10.2663 98.4001 11.8247 99.9145 12.7764C101.743 13.9256 102.666 14.1763 102.666 13.5371C102.666 13.1033 99.0692 10.2663 98.52 10.2663ZM80.1249 10.4057C78.737 10.4398 77.3804 10.6466 75.1046 11.0523C70.3305 11.9033 64.4981 13.7502 62.5158 15.0457C55.0032 19.9554 48.4985 27.2115 42.5867 37.282C34.1572 51.6413 29.5189 68.4148 27.9949 89.9826L27.7286 93.6971C27.773 93.719 27.8289 93.7406 27.8935 93.7605H48.9635C60.6489 93.7605 70.2962 93.6749 70.4012 93.5703C70.5062 93.4657 69.8139 91.0332 68.8546 88.1697C65.7451 78.8884 63.7528 68.0517 63.7328 60.3552C63.7066 50.2438 66.8397 39.0314 71.745 31.6913C74.3808 27.7473 78.4669 23.7024 79.8333 23.6917C80.3562 23.6877 81.5966 23.1369 82.597 22.4621C83.5974 21.7872 85.7015 20.8423 87.2623 20.3702C92.0967 18.9082 98.6157 19.7406 104.643 22.5761C106.773 23.5781 107.32 23.704 107.61 23.2481C108.349 22.0868 107.913 21.2249 105.581 19.2927C99.4205 14.1877 92.7562 11.4988 84.1944 10.6466C82.7456 10.5024 81.6927 10.4146 80.7207 10.4057C80.5182 10.4016 80.3232 10.4008 80.1249 10.4057V10.4057ZM41.712 21.9422C40.7991 22.1106 37.7553 26.0482 38.2764 26.5189C39.3935 27.5279 43.1376 29.75 43.4234 29.5741C43.6075 29.4609 44.3049 28.5647 44.9828 27.5838C45.6606 26.6028 46.2125 25.6303 46.2125 25.4286C46.2125 25.1154 43.5082 22.9647 41.8641 21.9676C41.8239 21.9433 41.7728 21.9311 41.712 21.9424V21.9422ZM98.3932 22.6268C98.0684 22.6271 97.7887 22.6868 97.6452 22.8297C97.421 23.0529 97.3525 23.5426 97.4931 23.9073C97.8271 24.7739 100.827 24.614 100.827 23.7298C100.827 23.1801 99.3677 22.6261 98.3932 22.6268ZM86.2355 23.0325C86.0664 23.0366 85.8564 23.0732 85.6016 23.1339C84.1189 23.4871 83.028 24.0505 83.028 24.4651C83.028 24.6465 83.4021 25.1245 83.8521 25.53C84.302 25.9355 84.6634 26.5218 84.6634 26.8231C84.6634 27.4875 84.9839 27.5042 86.6538 26.9246C88.122 26.4149 88.1595 26.2443 87.3384 24.2876C86.938 23.3334 86.7426 23.0243 86.2355 23.0325ZM75.7892 31.0321C75.2854 31.0321 74.027 32.3864 74.027 32.9337C74.027 33.6367 76.0745 36.737 76.5371 36.737C76.727 36.737 77.1725 36.2792 77.5387 35.7228C78.1707 34.7623 78.1481 34.6165 77.1203 32.8703C76.5249 31.8586 75.9307 31.0321 75.7892 31.0321ZM27.6653 44.4703C27.1151 44.4703 25.358 48.6927 25.358 50.0103C25.358 50.5013 29.8562 52.5103 31.1262 52.5839C31.5877 52.6107 32.058 51.8122 32.6856 49.9089C33.4148 47.697 33.473 47.1041 33.0405 46.7141C32.3619 46.1022 28.4573 44.4703 27.6653 44.4703ZM69.0067 44.635C68.888 44.6585 68.792 44.7475 68.7024 44.8886C68.4901 45.223 68.3129 45.7045 68.3094 45.9662C68.3062 46.2279 68.2014 46.7245 68.0686 47.0691C67.9122 47.4747 68.4531 48.2756 69.6025 49.3384C71.5917 51.1777 71.7984 51.2539 72.1507 50.3399C72.7723 48.7271 72.3705 47.4593 70.7435 45.8774C69.8911 45.0486 69.4356 44.6802 69.1335 44.635C69.0881 44.6281 69.0463 44.6273 69.0067 44.635ZM66.8515 60.4312C66.3897 60.413 66.2648 60.7702 66.2683 61.4835C66.2797 63.7635 66.6874 64.3365 69.0574 65.3882C72.1693 66.7691 72.4291 66.7516 72.1507 65.1473C71.7743 62.9783 71.7055 62.8852 69.4504 61.5976C68.1089 60.8315 67.3133 60.4494 66.8515 60.4312ZM19.5263 72.1706C18.839 72.1706 16.9383 78.3165 17.3204 79.3081C17.5266 79.843 19.0511 80.0989 22.9365 80.2462L24.8128 80.3096L25.5608 77.0388C26.0114 75.0744 26.1673 73.649 25.9411 73.4511C25.5744 73.1301 20.7731 72.1706 19.5263 72.1706ZM69.8561 80.4364C69.734 80.4408 69.6552 80.4599 69.6279 80.4871C69.493 80.6214 69.6996 81.7314 70.0843 82.9465C70.6759 84.8153 70.9564 85.1747 71.8972 85.3173C73.4614 85.5541 77.7162 85.6485 77.7162 85.444C77.7162 84.5951 75.9793 81.566 75.3962 81.3999C73.6613 80.9055 70.7107 80.4063 69.8561 80.4364ZM99.661 100.365C98.689 100.365 97.6827 100.4 96.8846 100.48C94.5365 100.714 93.747 100.991 92.7264 101.899C91.6105 102.892 91.4494 103.315 91.3191 105.614C91.2007 107.703 91.3281 108.472 92.0037 109.544C93.0494 111.203 94.2539 111.679 97.4804 111.687C100.544 111.694 101.144 112.007 100.967 113.55L100.827 114.729L96.2254 114.843L91.6234 114.957V116.986V119.001H96.7578C100.546 119.001 102.198 118.849 103.084 118.393C104.771 117.524 105.531 115.82 105.531 112.878C105.531 110.573 105.416 110.261 104.136 108.986C102.727 107.583 102.548 107.537 98.165 107.427C96.3878 107.382 95.7182 106.977 95.7182 105.944C95.7182 104.795 97.2627 104.346 101.258 104.346H104.707V102.559V100.758L102.247 100.48C101.571 100.401 100.633 100.364 99.661 100.365ZM68.7151 100.632L66.5726 100.758L64.4174 100.885L64.3033 109.43C64.2424 114.128 64.2946 118.196 64.4047 118.482C64.5304 118.808 65.37 119.001 66.6613 119.001H68.7151V109.823V100.632ZM22.8985 100.682V109.848V119.001H25.1298H27.361L27.4878 116.669C27.5604 115.283 27.7869 114.323 28.0583 114.323C28.3105 114.323 29.3878 115.381 30.4416 116.669L32.3559 119.001H34.79C36.1276 119.001 37.2241 118.902 37.2241 118.773C37.2241 118.644 36.3856 117.472 35.3732 116.162C34.3608 114.852 33.535 113.645 33.535 113.487C33.535 113.329 34.3608 112.435 35.3732 111.496L37.1988 109.798C37.2053 109.776 37.2178 109.756 37.2241 109.734V106.616C37.2241 103.555 37.1729 103.402 35.8296 102.064L34.4351 100.682H28.6668H22.8985V100.682ZM50.7637 100.682C43.9561 100.697 43.7657 101 43.7657 111.446V119.001H45.8068C47.8403 119.001 47.8543 118.997 47.8606 117.683C47.8706 115.568 48.2562 115.288 50.9539 115.426L53.3753 115.541L53.5021 117.303L53.6288 119.052L55.746 118.925L57.8758 118.799L58.0026 112.079C58.1992 101.438 57.7084 100.668 50.7637 100.682ZM75.2567 100.682V109.848V119.027L81.2912 118.913L87.3257 118.799V116.77V114.729L83.6492 114.526L79.9601 114.323L79.846 107.503L79.7446 100.682H77.5006H75.2567ZM30.4036 104.752C31.0425 104.76 31.6642 104.848 32.077 105.005C32.9913 105.355 32.9913 109.043 32.077 109.392C30.976 109.813 28.4098 109.665 27.8935 109.151C27.6235 108.882 27.399 108.005 27.399 107.199C27.399 106.392 27.6235 105.515 27.8935 105.246C28.2162 104.925 29.3387 104.738 30.4036 104.752ZM50.751 104.764C51.7546 104.764 52.7733 104.937 53.0837 105.246C53.3537 105.515 53.5781 106.665 53.5781 107.807C53.5781 108.949 53.3537 110.099 53.0837 110.368C52.3415 111.107 49.2644 110.982 48.4564 110.178C47.6252 109.35 47.8176 105.69 48.7226 105.119C49.0361 104.922 49.6459 104.81 50.32 104.777C50.4604 104.77 50.6077 104.765 50.751 104.765V104.764Z" fill="#F2F2F2"/>
</svg>
