<svg width="128" height="128" viewBox="0 0 128 128" fill="none" xmlns="http://www.w3.org/2000/svg">
<path d="M122.983 93.5892C116.152 97.1497 80.767 111.699 73.2337 115.626C65.7004 119.554 61.5154 119.516 55.5645 116.671C49.6135 113.826 11.9576 98.6155 5.17451 95.3732C1.78408 93.7525 0.00158691 92.3854 0.00158691 91.0934C0.00158691 89.8045 0.00158691 78.1555 0.00158691 78.1555C0.00158691 78.1555 49.0244 67.4831 56.9392 64.6442C64.8532 61.8045 67.5988 61.7022 74.3337 64.1694C81.0695 66.6366 121.341 73.9028 127.997 76.3406C127.997 76.3406 127.994 87.8956 127.994 89.095C127.995 90.3741 126.46 91.7774 122.983 93.5892Z" fill="#A41E11"/>
<path d="M122.983 80.6483C116.152 84.2073 80.767 98.7576 73.2337 102.685C65.7004 106.613 61.5154 106.575 55.5645 103.73C49.6128 100.886 11.9577 85.673 5.17454 82.4323C-1.60858 79.1901 -1.75079 76.9584 4.91269 74.3497C11.5754 71.7396 49.0244 57.0469 56.9399 54.2073C64.8539 51.3691 67.5995 51.2653 74.3345 53.7333C81.0702 56.2005 116.244 70.2009 122.9 72.6387C129.557 75.0788 129.813 77.0878 122.983 80.6483Z" fill="#D82C20"/>
<path d="M122.983 72.492C116.152 76.0525 80.767 90.6014 73.2337 94.5298C65.7004 98.4567 61.5154 98.4183 55.5645 95.5734C49.6128 92.73 11.9576 77.5182 5.17451 74.276C1.78408 72.6553 0.00158691 71.2896 0.00158691 69.9977C0.00158691 68.7088 0.00158691 57.0582 0.00158691 57.0582C0.00158691 57.0582 49.0244 46.3866 56.9392 43.5469C64.8532 40.708 67.5988 40.6049 74.3337 43.0721C81.0695 45.5393 121.341 52.804 127.997 55.2426C127.997 55.2426 127.994 66.7976 127.994 67.9985C127.995 69.2769 126.46 70.6802 122.983 72.492Z" fill="#A41E11"/>
<path d="M122.983 59.551C116.152 63.1115 80.767 77.6604 73.2337 81.5888C65.7004 85.5157 61.5154 85.4773 55.5645 82.6324C49.6128 79.789 11.9577 64.5765 5.17454 61.335C-1.60858 58.0936 -1.75079 55.8619 4.91269 53.2517C11.5754 50.643 49.0244 35.9497 56.9399 33.1108C64.8539 30.2719 67.5995 30.1688 74.3345 32.636C81.0702 35.1032 116.244 49.1028 122.9 51.5414C129.557 53.9808 129.813 55.9905 122.983 59.551Z" fill="#D82C20"/>
<path d="M122.983 50.6137C116.152 54.1742 80.767 68.7239 73.2337 72.6523C65.7004 76.5792 61.5154 76.5408 55.5645 73.6959C49.6128 70.8525 11.9576 55.6399 5.17451 52.3985C1.78408 50.7777 0.00158691 49.4113 0.00158691 48.1202C0.00158691 46.8305 0.00158691 35.1807 0.00158691 35.1807C0.00158691 35.1807 49.0244 24.509 56.9392 21.6701C64.8532 18.8305 67.5988 18.7282 74.3337 21.1954C81.0695 23.6626 121.341 30.9272 127.997 33.3659C127.997 33.3659 127.994 44.9209 127.994 46.121C127.995 47.3986 126.46 48.8019 122.983 50.6137Z" fill="#A41E11"/>
<path d="M122.983 37.6727C116.152 41.2332 80.767 55.7829 73.2337 59.7105C65.7004 63.6374 61.5154 63.5991 55.5645 60.7549C49.6136 57.9107 11.9577 42.6989 5.17454 39.4575C-1.60858 36.216 -1.75079 33.9836 4.91269 31.3742C11.5754 28.7648 49.0244 14.0729 56.9399 11.2332C64.8539 8.39358 67.5995 8.29126 74.3345 10.7592C81.0702 13.2264 116.244 27.226 122.9 29.6647C129.557 32.1025 129.813 34.113 122.983 37.6727Z" fill="#D82C20"/>
<path d="M66.0096 19.2835L74.4496 16.5228L72.1652 21.9914L80.7662 25.2103L69.68 26.3608L67.1955 32.338L63.1813 25.6708L50.3757 24.5203L59.9323 21.072L57.0656 15.7832L66.0096 19.2835Z" fill="white"/>
<path d="M66.5348 54.1968L45.8303 45.6116L75.491 41.0587L66.5348 54.1968Z" fill="white"/>
<path d="M37.8366 40.8239C46.5919 40.8239 53.6894 38.0727 53.6894 34.6788C53.6894 31.285 46.5919 28.5338 37.8366 28.5338C29.0813 28.5338 21.9837 31.285 21.9837 34.6788C21.9837 38.0727 29.0813 40.8239 37.8366 40.8239Z" fill="white"/>
<path d="M95.813 25L119.14 34.227L95.826 43.431L95.813 25Z" fill="#7A0C00"/>
<path d="M95.813 25L95.826 43.431L93.301 44.427L70 35.21L95.813 25Z" fill="#AD2115"/>
</svg>
