<svg width="128" height="128" viewBox="0 0 128 128" fill="#764ABC" xmlns="http://www.w3.org/2000/svg">
    <path d="M88.6906 84.8713C93.4141 84.3823 96.9976 80.3103 96.8346 75.4233C96.6721 70.5368 92.5996 66.6273 87.7131 66.6273H87.3876C82.3376 66.7903 78.4286 71.0253 78.5916 76.0748C78.7546 78.5183 79.7316 80.6358 81.1976 82.1018C75.6596 93.0158 67.1896 100.997 54.4845 107.676C45.8515 112.237 36.893 113.866 27.9345 112.726C20.6045 111.748 14.9035 108.491 11.3195 103.115C6.1075 95.1333 5.619 86.4998 10.017 77.8668C13.112 71.6768 17.998 67.1158 21.093 64.8353C20.4415 62.7178 19.464 59.1343 18.9755 56.5283C-4.64301 73.6318 -2.19951 96.7623 4.9675 107.676C10.3425 115.821 21.256 120.87 33.3095 120.87C36.567 120.87 39.8245 120.544 43.0825 119.73C63.9321 115.658 79.7321 103.278 88.6906 84.8713V84.8713ZM117.359 64.6728C104.979 50.1753 86.7361 42.1938 65.8866 42.1938H63.2806C61.8145 39.2618 58.7195 37.3068 55.299 37.3068H54.973C49.924 37.4698 46.015 41.7048 46.1775 46.7548C46.3405 51.6413 50.4125 55.5508 55.299 55.5508H55.6245C59.208 55.3878 62.3031 53.1073 63.6061 50.0123H66.5381C78.9176 50.0123 90.6451 53.5958 101.233 60.6003C109.377 65.9758 115.241 72.9803 118.499 81.4503C121.268 88.2918 121.105 94.9703 118.173 100.672C113.612 109.305 105.957 114.029 95.8576 114.029C89.3421 114.029 83.1526 112.074 79.8946 110.608C78.1031 112.237 74.8451 114.843 72.5646 116.472C79.5691 119.73 86.7361 121.522 93.5771 121.522C109.214 121.522 120.779 112.888 125.177 104.255C129.901 94.8073 129.575 78.5183 117.359 64.6728V64.6728ZM34.6125 87.6398C34.7755 92.5268 38.8475 96.4358 43.734 96.4358H44.06C49.1095 96.2733 53.0185 92.0378 52.8555 86.9883C52.693 82.1013 48.6205 78.1923 43.734 78.1923H43.4085C43.0825 78.1923 42.5935 78.1923 42.2685 78.3548C35.59 67.2783 32.821 55.2248 33.7985 42.1933C34.4495 32.4198 37.7075 23.9493 43.4085 16.9448C48.132 10.9178 57.2535 7.9858 63.4436 7.8233C80.7091 7.4973 88.0386 28.9988 88.5276 37.6323C90.6451 38.1208 94.2286 39.2613 96.6721 40.0758C94.7171 13.6878 78.4286 0.00479999 62.7921 0.00479999C48.132 0.00479999 34.6125 10.5928 29.237 26.2303C21.7445 47.0803 26.631 67.1158 35.7525 82.9163C34.9385 84.0563 34.4495 85.8483 34.6125 87.6403V87.6398Z"/>
</svg>
