<svg width="128" height="128" viewBox="0 0 128 128" fill="none" xmlns="http://www.w3.org/2000/svg">
    <path fill-rule="evenodd" clip-rule="evenodd" d="M35.0844 113.182C63.4197 117.051 91.2516 120.851 119.636 124.724C109.966 108.625 100.544 92.9362 91.0463 77.12L35.0844 113.182V113.182ZM127.634 24.0653C125.136 27.8164 122.633 31.5643 120.139 35.3175C111.572 48.2059 103.006 61.0943 94.4476 73.9889C93.971 74.7069 93.353 75.2764 94.0246 76.3834C102.294 90.0393 110.499 103.736 118.724 117.419C120.022 119.581 121.335 121.734 123.013 123.807C124.676 90.5954 126.338 57.3824 128 24.1705L127.634 24.0653V24.0653ZM14.7413 66.6446C15.1281 67.0108 16.0938 67.2244 16.5436 67.0026C24.4759 63.104 32.4588 59.292 40.2179 55.0726C42.7485 53.6974 44.6942 51.2317 46.8741 49.2324C54.0925 42.6123 61.2997 35.9788 68.5037 29.3442C68.9442 28.9367 69.4662 28.5426 69.7293 28.0289C72.3167 22.9717 74.8597 17.8888 77.4924 12.6593C74.3531 11.4791 71.3768 10.3247 68.3634 9.2745C67.9548 9.13213 67.3111 9.4148 66.8685 9.66137C59.8935 13.5579 52.7875 17.2471 46.0343 21.4965C42.6557 23.6227 39.9032 26.7558 36.9114 29.4845C32.0895 33.8856 27.2737 38.2969 22.522 42.7743C21.2613 43.9627 20.112 45.3204 19.1299 46.7502C15.8802 51.4824 12.7275 56.2827 9.43032 61.2191C11.2728 63.1246 12.9482 64.9465 14.7413 66.6446V66.6446ZM43.7327 60.1751C39.7866 76.8456 35.8643 93.4221 31.8109 110.543C50.817 98.2967 69.3847 86.3326 87.8296 74.449C73.1513 69.6983 58.5204 64.962 43.7327 60.1751ZM122.789 24.2262C106.73 26.9095 91.0556 29.5279 75.1784 32.1802C80.5864 45.3348 85.886 58.2253 91.3362 71.482C101.881 55.6369 112.217 40.1095 122.789 24.2262V24.2262ZM44.395 56.7655C58.8557 61.4595 73.0285 66.0607 87.6129 70.796C82.1968 57.6011 76.9663 44.8675 71.6275 31.8646C62.5335 40.1786 53.5757 48.3699 44.395 56.7655ZM15.3386 76.3658C10.2102 88.6249 5.25626 100.467 0.21252 112.523C9.90591 112.236 19.3022 111.959 29.0214 111.672C24.4584 99.8988 19.9851 88.3567 15.3386 76.3658V76.3658ZM29.3618 103.288L29.7188 103.209C33.1779 88.8271 36.6865 74.5439 40.2179 59.5994C32.3402 63.6941 24.8256 67.5989 17.1058 71.612C21.0457 81.8522 25.2466 92.6546 29.3618 103.288V103.288ZM116.977 21.8936C112.377 20.6753 107.777 19.4528 103.174 18.2426C96.5594 16.5033 89.9393 14.7856 83.3285 13.0307C82.5021 12.811 81.9048 12.6676 81.4189 13.6631C79.0822 18.45 76.6733 23.2008 74.2995 27.9701C74.2262 28.1176 74.2417 28.3085 74.185 28.6788C88.5105 26.5082 102.74 24.351 116.968 22.1949L116.977 21.8936ZM90.289 11.0056L127.782 21.3778C125.632 15.2509 123.638 9.56955 121.587 3.72628L90.3437 10.6538L90.289 11.0056V11.0056ZM32.5403 115.944C27.8969 115.409 23.1296 115.901 18.4201 115.982C14.5514 116.047 10.6827 116.195 6.81405 116.315C6.41583 116.328 6.01865 116.408 5.62146 116.837C37.6057 119.794 69.589 122.751 101.572 125.71L101.637 125.283C91.3847 123.883 81.1311 122.483 70.8785 121.084C58.1026 119.339 45.3483 117.42 32.5403 115.944V115.944ZM0.844922 101.488C4.96637 91.9242 9.07027 82.3546 13.2082 72.7984C13.6219 71.84 13.5899 71.189 12.7801 70.4173C11.049 68.7698 9.44063 66.9943 7.54859 65.0259C4.99113 77.6533 2.49659 89.9682 0 102.282L0.279577 102.413C0.470433 102.107 0.703586 101.817 0.844922 101.488V101.488ZM82.0771 8.48116C89.0273 6.68815 96.0787 5.28614 103.089 3.72216C103.543 3.62002 103.986 3.47043 104.433 3.34251L104.364 3C94.4899 4.32773 84.617 5.6565 74.2458 7.05232C77.0736 8.28721 79.2524 9.20951 82.0771 8.48116Z" fill="#D91404"/>
</svg>
