<svg width="128" height="128" viewBox="0 0 128 128" fill="#CF649A" xmlns="http://www.w3.org/2000/svg">
    <path d="M110.15 71.15C105.675 71.1752 101.8 72.25 98.5499 73.8502C97.3499 71.4752 96.1499 69.4 95.9502 67.8502C95.7252 66.0502 95.4502 64.95 95.7252 62.8002C95.9999 60.65 97.2499 57.6 97.2499 57.35C97.2247 57.125 96.9747 56.025 94.3999 56C91.8252 55.975 89.5999 56.5 89.3499 57.175C89.0999 57.85 88.5999 59.4 88.2749 61C87.8249 63.35 83.1249 71.675 80.4499 76.0499C79.5749 74.35 78.8249 72.85 78.6747 71.6497C78.4499 69.85 78.1747 68.7497 78.4499 66.6C78.7249 64.4497 79.9749 61.4 79.9749 61.15C79.9499 60.925 79.6999 59.825 77.1252 59.8C74.55 59.775 72.3252 60.3 72.0752 60.975C71.8252 61.65 71.5502 63.25 71.0002 64.8C70.475 66.35 64.225 80.25 62.6 83.875C61.775 85.7249 61.0502 87.1999 60.525 88.1999C60 89.1999 60.5 88.2749 60.45 88.3749C60 89.2249 59.75 89.6999 59.75 89.6999V89.7252C59.4 90.3502 59.025 90.9499 58.8497 90.9499C58.7247 90.9499 58.4747 89.2749 58.8997 86.9752C59.8247 82.15 62.0747 74.6252 62.05 74.3502C62.05 74.2252 62.4747 72.9 60.5997 72.2252C58.7747 71.5502 58.125 72.6752 57.9747 72.6752C57.8247 72.6752 57.6997 73.0752 57.6997 73.0752C57.6997 73.0752 59.7247 64.6005 53.8247 64.6005C50.1247 64.6005 45.0247 68.6255 42.4997 72.3005C40.8997 73.1755 37.4997 75.0252 33.8997 77.0004C32.5247 77.7504 31.0997 78.5505 29.7497 79.2755L29.475 78.9749C22.325 71.35 9.09998 65.95 9.64998 55.7C9.84998 51.975 11.15 42.15 35.0502 30.25C54.6252 20.5 70.3002 23.175 73.025 29.125C76.8999 37.625 64.65 53.425 44.3002 55.7C36.5502 56.575 32.475 53.575 31.4502 52.45C30.3752 51.275 30.2252 51.225 29.8252 51.45C29.1752 51.8 29.5752 52.85 29.8252 53.475C30.4252 55.05 32.9252 57.85 37.1752 59.25C40.9 60.475 50.0002 61.15 61.0002 56.9C73.3252 52.125 82.9502 38.875 80.1252 27.8C77.2502 16.525 58.5502 12.825 40.8752 19.1C30.35 22.85 18.95 28.7 10.75 36.375C0.999985 45.475 -0.550014 53.425 0.0999854 56.725C2.37523 68.5 18.6 76.175 25.1 81.8499C24.775 82.0247 24.475 82.1997 24.2 82.3499C20.95 83.9497 8.57498 90.4249 5.47498 97.2747C1.97498 105.025 6.02498 110.6 8.72498 111.35C17.075 113.675 25.625 109.5 30.25 102.625C34.8497 95.7499 34.3 86.8249 32.175 82.75L32.0997 82.5999L34.6497 81.1C36.3 80.125 37.925 79.2249 39.3497 78.4497C38.55 80.6247 37.9747 83.1997 37.675 86.9497C37.325 91.3499 39.125 97.0497 41.5 99.2997C42.55 100.274 43.8 100.3 44.575 100.3C47.325 100.3 48.575 98.0244 49.95 95.2997C51.65 91.9747 53.15 88.1247 53.15 88.1247C53.15 88.1247 51.275 98.5497 56.4 98.5497C58.275 98.5497 60.15 96.1247 61 94.8747V94.8997C61 94.8997 61.05 94.8247 61.15 94.6497C61.2549 94.4946 61.3549 94.3363 61.45 94.1749V94.1249C62.2 92.8249 63.875 89.85 66.375 84.925C69.5997 78.575 72.6999 70.625 72.6999 70.625C72.6999 70.625 73 72.575 73.925 75.775C74.4747 77.6752 75.6747 79.75 76.5997 81.775C75.8497 82.825 75.3997 83.4252 75.3997 83.4252L75.4247 83.4502C74.825 84.2502 74.1497 85.1004 73.4499 85.9502C70.8999 89.0002 67.8499 92.4754 67.4499 93.4754C66.9749 94.6502 67.075 95.5252 68 96.2254C68.675 96.7254 69.875 96.8252 71.15 96.7254C73.45 96.5752 75.0499 96.0004 75.8499 95.6502C77.0999 95.2002 78.5249 94.5252 79.8999 93.5252C82.3999 91.6754 83.9249 89.0504 83.7749 85.5504C83.6999 83.6254 83.0749 81.7254 82.2999 79.9254C82.5249 79.6004 82.7502 79.2752 82.9749 78.9254C86.9249 73.1502 89.9749 66.8005 89.9749 66.8005C89.9749 66.8005 90.2749 68.7505 91.1999 71.9505C91.6747 73.5755 92.6249 75.3507 93.4749 77.1007C89.7749 80.1257 87.4499 83.6257 86.6499 85.9257C85.1749 90.1757 86.3249 92.1007 88.4999 92.5507C89.4747 92.7507 90.8749 92.3007 91.9247 91.8507C93.2247 91.4257 94.7997 90.7004 96.2499 89.6257C98.7499 87.7757 101.15 85.2007 101.025 81.7257C100.95 80.1257 100.525 78.5507 99.9499 77.0507C103.1 75.7507 107.175 75.0007 112.35 75.6257C123.475 76.9257 125.675 83.8757 125.25 86.7757C124.825 89.6759 122.5 91.2757 121.725 91.7757C120.95 92.2507 120.7 92.4259 120.775 92.7757C120.875 93.3009 121.225 93.2757 121.9 93.1759C122.825 93.0257 127.75 90.8009 127.95 85.4512C128.25 78.5752 121.725 71.0752 110.15 71.15V71.15ZM24.35 100.075C20.675 104.1 15.5 105.625 13.3 104.325C10.925 102.95 11.8497 97.0249 16.375 92.7499C19.125 90.1499 22.7 87.7499 25.05 86.275C25.575 85.95 26.375 85.4752 27.325 84.9C27.475 84.8002 27.575 84.7499 27.575 84.7499C27.75 84.6499 27.95 84.525 28.15 84.4C29.825 90.4999 28.225 95.8499 24.35 100.075V100.075ZM51.225 81.8C49.95 84.925 47.25 92.9499 45.625 92.4999C44.2247 92.1249 43.375 86.0499 45.3497 80.05C46.3497 77.0247 48.4747 73.425 49.7247 72.0247C51.75 69.7747 53.9497 69.0247 54.5 69.9497C55.15 71.15 52.025 79.85 51.225 81.8ZM73.4 92.3999C72.85 92.6752 72.35 92.8749 72.125 92.7252C71.95 92.6252 72.3497 92.2502 72.3497 92.2502C72.3497 92.2502 75.1247 89.2752 76.2247 87.9002C76.8497 87.1005 77.5997 86.1755 78.3997 85.1252V85.4252C78.3999 89.0249 74.95 91.4249 73.4 92.3999ZM90.4997 88.4999C90.0997 88.1999 90.1499 87.2749 91.4997 84.375C92.0249 83.225 93.2247 81.2999 95.2997 79.4749C95.5497 80.2249 95.6999 80.9497 95.6747 81.625C95.6499 86.1249 92.4499 87.7999 90.4997 88.4999Z"/>
</svg>
