<svg width="128" height="128" viewBox="0 0 128 128" fill="none" xmlns="http://www.w3.org/2000/svg">
<path d="M37.6363 59.3631C37.6363 59.3631 36.1579 59.0578 35.7237 59.1881C35.289 59.3189 32.8087 58.8856 31.7207 58.1015C30.6322 57.3202 29.5456 57.8856 28.5451 57.2764C27.546 56.6668 26.0219 56.7534 24.8925 56.711C23.7617 56.6682 22.3256 56.7534 21.8035 57.4496C21.2813 58.1443 19.2379 60.2766 18.4985 61.1445C17.7595 62.0138 14.7579 65.1434 13.5834 65.6208C13.5834 65.6208 13.8868 66.1011 13.7137 66.4478C13.5392 66.7968 13.6699 67.7945 13.6699 68.1435C13.6699 68.493 13.7565 69.0557 13.454 69.4051C13.1478 69.7532 12.9747 70.3172 12.9747 70.5346C12.9747 70.7519 12.6257 71.5346 12.9747 72.5789C13.3223 73.6227 13.6257 74.7949 12.1915 74.3175C10.7554 73.84 11.0602 72.5361 9.88657 72.4909C8.71339 72.4481 7.19074 72.4909 6.75517 70.884C6.31822 69.2744 5.49359 66.5357 5.31908 66.1011C5.14596 65.6673 4.53727 63.6672 5.66809 61.9286C6.79891 60.1896 7.01623 58.9285 7.19074 58.5362C7.36386 58.1457 8.19126 55.6668 8.79857 55.3173C9.40726 54.9692 9.18901 53.8826 9.53802 53.4051C9.88564 52.9267 9.75488 52.144 9.97221 51.7094C10.1891 51.2742 10.277 50.0145 10.5809 49.0582C10.8857 48.1023 11.8862 46.622 12.4949 45.8407C13.1036 45.0593 13.4526 43.8857 13.4526 43.4939C13.4526 43.1016 13.2357 42.2774 14.2349 41.5817C15.234 40.8855 17.0173 38.6253 17.1918 38.2772C17.1918 38.1906 17.1918 36.5823 17.1038 36.0169C17.0173 35.4515 16.887 34.9303 17.4515 34.713C18.0192 34.4943 18.801 34.0159 18.801 34.0159C18.801 34.0159 18.2581 33.3211 17.0831 32.7336C15.9086 32.1475 12.3853 28.1693 12.0593 25.822C11.7324 23.4743 11.6021 19.7572 14.7994 18.4528C17.9971 17.1475 21.5189 16.4311 22.0424 16.3662C22.5646 16.3017 24.3911 15.9094 25.1098 16.4311C25.1098 16.4311 24.3262 16.3017 24.0006 16.4311C23.6737 16.5614 25.5647 16.4969 26.0219 17.0181C26.0219 17.0181 25.1098 16.7584 24.5872 16.8229C24.0665 16.8874 25.5012 17.4749 25.7622 17.9316C26.0219 18.3884 27.0017 18.7144 26.8714 19.4322C26.742 20.1491 26.6762 21.2578 26.8056 21.5838C26.9373 21.9098 27.2628 22.4973 27.3286 23.4094C27.3945 24.3229 27.656 25.5624 27.9157 26.1485C28.1768 26.7355 28.8292 28.5612 28.5681 29.8651C28.5681 29.8651 28.8292 30.5175 30.1336 29.0179C31.4389 27.5169 32.7442 27.2572 33.3957 27.2572C34.0482 27.2572 35.028 26.6039 35.6795 26.8649C36.3333 27.1264 37.052 26.8005 37.8343 26.9957C38.6161 27.1909 41.8783 26.9957 42.597 26.7342C43.313 26.4731 45.7933 26.1471 46.3141 26.1471C46.8362 26.1471 45.6626 25.2995 46.641 24.6475C47.6208 23.9955 45.5967 23.6695 47.0987 21.7795C48.5978 19.888 47.1617 19.3663 46.902 18.9759C46.6424 18.5836 46.5765 17.3441 46.5765 16.6277C46.5765 15.9094 46.3813 14.0838 46.3813 14.0838L46.6424 13.7578C46.6424 13.7578 46.4315 13.4111 46.2248 13.2882C46.0194 13.1652 45.814 12.4253 45.6511 11.9327C45.4844 11.4395 43.6763 8.76811 43.1422 8.35787C42.6071 7.94486 42.5256 7.33065 42.6071 6.75465C42.69 6.17773 43.0998 5.68598 43.0183 5.06901C42.9354 4.45341 42.9769 3.63154 42.9354 3.34469C42.8954 3.056 43.0183 1.33122 43.389 1.16685C43.389 1.16685 43.6763 1.04299 43.8001 1.45278C43.8001 1.45278 43.5934 0.015769 44.0455 0.015769C44.0455 0.015769 44.581 -0.148605 44.7864 0.591309C44.9903 1.33122 45.1975 1.74147 45.2385 1.94728C45.2799 2.15309 45.4443 2.48046 45.4443 2.48046C45.4443 2.48046 45.8951 2.27695 46.2662 2.43994C46.6359 2.60432 46.8841 2.76869 46.8841 2.9745C46.8841 3.18032 46.8841 2.81013 47.3362 2.81013C47.7875 2.81013 48.1995 2.68581 48.3239 3.13888C48.4454 3.5901 48.5292 3.92023 48.5693 4.37191C48.6121 4.82314 48.6936 5.19332 48.8575 5.52207C49.0233 5.85036 49.2673 6.42498 49.2673 7.20633C49.2673 7.98768 49.5569 9.42515 49.6798 10.0836C49.8023 10.7411 51.2011 13.2882 51.2011 13.2882C51.2011 13.2882 53.3384 13.6998 54.3247 13.494C55.3123 13.2882 57.0375 13.6584 56.8336 14.5626C56.6282 15.4656 56.5053 18.1374 56.4224 20.2333C56.34 22.3292 56.0103 26.3967 55.682 27.8355C55.3524 29.2725 53.3384 33.0131 52.5166 33.6287C51.6961 34.2461 50.7899 34.6559 48.5292 35.7245C46.2676 36.7932 43.6362 37.9848 43.6362 37.9848C43.6362 37.9848 45.0345 39.9564 45.3628 40.0807C45.6911 40.2036 45.6511 39.7934 46.0608 39.9564C46.2648 40.0383 46.9743 40.3164 46.5236 40.1313C46.5227 40.1484 49.0002 40.7824 49.0002 40.7824C49.2374 40.7778 49.3847 40.735 49.3548 40.5945C49.2309 40.0208 49.8074 39.2814 50.0532 39.1156C50.3 38.9517 49.6835 39.8551 50.0532 40.2649C50.4243 40.6774 55.7387 39.1041 55.6392 39.3859C55.5407 39.6677 55.9274 39.6898 56.2663 39.4246C56.6024 39.1607 58.0104 38.2445 59.0137 38.2482C60.0197 38.2532 62.2957 38.454 62.9057 38.2316C63.5163 38.0101 66.2913 36.2987 67.2181 35.8461C68.1427 35.3912 71.3376 35.4349 72.6867 34.5274C74.0353 33.6185 77.0051 31.4918 78.2593 30.7178C79.5126 29.9443 88.8105 24.2612 90.7941 23.9522C92.7776 23.6433 97.532 21.7689 98.3465 21.1883C99.1615 20.609 101.724 19.1987 102.238 18.7567C102.752 18.3142 105.323 19.4377 106.662 21.342C106.662 21.342 109.275 20.0634 109.839 20.0146C110.402 19.9654 111.444 19.2402 112.243 18.6287C113.044 18.0159 115.453 16.3933 116.507 15.8799C116.507 15.8799 117.04 15.646 117.142 15.2722C117.244 14.8988 117.67 14.1851 118.053 14.3324C118.053 14.3324 118.892 13.2619 119.232 13.5842C119.232 13.5842 119.969 12.8871 120.392 13.2661C120.392 13.2661 120.809 13.3255 120.95 13.5502C120.95 13.5502 121.48 13.1224 121.726 13.447C121.726 13.447 122.109 13.0151 122.754 13.5221C122.754 13.5221 123.184 14.0506 122.394 15.0231C122.394 15.0231 121.898 15.2791 121.551 15.9923C121.207 16.706 120.244 18.0624 119.189 18.5937C118.131 19.1251 116.911 20.0584 116.956 21.9664C117.003 23.8763 116.189 26.096 114.184 25.5969C112.178 25.0978 110.42 25.7714 108.664 26.7268C108.664 26.7268 108.51 27.7351 108.341 27.9755C108.17 28.2149 107.385 28.1371 106.306 28.8135C105.227 29.488 104.569 29.7417 103.718 30.3776C102.866 31.0139 102.683 31.443 101.967 31.775C101.251 32.1102 100.447 33.0177 99.9719 33.5205C99.4949 34.0219 97.7402 35.2567 95.6664 36.2651C93.5907 37.2748 85.0608 40.3169 83.0888 41.916C81.1144 43.5151 77.4848 46.3799 71.9767 49.0743C71.7479 49.1853 71.5356 49.2939 71.3197 49.4012C70.9863 49.7051 66.2498 54.0359 64.6282 55.1686C62.9472 56.3422 62.2749 56.5103 61.7708 59.1955C61.4397 60.9654 60.0884 63.8224 59.1551 66.0978C58.9492 68.3125 58.8314 70.4637 58.7812 71.7745C58.7163 73.4694 56.5453 90.3239 56.0232 92.1468C55.4992 93.9724 55.3703 95.3412 55.6314 96.775C55.8924 98.206 55.2395 99.9009 54.4573 101.335C53.6722 102.768 52.3678 106.157 52.5631 108.112C52.7583 110.066 52.9549 110.784 52.3678 111.044C51.7794 111.303 49.8866 111.24 49.6264 111.892C49.3654 112.543 48.3865 112.543 48.3865 112.543C48.3865 112.543 48.0927 115.451 48.6047 115.963C49.1181 116.472 50.9285 118.614 48.7263 120.21C46.5217 121.808 44.1984 123.225 43.6565 124.34C43.1122 125.453 41.9045 126.088 41.4519 126.449C40.9993 126.809 40.1848 127.323 40.124 127.532C40.0646 127.744 39.4012 128.136 38.7662 127.956C38.7662 127.956 38.2234 128.195 37.6492 127.562C37.6492 127.562 36.7155 127.652 36.5331 127.051C36.5331 127.051 35.7481 127.11 35.6578 126.508C35.6578 126.508 35.2646 125.634 36.4424 125.274C37.6179 124.911 39.4905 122.288 39.5513 121.867C39.6107 121.446 40.4873 118.822 41.1508 117.739C41.8138 116.653 42.6891 113.821 42.8107 111.23C42.8107 111.23 42.5404 111.05 42.5404 110.78C42.5404 110.507 42.556 109.262 42.6868 108.785C42.8185 108.306 43.0786 106.917 42.9055 104.874C42.7305 102.834 43.1666 99.4888 42.9055 97.1862C42.644 94.8836 43.1408 78.8992 43.836 76.8139C44.5331 74.7286 44.7933 74.2516 44.7505 73.4256C44.7062 72.5996 44.7505 70.0797 45.0115 69.9503C45.2717 69.82 45.3154 66.6485 45.2288 66.2995C45.1409 65.9533 43.2697 64.6498 43.01 63.7372C43.01 63.7372 43.0528 64.6926 43.01 65.0402C42.9658 65.3883 42.9235 64.9537 42.2264 64.2142C41.5284 63.4748 40.2235 61.9116 40.1369 60.7817C39.9813 60.6979 38.053 59.5634 38.053 59.5634C37.8136 59.574 37.6943 59.4612 37.6363 59.3631Z" fill="#991B21"/>
<path d="M46.5314 40.1008C46.3339 43.6296 38.0503 59.7009 38.0503 59.7009C37.7607 61.1232 37.821 62.4506 37.9669 63.2398C38.3178 65.1327 36.5626 67.9717 36.5626 67.9717L38.4743 68.9736C41.056 67.4827 39.9486 63.0119 39.9486 63.0119C39.735 62.2121 39.7157 61.4418 39.8248 60.7185L39.845 60.7392C39.845 60.7392 49.2397 42.1907 48.7848 40.7298C48.7834 40.7321 47.6636 40.5714 46.5314 40.1008Z" fill="black"/>
</svg>
