<svg width="128" height="128" viewBox="0 0 128 128" fill="none" xmlns="http://www.w3.org/2000/svg">
<path d="M96.8641 5.66282H16.5492C11.1597 5.66282 6.78564 10.0759 6.78564 15.4264V104.001C6.78564 109.391 11.1988 113.765 16.5492 113.765H69.4676C68.8818 87.4422 77.8642 36.3594 96.8836 5.58472L96.8641 5.66282Z" fill="#0F80CC"/>
<path d="M93.935 8.53333H16.5492C12.7219 8.53333 9.61707 11.6577 9.61707 15.4654V97.5768C27.1524 90.84 53.4554 85.0404 71.6546 85.3138C77.2652 59.2257 84.7171 33.568 93.9545 8.53333H93.935Z" fill="url(#paint0_linear)"/>
<path d="M115.61 2.77283C110.103 -2.10894 103.445 -0.156235 96.8641 5.66283L93.935 8.51379C82.6874 20.4253 72.4552 42.53 69.0185 59.4209C70.2429 62.096 71.2106 64.8813 71.9085 67.7394L72.3381 69.6921L72.7677 71.6839C72.7677 71.6839 72.67 71.2933 72.26 70.1217L71.9866 69.3406C71.9317 69.196 71.8731 69.0527 71.8108 68.911C71.0688 67.2122 69.077 63.5997 68.1593 62.0375C67.4488 64.1139 66.7783 66.2036 66.148 68.3057C68.7256 73.0313 70.2877 81.1155 70.2877 81.1155C70.2877 81.1155 70.151 80.5882 69.5066 78.7722C68.9208 77.1515 66.0699 72.133 65.4059 70.9614C64.2343 75.2573 63.7852 78.1474 64.1953 78.8503C64.9764 80.2172 65.7574 82.7557 66.4409 85.1771C67.4954 89.4711 68.3555 93.8105 69.0185 98.1821L69.1161 99.3928C68.9137 104.276 69.0115 109.167 69.409 114.038C69.9167 120.15 70.8735 125.403 72.0842 128.215L72.9043 127.766C71.1469 122.22 70.4049 114.975 70.7173 106.598C71.2055 93.8081 74.1345 78.3817 79.5826 62.3109C88.8189 37.8435 101.551 18.3554 113.228 9.06055C102.586 18.6679 88.194 49.755 83.8981 61.2564C79.0749 74.1443 75.6577 86.2511 73.5878 97.8307C77.1417 86.9736 88.6236 82.2871 88.6236 82.2871C88.6236 82.2871 94.2865 75.3354 100.848 65.3962L88.2526 68.7548L84.191 70.5513C84.191 70.5513 94.5403 64.2441 103.464 61.3736C115.708 42.1004 129.045 14.7039 115.61 2.7533" fill="#003B57"/>
</svg>
