<svg width="128" height="128" viewBox="0 0 128 128" fill="none" xmlns="http://www.w3.org/2000/svg">
<path d="M0 18V51.567C17.2961 44.3651 40.4065 37.1267 69.4895 29.8234C88.1253 25.1504 106.136 21.2213 123.532 18H0ZM127.971 25.1574C111.107 27.6638 95.9825 30.6132 82.6715 33.9454C67.4339 37.7731 55.1667 41.6422 45.8887 45.5878C36.5988 49.462 32.2833 52.5958 32.8876 55.0097C33.4325 57.1412 37.3232 58.109 44.575 57.9091C48.3072 57.8381 54.3508 57.4277 62.74 56.6858C71.1291 55.944 81.9607 54.8713 95.2197 53.4696C108.362 52.1129 119.248 51.1951 127.971 50.6612V25.1569V25.1574ZM90.5088 67.7389C86.7761 67.7859 81.6377 68.0713 75.0612 68.5542C68.4617 69.0491 60.2965 69.7614 50.5092 70.7737C35.3186 72.3993 22.6749 73.6641 12.6387 74.4884C7.82475 74.8948 3.64169 75.1472 0 75.3492V102.575C19.933 99.6602 37.965 96.1865 54.0424 92.1554C69.8374 88.1983 81.9772 84.3372 90.5088 80.604C99.0518 76.8708 103.041 73.7035 102.377 71.1361C101.82 68.9226 97.8196 67.7979 90.5088 67.7389ZM127.971 77.2967C110.455 84.1587 88.7152 90.8887 62.74 97.4102C38.5564 103.474 17.6665 107.812 0 110.502V110.728H127.971V77.2972V77.2967ZM5.3453 83.0055C5.41029 82.9955 5.46028 83.005 5.52676 83.0055C5.85719 83.0165 6.21011 83.1204 6.43256 83.3679C6.77249 83.7178 6.86047 84.2782 6.65901 84.7266C6.44006 85.243 5.85869 85.5544 5.29981 85.4514C4.68345 85.3619 4.20556 84.7566 4.25805 84.1377C4.27604 83.5558 4.76993 83.0779 5.3453 83.0055ZM9.87529 83.0055C10.1642 83.017 10.4327 83.0754 10.6451 83.2774C11.047 83.6073 11.205 84.2002 11.008 84.6816C10.8231 85.1765 10.3172 85.5434 9.78481 85.4969C9.32741 85.4779 8.87751 85.193 8.69755 84.7721C8.44861 84.2247 8.65156 83.4844 9.19594 83.1864C9.40102 83.0638 9.63638 83.0011 9.87529 83.0055ZM5.52626 91.0237C6.06614 91.0062 6.54853 91.3861 6.7045 91.884C6.86946 92.4384 6.60652 93.1352 6.07014 93.3786C5.53126 93.6496 4.82342 93.4781 4.4845 92.9712C4.13957 92.4763 4.18756 91.73 4.66596 91.3406C4.90292 91.1306 5.21021 91.0175 5.52676 91.0237H5.52626ZM9.87529 91.0237C10.3047 91.0002 10.6861 91.2716 10.9171 91.6125C11.2505 92.1319 11.111 92.8813 10.6001 93.2432C10.0877 93.6331 9.28692 93.5676 8.87851 93.0617C8.45711 92.5598 8.4846 91.7045 9.01448 91.2951C9.24443 91.1052 9.57536 91.0142 9.87529 91.0237Z" fill="#809CC8"/>
</svg>
