<svg width="64" height="64" viewBox="0 0 64 64" fill="#FF5722" xmlns="http://www.w3.org/2000/svg">
    <path d="M39.448 4C67.584 22.776 58.46 43.408 58.46 43.408C58.46 43.408 66.452 52.252 63.24 60C63.24 60 59.924 54.588 54.42 54.588C49.1 54.588 45.952 60 35.212 60C11.324 60 0 40.424 0 40.424C21.528 54.344 36.236 44.48 36.236 44.48C26.516 38.968 5.9 12.572 5.9 12.572C23.872 27.576 31.628 31.516 31.628 31.516C26.964 27.772 13.968 9.424 13.968 9.424C24.368 19.74 45.04 34.124 45.04 34.124C50.968 18.228 39.448 4 39.448 4Z"/>
</svg>
