<svg width="128" height="128" viewBox="0 0 128 128" fill="none" xmlns="http://www.w3.org/2000/svg">
<path d="M64.0071 128L81.9141 26.8586C98.9827 26.8586 104.366 28.7382 105.144 36.4106C105.144 36.4106 116.594 32.123 122.369 23.415C99.8332 12.9277 77.19 12.4547 77.19 12.4547L63.9773 28.6166L64.0071 28.6146L50.7944 12.4522C50.7944 12.4522 28.1507 12.9257 5.61804 23.413C11.388 32.121 22.8426 36.4086 22.8426 36.4086C23.6245 28.7357 29.0017 26.856 45.9557 26.8439L64.0071 128" fill="#CC0000"/>
<path d="M64 7.78639C82.2169 7.64648 103.068 10.6166 124.414 19.9597C127.267 14.8028 128 12.5236 128 12.5236C104.666 3.25244 82.8146 0.0795875 63.9975 0C45.1814 0.0795875 23.3307 3.25295 0 12.5236C0 12.5236 1.04082 15.331 3.58382 19.9597C24.9252 10.6166 45.78 7.64648 63.9975 7.78639H64Z" fill="#CC0000"/>
</svg>
