<svg width="64" height="64" viewBox="0 0 64 64" fill="none" xmlns="http://www.w3.org/2000/svg">
<path d="M0 25.2749V29.0065H11.9044V62.8882H20.3519V29.0065H32.2563V25.3436C32.2563 23.2832 32.2563 21.612 32.1647 21.5663C32.1647 21.4976 24.9076 21.4747 16.0938 21.4747L0.0686798 21.5434V25.2978L0 25.2749V25.2749ZM53.501 21.4518C55.8361 22.0012 57.6218 23.0543 59.2243 24.7255C60.0713 25.6412 61.3304 27.2437 61.422 27.6558C61.422 27.7932 57.4615 30.4716 55.0577 31.9597C54.9662 32.0284 54.5999 31.6392 54.2336 31.044C53.0432 29.3499 51.8298 28.6173 49.9297 28.48C47.1825 28.2968 45.3511 29.7391 45.3511 32.1428C45.3511 32.8754 45.4885 33.2875 45.7632 33.8827C46.3813 35.1418 47.5259 35.8973 51.0744 37.454C57.6218 40.2699 60.4605 42.1242 62.1775 44.7798C64.1234 47.7559 64.5583 52.4261 63.2534 55.9287C61.7883 59.7518 58.217 62.3388 53.1118 63.1858C51.5093 63.4605 47.8464 63.4147 46.1295 63.1171C42.4666 62.4303 38.9639 60.5989 36.812 58.2409C35.965 57.3252 34.3396 54.8756 34.4311 54.7154L35.3011 54.1659L38.735 52.1743L41.3219 50.6633L41.9171 51.4646C42.6726 52.655 44.3667 54.2575 45.3511 54.807C48.3272 56.3408 52.3106 56.1348 54.2794 54.3491C55.1264 53.5707 55.4927 52.7466 55.4927 51.6019C55.4927 50.5488 55.3325 50.0681 54.8059 49.2668C54.0733 48.2595 52.6082 47.4354 48.4874 45.6039C43.7486 43.5894 41.734 42.3074 39.8568 40.3386C38.7808 39.1481 37.7964 37.2938 37.3385 35.7599C36.9951 34.4321 36.8807 31.1813 37.2012 29.8764C38.1856 25.2978 41.6424 22.0928 46.5873 21.1771C48.1898 20.8566 51.9672 20.9939 53.5468 21.406L53.501 21.4518V21.4518Z" fill="#235A97"/>
</svg>
