<svg width="64" height="64" viewBox="0 0 64 64" fill="none" xmlns="http://www.w3.org/2000/svg">
<path d="M0 15.2749V19.0065H11.9044V52.8882H20.3519V19.0065H32.2563V15.3436C32.2563 13.2832 32.2563 11.612 32.1647 11.5663C32.1647 11.4976 24.9076 11.4747 16.0938 11.4747L0.0686798 11.5434V15.2978L0 15.2749V15.2749ZM53.501 11.4518C55.8361 12.0012 57.6218 13.0543 59.2243 14.7255C60.0713 15.6412 61.3304 17.2437 61.422 17.6558C61.422 17.7932 57.4615 20.4716 55.0577 21.9597C54.9662 22.0284 54.5999 21.6392 54.2336 21.044C53.0432 19.3499 51.8298 18.6173 49.9297 18.48C47.1825 18.2968 45.3511 19.7391 45.3511 22.1428C45.3511 22.8754 45.4885 23.2875 45.7632 23.8827C46.3813 25.1418 47.5259 25.8973 51.0744 27.454C57.6218 30.2699 60.4605 32.1242 62.1775 34.7798C64.1234 37.7559 64.5583 42.4261 63.2534 45.9287C61.7883 49.7518 58.217 52.3388 53.1118 53.1858C51.5093 53.4605 47.8464 53.4147 46.1295 53.1171C42.4666 52.4303 38.9639 50.5989 36.812 48.2409C35.965 47.3252 34.3396 44.8756 34.4311 44.7154L35.3011 44.1659L38.735 42.1743L41.3219 40.6633L41.9171 41.4646C42.6726 42.655 44.3667 44.2575 45.3511 44.807C48.3272 46.3408 52.3106 46.1348 54.2794 44.3491C55.1264 43.5707 55.4927 42.7466 55.4927 41.6019C55.4927 40.5488 55.3325 40.0681 54.8059 39.2668C54.0733 38.2595 52.6082 37.4354 48.4874 35.6039C43.7486 33.5894 41.734 32.3074 39.8568 30.3386C38.7808 29.1481 37.7964 27.2938 37.3385 25.7599C36.9951 24.4321 36.8807 21.1813 37.2012 19.8764C38.1856 15.2978 41.6424 12.0928 46.5873 11.1771C48.1898 10.8566 51.9672 10.9939 53.5468 11.406L53.501 11.4518V11.4518Z" fill="#235A97"/>
</svg>
