<svg width="128" height="128" viewBox="0 0 128 128" fill="#235A97" xmlns="http://www.w3.org/2000/svg">
    <path fill-rule="evenodd" clip-rule="evenodd" d="M0 0V64V128H128V0H0ZM28.064 69.44V64.224L28.16 64.256V59.008L50.56 58.912C62.88 58.912 73.024 58.944 73.024 59.04C73.152 59.104 73.152 61.44 73.152 64.32V69.44H56.512V116.8H44.704V69.44H28.064ZM110.848 63.456C108.608 61.12 106.112 59.648 102.848 58.88L102.912 58.816C100.704 58.24 95.4241 58.048 93.1841 58.496C86.2721 59.776 81.4401 64.256 80.0641 70.656C79.6161 72.48 79.7761 77.024 80.2561 78.88C80.8961 81.024 82.2721 83.616 83.7761 85.28C86.4001 88.0321 89.2161 89.8241 95.8401 92.6401C101.6 95.2001 103.648 96.3521 104.672 97.7601C105.408 98.8801 105.632 99.5521 105.632 101.024C105.632 102.624 105.12 103.776 103.936 104.864C101.184 107.36 95.6161 107.648 91.4561 105.504C90.0801 104.736 87.7121 102.496 86.6561 100.832L85.8241 99.7121L82.2081 101.824L77.4081 104.608L76.1921 105.376C76.064 105.6 78.3361 109.024 79.5201 110.304C82.5281 113.6 87.4241 116.16 92.5441 117.12C94.9441 117.536 100.064 117.6 102.304 117.216C109.44 116.032 114.432 112.416 116.48 107.072C118.304 102.176 117.696 95.6481 114.976 91.4881C112.576 87.776 108.608 85.184 99.4561 81.248C94.4961 79.072 92.8961 78.016 92.0321 76.256C91.6481 75.424 91.4561 74.848 91.4561 73.824C91.4561 70.464 94.0161 68.448 97.8561 68.704C100.512 68.896 102.208 69.92 103.872 72.288C104.384 73.12 104.896 73.664 105.024 73.568C108.384 71.488 113.92 67.744 113.92 67.552C113.792 66.976 112.032 64.736 110.848 63.456Z" />
</svg>
