<svg width="128" height="128" viewBox="0 0 128 128" fill="none" xmlns="http://www.w3.org/2000/svg">
<path d="M63.5455 128L62.6364 127.727C62 127.545 47.8182 122.545 33.8182 110.455C16.8182 95.8182 15 73.7273 15 64.9091V10.3636L16.6364 9.54546C30 3 44.9091 0 63.5455 0C82.1818 0 97.0909 3 110.455 9.54546L112.091 10.3636V64.9091C112.091 73.7273 110.273 95.8182 93.2727 110.455C79.2727 122.545 65 127.455 64.4546 127.727L63.5455 128Z" fill="#007D43"/>
<path d="M63.5454 5.72729C46.5454 5.72729 32.8182 8.36366 20.6364 13.9091V49.6364C25.6364 46.7273 29.8182 43.2728 33 39.5455C36.8182 43.9091 42 48 48.2727 51.1818C54.5454 47.9091 59.7273 43.9091 63.5454 39.5455C67.3636 43.9091 72.5454 48 78.8182 51.1818C85.0909 47.9091 90.2727 43.9091 94 39.5455C97.1818 43.2728 101.364 46.7273 106.364 49.6364V13.9091C94.2727 8.27275 80.5454 5.72729 63.5454 5.72729ZM85.1818 34.0909C80.3636 34.0909 76.9091 33.3637 72.0909 32.3637C71.1818 32.1819 70.3636 32.0909 69.5454 32.0909C67.6364 32.0909 66 32.5455 64.6364 33.1819C64.2727 33.3637 63.9091 33.5455 63.5454 33.8182C63.1818 33.6364 62.8182 33.3637 62.4545 33.1819C61.0909 32.5455 59.4545 32.0909 57.5454 32.0909C56.7273 32.0909 55.9091 32.1819 55 32.3637C50.1818 33.3637 46.7273 34.0909 41.9091 34.0909C41.1818 34.0909 40.5454 34.0909 39.7273 34.0909L41.2727 17.7273C42.0909 17.7273 42.7273 17.8182 43.4545 17.8182L43.8182 12.7273L45.2727 12.8182C45.8182 12.8182 46.3636 12.8182 46.9091 12.8182C48.6364 12.8182 50.0909 12.6364 51.7273 12.2728C52.7273 12.0909 53.8182 11.8182 55 11.4546C55.5454 11.2728 56.0909 11.1819 56.7273 11C58.9091 10.4546 60.8182 10.7273 62.6364 11.8182C63 12 63.2727 12.2727 63.6364 12.4546C64 12.1818 64.2727 12 64.6364 11.8182C66.3636 10.8182 68.4545 10.5455 70.4545 11.0909C71.0909 11.2727 71.7273 11.4546 72.2727 11.5455C73.4545 11.8182 74.4545 12.0909 75.4545 12.3637C77.6364 12.8182 79.4545 12.9091 81.8182 12.8182L83.2727 12.7273L83.6364 17.8182C84.3636 17.8182 85 17.8182 85.8182 17.7273L87.3636 34.0909C86.6363 34.0909 85.9091 34.0909 85.1818 34.0909Z" fill="#FFF1C0"/>
<path d="M56.0909 27.6364H56C52 28.6364 49.3636 29.2728 45.5454 29.2728L46.6363 15.7273C48.6363 15.7273 50.3636 15.5455 52.3636 15.1819C53.4545 14.9091 54.5454 14.6364 55.7272 14.3637C56.2727 14.1819 56.8181 14.091 57.4545 13.9091C58.7272 13.5455 60 13.7273 61.0909 14.3637C61.5454 14.6364 61.8181 14.8183 62.0909 15.091V27.9091C60.0909 27.2728 58 27.1819 56.0909 27.6364Z" fill="white"/>
<path d="M71 27.6364C69 27.0909 67 27.1818 65.0909 27.9091V15.1818C65.3637 14.9091 65.7273 14.6364 66.0909 14.4546C67.1819 13.8182 68.4546 13.6364 69.7273 14C70.3637 14.1818 70.9091 14.3637 71.5455 14.4546C72.7273 14.8182 73.8182 15.0909 74.9091 15.2728C76.7273 15.6364 78.4546 15.8182 80.3637 15.8182C80.4546 15.8182 80.5455 15.8182 80.6364 15.8182L81.7273 29.3637C77.6364 29.3637 75 28.6364 71 27.6364Z" fill="white"/>
<path d="M63.5454 56.6364C69.0909 55.3636 74.2727 53.4546 78.8182 51.1818C72.5454 47.9091 67.3636 43.9091 63.5454 39.5455C59.7273 43.9091 54.5454 48 48.2727 51.1818C52.8182 53.4546 58 55.3636 63.5454 56.6364Z" fill="#49965F"/>
<path d="M33.0909 56.6364C37.9091 57.7273 43 58.3637 48.3637 58.3637C53.7273 58.3637 58.8182 57.7273 63.5455 56.6364C58 55.3637 52.8182 53.4546 48.2728 51.1819C43.7273 53.4546 38.6364 55.3637 33.0909 56.6364Z" fill="#05894F"/>
<path d="M63.5455 56.6364C68.2728 57.7273 73.3637 58.3637 78.7273 58.3637C84.091 58.3637 89.1819 57.7273 94.0001 56.6364C88.4546 55.3637 83.3637 53.4546 78.8183 51.1819C74.1819 53.4546 69.091 55.3637 63.5455 56.6364Z" fill="#05894F"/>
<path d="M20.6364 58.2728C25 58.091 29.0909 57.5455 33.0909 56.6364C28.6364 55.6364 24.4545 54.1819 20.6364 52.4546V58.2728Z" fill="#3D925A"/>
<path d="M20.6364 49.5455V52.4545C24.4545 54.1818 28.6364 55.6364 33.0909 56.6364C38.6364 55.3636 43.7273 53.4546 48.2727 51.1818C42 47.9091 36.8182 43.9091 33 39.5455C29.8182 43.1818 25.6364 46.6364 20.6364 49.5455Z" fill="#7DAB76"/>
<path d="M106.364 52.4546C102.545 54.1819 98.3636 55.6364 93.9091 56.6364C97.8181 57.5455 102 58.091 106.364 58.2728V52.4546Z" fill="#3D925A"/>
<path d="M106.364 52.4546V49.5455C101.364 46.6364 97.1819 43.1819 94.0001 39.4546C90.1819 43.8182 85.0001 47.9091 78.8182 51.0909C83.3637 53.4546 88.4546 55.2728 94.0001 56.5455C98.4546 55.6364 102.546 54.1819 106.364 52.4546Z" fill="#7DAB76"/>
<path d="M101.182 66C98.9091 64.5455 96.8182 63.1818 94 63.1818C91.1818 63.1818 89.0909 64.5455 86.8182 66C84.4545 67.4546 82.0909 69 78.8182 69C75.5455 69 73.0909 67.4546 70.8182 66C68.5455 64.5455 66.4545 63.1818 63.6364 63.1818C60.8182 63.1818 58.7273 64.5455 56.4545 66C54.0909 67.4546 51.6364 69 48.4545 69C45.1818 69 42.8182 67.4546 40.4545 66C38.1818 64.5455 36.0909 63.1818 33.2727 63.1818C30.4545 63.1818 28.3636 64.5455 26.0909 66C24.5455 67 22.9091 68 21 68.5455C21.0909 70.7273 21.3636 73.1818 21.8182 76C23.1818 75.4546 24.3636 74.6364 25.5455 73.9091C27.8182 72.4545 30.1818 71 33.1818 71C36.1818 71 38.5455 72.4545 40.8182 73.9091C43.1818 75.3636 45.3636 76.8182 48.3636 76.8182C51.3636 76.8182 53.5455 75.4545 55.9091 73.9091C58.1818 72.4545 60.5455 71 63.5455 71C66.5455 71 68.9091 72.4545 71.1818 73.9091C73.5455 75.3636 75.7273 76.8182 78.7273 76.8182C81.7273 76.8182 83.9091 75.4545 86.2727 73.9091C88.5455 72.4545 90.9091 71 93.9091 71C97 71 99.2727 72.4545 101.545 73.9091C102.727 74.6364 104 75.4546 105.273 76C105.727 73.2727 106 70.7273 106.091 68.5455C104.364 68.0909 102.818 67 101.182 66Z" fill="#FFDC09"/>
<path d="M67.9091 120.091V116.727L63.9091 120.636L60.5454 117.364V112.273L63.9091 115.546L67.9091 111.546V105.909L63.9091 109.818L60.5454 106.546V101.273L63.9091 104.546L67.9091 100.546V94.4546L63.9091 98.3637L60.5454 95.091V90.091L63.9091 93.1819L69.6363 87.6364L63.5454 82.4546L56.9091 88.2728V119C60 120.546 62.3636 121.455 63.5454 122C64.4545 121.636 66 121 67.9091 120.091Z" fill="#FFEB98"/>
<path d="M52.7273 106.546L48.7273 110.636L45.3637 107.182V101.818L48.7273 105.182L52.7273 101.182V94.8182L48.7273 98.8182L45.3637 95.4546V90.091L48.7273 93.1819L54.4546 87.6364L48.3637 82.4546L41.7273 88.2728V109.546C45.6364 112.455 49.3637 114.909 52.7273 116.727V106.546Z" fill="#FFEB98"/>
<path d="M79.0909 93.2728L84.8182 87.7274L78.7273 82.5455L72.0909 88.3637V118.091C75.3637 116.364 79.0909 114.182 83.0909 111.273V106.546L79.0909 110.636L75.7273 107.182V101.818L79.0909 105.182L83.0909 101.182V94.8183L79.0909 98.8183L75.7273 95.4546V90.091L79.0909 93.2728Z" fill="#FFEB98"/>
<path d="M94.3637 93.2728L100.091 87.7274L94 82.5455L87.3636 88.3637V108.091C88.0909 107.455 88.8182 106.909 89.6364 106.273C93.2727 103.091 96.1818 99.5455 98.4546 95.8183V94.9092L94.4546 98.9092L91.0909 95.5455V90.1819L94.3637 93.2728Z" fill="#FFEB98"/>
<path d="M33.4545 93.2728L39.1817 87.7274L33.0908 82.5455L26.4545 88.3637V91.6364C28.909 96.8183 32.4545 101.909 37.4545 106.182V94.9092L33.4545 98.9092L30.0908 95.5456V90.1819L33.4545 93.2728Z" fill="#FFEB98"/>
</svg>
