<svg width="129" height="128" viewBox="0 0 129 128" fill="none" xmlns="http://www.w3.org/2000/svg">
    <path d="M64.1087 0L120.674 32V96L64.1087 128L7.54346 96V32L64.1087 0Z" fill="white"/>
    <path d="M110.573 93.7919L65.9755 119.019V99.3706L93.7622 84.0853L110.573 93.7919ZM113.624 91.0293V38.272L97.3036 47.6906V81.5999L113.624 91.0293ZM17.4635 93.7919L62.0609 119.019V99.3706L34.2742 84.0853L17.4635 93.7919ZM14.4128 91.0293V38.272L30.7329 47.6906V81.5999L14.4128 91.0293ZM16.3222 34.8586L62.0609 8.98132V27.9786L32.7595 44.096L32.5355 44.224L16.3222 34.8586ZM111.714 34.8586L65.9755 8.98132V27.9786L95.2769 44.096L95.5009 44.224L111.714 34.8586Z" fill="#8ED6FB"/>
    <path d="M62.0608 94.9013L34.6475 79.8293V49.9627L62.0608 65.792V94.9013ZM65.9754 94.9013L93.3887 79.8293V49.9627L65.9754 65.792V94.9013ZM36.5035 46.5067L64.0234 31.3707L91.5434 46.5067L64.0234 62.4L36.5035 46.5067Z" fill="#1C78C0"/>
</svg>
