<svg width="128" height="127" viewBox="0 0 128 127" fill="none" xmlns="http://www.w3.org/2000/svg">
<g clip-path="url(#clip0)">
<path d="M64 0L120.565 32V96L64 128L7.43469 96V32L64 0Z" fill="white"/>
<path d="M110.464 93.792L65.8667 119.019V99.3706L93.6534 84.0853L110.464 93.792ZM113.515 91.0293V38.272L97.1947 47.6907V81.6L113.515 91.0293ZM17.3547 93.792L61.952 119.019V99.3706L34.1654 84.0853L17.3547 93.792V93.792ZM14.304 91.0293V38.272L30.624 47.6907V81.6L14.304 91.0293V91.0293ZM16.2133 34.8587L61.952 8.98135V27.9787L32.6507 44.096L32.4267 44.224L16.2133 34.8587V34.8587ZM111.605 34.8587L65.8667 8.98135V27.9787L95.1681 44.096L95.3921 44.224L111.605 34.8587V34.8587Z" fill="#8ED6FB"/>
<path d="M61.952 94.9013L34.5387 79.8293V49.9627L61.952 65.792V94.9013ZM65.8667 94.9013L93.28 79.8293V49.9627L65.8667 65.792V94.9013ZM36.3947 46.5067L63.9147 31.3707L91.4346 46.5067L63.9147 62.4L36.3947 46.5067" fill="#1C78C0"/>
</g>
<defs>
<clipPath id="clip0">
<rect width="128" height="128" fill="white"/>
</clipPath>
</defs>
</svg>
