<svg width="128" height="128" viewBox="0 0 128 128" fill="none" xmlns="http://www.w3.org/2000/svg">
    <circle cx="44.145" cy="99.1449" r="14" transform="rotate(0.596177 44.145 99.1449)" fill="white"/>
    <circle cx="84.145" cy="29.1449" r="14" transform="rotate(0.596177 84.145 29.1449)" fill="white"/>
    <path d="M72.1 22L95.73 37L56.86 105L32.76 91L72.1 22Z" fill="white"/>
    <circle cx="18.145" cy="59.1449" r="14" transform="rotate(0.596177 18.145 59.1449)" fill="white"/>
    <circle cx="58.145" cy="-10.8551" r="14" transform="rotate(0.596177 58.145 -10.8551)" fill="white"/>
    <path d="M46.1 -18L69.73 -3L30.86 65L6.76001 51L46.1 -18Z" fill="white"/>
    <circle cx="70.145" cy="139.145" r="14" transform="rotate(0.596177 70.145 139.145)" fill="white"/>
    <circle cx="110.145" cy="69.1449" r="14" transform="rotate(0.596177 110.145 69.1449)" fill="white"/>
    <path d="M98.1 62L121.73 77L82.86 145L58.76 131L98.1 62Z" fill="white"/>
</svg>
