<svg width="128" height="128" viewBox="0 0 128 128" fill="none" xmlns="http://www.w3.org/2000/svg">
<path d="M96.485 94.8304C94.8837 94.8304 93.2441 94.7151 91.6315 94.4751C78.1132 92.5457 69.074 82.8369 64.0108 75.3734C58.9316 82.8368 49.893 92.5553 36.3808 94.4821C34.773 94.7123 33.1508 94.8277 31.5265 94.8275C23.122 94.8275 15.2321 91.6995 9.29737 86.0199C3.30607 80.2933 0 72.6088 0 64.4147C0 56.2103 3.30595 48.5363 9.30605 42.7993C15.2351 37.1189 23.1308 34 31.5389 34C33.1413 34 34.7724 34.1151 36.3796 34.3452C49.8921 36.2723 58.9304 45.9823 64.0099 53.4471C69.0741 45.9823 78.1126 36.2751 91.6297 34.3452C93.2423 34.1141 94.8733 34 96.4757 34C104.88 34 112.775 37.1269 118.704 42.7993C124.701 48.5363 128 56.2103 128 64.4147C128 72.6088 124.71 80.2933 118.713 86.0199C112.773 91.6993 104.89 94.8304 96.485 94.8304V94.8304ZM69.9964 64.4178C72.6364 69.4459 80.4245 81.9921 93.1548 83.8155C94.2692 83.9688 95.3911 84.054 96.484 84.054C107.919 84.054 117.228 75.2465 117.228 64.4148C117.228 53.5831 107.921 44.7757 96.4758 44.7757C95.3828 44.7757 94.2612 44.8538 93.1572 45.014C80.4247 46.833 72.6366 59.3793 69.9964 64.4178ZM31.5388 44.7786C20.0884 44.7786 10.7785 53.5856 10.7785 64.4177C10.7785 75.2475 20.0845 84.0569 31.5245 84.0569C32.6226 84.0569 33.7446 83.9715 34.8588 83.8184C47.5895 81.9953 55.3752 69.456 58.0168 64.4208C55.3824 59.3926 47.5893 46.8359 34.8588 45.023C33.7576 44.8566 32.6328 44.7786 31.5388 44.7786" fill="#008184"/>
<path d="M22.8528 61.4438H41.7853V67.5445H22.8528V61.4438ZM104.985 61.4438H98.5757V55.0249H92.4543V61.4438H86.0476V67.5445H92.4543V73.9622H98.5757V67.5445H104.985V61.4438Z" fill="#008184"/>
</svg>
