<svg width="128" height="128" viewBox="0 0 128 128" fill="none" xmlns="http://www.w3.org/2000/svg">
<g clip-path="url(#clip0)">
<path d="M120.761 38.0791C120.76 35.9269 120.3 34.0253 119.37 32.3934C118.457 30.7883 117.089 29.4435 115.254 28.3796C100.108 19.6383 84.9482 10.9236 69.8079 2.1733C65.7261 -0.18513 61.7683 -0.0993604 57.7167 2.29329C51.6884 5.85205 21.5065 23.1606 12.5128 28.3747C8.80915 30.5212 7.00667 33.8057 7.00578 38.0751C7 55.6547 7.00578 73.2334 7 90.8135C7.00089 92.9181 7.44129 94.7828 8.33009 96.3907C9.24378 98.0439 10.6307 99.4259 12.5079 100.514C21.5021 105.728 51.688 123.035 57.7149 126.595C61.7683 128.989 65.7261 129.074 69.8093 126.715C84.95 117.964 100.111 109.25 115.259 100.509C117.136 99.4211 118.523 98.0381 119.437 96.3862C120.324 94.7784 120.766 92.9137 120.766 90.8086C120.766 90.8086 120.766 55.6591 120.761 38.0791" fill="#A9B9CB"/>
<path d="M69.7053 2.28795C65.6301 -0.0647029 61.679 0.0210663 57.6341 2.40749C51.6155 5.95691 21.483 23.2205 12.5039 28.4213C8.80604 30.562 7.00667 33.8381 7.00578 38.0963C7 55.6301 7.00578 73.1635 7 90.6977C7.00089 92.797 7.4404 94.6568 8.32787 96.2602C9.24022 97.9094 10.625 99.2879 12.499 100.373C15.483 102.098 18.4692 103.819 21.4577 105.537L104.601 22.393C92.9679 15.6942 81.3312 9.0006 69.7053 2.28795Z" fill="#7F8B99"/>
<path d="M75.6402 56.431L93.3446 56.5558C93.3446 49.1793 85.8778 31.1144 64.4706 31.1144C50.8316 31.1144 32.4956 39.7855 32.4956 64.7155C32.4956 89.645 50.4703 97.7744 64.4706 97.7744C87.1426 97.7744 92.5611 82.0862 92.5611 73.2204L75.6708 72.2547C75.6708 72.2547 76.1228 82.5093 64.3804 82.5093C53.5415 82.5093 51.7328 69.2315 51.7328 64.7155C51.7328 57.8508 54.1739 46.831 64.3804 46.831C74.5874 46.831 75.6402 56.431 75.6402 56.431" fill="white"/>
</g>
<defs>
<clipPath id="clip0">
<rect width="113.766" height="128" fill="white" transform="translate(7)"/>
</clipPath>
</defs>
</svg>
