<svg width="128" height="128" viewBox="0 0 128 128" fill="none" xmlns="http://www.w3.org/2000/svg">
<g clip-path="url(#clip0)">
<path d="M38.9856 48.2791L63.2676 34.2598C63.5663 34.0873 63.9051 33.9965 64.25 33.9965C64.5949 33.9965 64.9337 34.0873 65.2324 34.2598L89.5145 48.2791C89.813 48.4516 90.061 48.6996 90.2334 48.9982C90.4058 49.2969 90.4967 49.6356 90.4968 49.9804V78.019C90.4968 78.7204 90.1219 79.3688 89.5145 79.7203L65.2324 93.7395C64.9337 93.912 64.5949 94.0028 64.25 94.0028C63.9051 94.0028 63.5663 93.912 63.2676 93.7395L38.9856 79.7203C38.6869 79.5478 38.439 79.2998 38.2665 79.0012C38.0941 78.7025 38.0033 78.3638 38.0032 78.019V49.9799C38.0037 49.278 38.3781 48.6301 38.9856 48.2786" fill="#8080F2"/>
<path d="M127.201 61.702L98.1574 11.1746C97.1025 9.34784 95.1537 8 93.044 8H34.9565C32.8468 8 30.897 9.34784 29.8421 11.1746L0.79915 61.5905C-0.255722 63.4178 -0.255722 65.724 0.79915 67.5513L29.8421 117.665C30.897 119.492 32.8468 120.425 34.9565 120.425H93.0435C95.1532 120.425 97.1025 119.52 98.1569 117.692L127.2 67.4973C128.256 65.671 128.256 63.5288 127.2 61.702H127.201ZM103.151 85.9991C103.151 86.7415 102.704 87.4289 102.06 87.8008L65.0654 109.145C64.7468 109.327 64.3861 109.423 64.019 109.423C63.6519 109.423 63.2912 109.327 62.9726 109.145L25.9491 87.8008C25.3057 87.4289 24.8552 86.742 24.8552 85.9986V43.3097C24.8552 42.5663 25.2992 41.8799 25.9431 41.5079L62.9361 20.1635C63.2545 19.9807 63.6152 19.8845 63.9823 19.8845C64.3494 19.8845 64.71 19.9807 65.0284 20.1635L102.054 41.5079C102.698 41.8799 103.151 42.5663 103.151 43.3097V85.9986V85.9991Z" fill="#4B32C3"/>
</g>
<defs>
<clipPath id="clip0">
<rect width="128" height="112.486" fill="white" transform="translate(0 8)"/>
</clipPath>
</defs>
</svg>
