<svg width="128" height="128" viewBox="0 0 128 128" fill="none" xmlns="http://www.w3.org/2000/svg">
<path d="M63.6667 64C63.6667 58.342 65.9143 52.9158 69.915 48.915C73.9158 44.9143 79.342 42.6667 85 42.6667C90.6579 42.6667 96.0842 44.9143 100.085 48.915C104.086 52.9158 106.333 58.342 106.333 64C106.333 69.6579 104.086 75.0842 100.085 79.0849C96.0842 83.0857 90.6579 85.3333 85 85.3333C79.342 85.3333 73.9158 83.0857 69.915 79.0849C65.9143 75.0842 63.6667 69.6579 63.6667 64V64Z" fill="#1ABCFE"/>
<path d="M21 106.667C21 101.009 23.2476 95.5825 27.2484 91.5817C31.2492 87.581 36.6754 85.3333 42.3333 85.3333H63.6667V106.667C63.6667 112.325 61.4191 117.751 57.4183 121.752C53.4175 125.752 47.9913 128 42.3333 128C36.6754 128 31.2492 125.752 27.2484 121.752C23.2476 117.751 21 112.325 21 106.667V106.667Z" fill="#0ACF83"/>
<path d="M63.6667 0V42.6667H85C90.6579 42.6667 96.0842 40.4191 100.085 36.4183C104.086 32.4175 106.333 26.9913 106.333 21.3333C106.333 15.6754 104.086 10.2492 100.085 6.24839C96.0842 2.24761 90.6579 0 85 0L63.6667 0Z" fill="#FF7262"/>
<path d="M21 21.3333C21 26.9913 23.2476 32.4175 27.2484 36.4183C31.2492 40.419 36.6754 42.6667 42.3333 42.6667H63.6667V-1.23978e-05H42.3333C36.6754 -1.23978e-05 31.2492 2.2476 27.2484 6.24838C23.2476 10.2492 21 15.6754 21 21.3333V21.3333Z" fill="#F24E1E"/>
<path d="M21 64C21 69.658 23.2476 75.0842 27.2484 79.085C31.2492 83.0857 36.6754 85.3333 42.3333 85.3333H63.6667V42.6667H42.3333C36.6754 42.6667 31.2492 44.9143 27.2484 48.9151C23.2476 52.9158 21 58.3421 21 64V64Z" fill="#A259FF"/>
</svg>
