<svg width="128" height="128" viewBox="0 0 128 128" fill="none" xmlns="http://www.w3.org/2000/svg">
<g clip-path="url(#clip0)">
<path d="M40.0234 73.7735L54.7434 28.4703H25.3031L40.0231 73.7735H40.0234Z" fill="#E24329"/>
<path d="M40.0234 73.7733L25.3031 28.47H4.67375L40.0234 73.7733Z" fill="#FC6D26"/>
<path d="M4.67376 28.47L0.200639 42.2375C0.00175049 42.8496 0.00172305 43.5089 0.200561 44.1209C0.399399 44.733 0.786895 45.2664 1.30751 45.6447L40.0234 73.7735L4.67345 28.4703L4.67376 28.47Z" fill="#FCA326"/>
<path d="M4.67375 28.4703H25.3031L16.4378 1.18437C15.9816 -0.219694 13.9953 -0.219381 13.5394 1.18437L4.67375 28.4703Z" fill="#E24329"/>
<path d="M40.0234 73.7733L54.7434 28.47H75.3731L40.0231 73.7733H40.0234Z" fill="#FC6D26"/>
<path d="M75.373 28.47L79.8461 42.2375C80.045 42.8496 80.045 43.5089 79.8461 44.121C79.6472 44.7331 79.2596 45.2664 78.7389 45.6447L40.0234 73.7735L75.373 28.4703V28.47Z" fill="#FCA326"/>
<path d="M75.3731 28.4703H54.7434L63.6091 1.18437C64.0653 -0.219694 66.0516 -0.219381 66.5075 1.18437L75.3731 28.4703Z" fill="#E24329"/>
</g>
<circle cx="87.6736" cy="41.3119" r="38.5492" fill="white"/>
<path d="M88.0002 0C65.9115 0 48 17.9084 48 40.0002C48 57.6736 59.4612 72.6672 75.3546 77.9565C77.3536 78.3266 78.0877 77.0887 78.0877 76.0321C78.0877 75.0784 78.0504 71.9272 78.0334 68.5849C66.9051 71.0046 64.5569 63.8654 64.5569 63.8654C62.7374 59.2418 60.1157 58.0127 60.1157 58.0127C56.4866 55.53 60.3892 55.5808 60.3892 55.5808C64.406 55.8631 66.5211 59.703 66.5211 59.703C70.0886 65.8182 75.8785 64.0501 78.1611 63.0284C78.52 60.4427 79.5568 58.6784 80.7006 57.6795C71.8163 56.6678 62.4764 53.238 62.4764 37.9111C62.4764 33.5442 64.039 29.9757 66.5979 27.1746C66.1826 26.1669 64.8135 22.0987 66.9854 16.5889C66.9854 16.5889 70.3443 15.5138 77.9883 20.6892C81.1788 19.8026 84.6007 19.3584 88.0002 19.3433C91.3996 19.3584 94.8241 19.8026 98.0208 20.6892C105.656 15.5138 109.01 16.5889 109.01 16.5889C111.187 22.0987 109.817 26.1669 109.402 27.1746C111.967 29.9757 113.519 33.5439 113.519 37.9111C113.519 53.2744 104.161 56.6574 95.2542 57.6475C96.6888 58.8889 97.9672 61.3233 97.9672 65.055C97.9672 70.4069 97.9207 74.7145 97.9207 76.0321C97.9207 77.0966 98.6407 78.3439 100.669 77.9511C116.553 72.6559 128 57.6676 128 40.0002C128 17.9084 110.091 0 88.0002 0Z" fill="#161614"/>
<path d="M62.9814 56.9812C62.8936 57.1798 62.5805 57.2394 62.296 57.1032C62.0058 56.9727 61.8426 56.7017 61.9368 56.5022C62.023 56.2976 62.3361 56.2405 62.6257 56.3779C62.9165 56.5081 63.0821 56.7817 62.9814 56.9812V56.9812ZM64.949 58.7368C64.7583 58.9137 64.3853 58.8315 64.1321 58.552C63.8705 58.2731 63.8216 57.9004 64.0151 57.7206C64.2118 57.544 64.5735 57.6265 64.8358 57.9057C65.0974 58.1878 65.1483 58.5583 64.9487 58.7371L64.949 58.7368ZM66.299 60.983C66.0536 61.1533 65.6527 60.9936 65.4052 60.6379C65.1602 60.2824 65.1602 59.8558 65.4105 59.6848C65.659 59.5138 66.0536 59.6676 66.3046 60.0205C66.5493 60.3822 66.5493 60.8088 66.2986 60.9833L66.299 60.983ZM68.5815 63.5846C68.3623 63.8261 67.8955 63.7615 67.5535 63.4315C67.204 63.109 67.1065 62.6513 67.3264 62.4094C67.5482 62.1672 68.0178 62.2353 68.3623 62.5625C68.7095 62.8844 68.8156 63.3455 68.5819 63.5846H68.5815ZM71.5317 64.463C71.4354 64.7761 70.9855 64.9185 70.5325 64.7855C70.0802 64.6484 69.784 64.2813 69.8753 63.9648C69.9694 63.6495 70.4212 63.5011 70.8776 63.6436C71.3294 63.78 71.6261 64.1443 71.532 64.463H71.5317ZM74.8897 64.8354C74.901 65.1654 74.5167 65.439 74.0411 65.4449C73.5627 65.4553 73.1759 65.1883 73.1709 64.8639C73.1709 64.5308 73.5464 64.2597 74.0245 64.2519C74.5001 64.2424 74.8897 64.5075 74.8897 64.8354V64.8354ZM78.1881 64.7089C78.2452 65.0308 77.9146 65.3615 77.4424 65.4493C76.9781 65.534 76.5483 65.3354 76.489 65.0164C76.4313 64.6864 76.7682 64.356 77.2316 64.2704C77.7047 64.1882 78.1279 64.3817 78.1881 64.7089" fill="#161614"/>
<rect x="28.2114" y="76.9499" width="38.7675" height="51.7961" transform="rotate(-45 28.2114 76.9499)" fill="white"/>
<path d="M105.397 81.7128L68.2852 44.603C66.1493 42.4657 62.6829 42.4657 60.5443 44.603L52.8378 52.3094L62.6138 62.0854C64.8856 61.3178 67.4907 61.8328 69.3016 63.6437C71.1211 65.4662 71.6325 68.0936 70.8462 70.3726L80.2676 79.7944C82.547 79.0091 85.177 79.5171 86.9976 81.3406C89.5419 83.884 89.5419 88.0062 86.9976 90.5512C84.4525 93.0966 80.3304 93.0966 77.784 90.5512C75.8702 88.6354 75.3974 85.8247 76.3662 83.467L67.58 74.6807L67.579 97.8024C68.2159 98.1174 68.7977 98.5334 69.3016 99.0343C71.846 101.578 71.846 105.7 69.3016 108.247C66.7566 110.791 62.6324 110.791 60.091 108.247C57.5467 105.7 57.5467 101.578 60.091 99.0346C60.7008 98.4246 61.4254 97.9414 62.223 97.6132V74.276C61.4242 73.9499 60.6992 73.4665 60.091 72.8546C58.1633 70.9294 57.6997 68.1009 58.6875 65.7338L49.0506 56.0959L23.6037 81.5412C21.4654 83.6805 21.4654 87.1472 23.6037 89.2848L60.7162 126.395C62.8529 128.533 66.3186 128.533 68.4579 126.395L105.397 89.4572C107.534 87.3189 107.534 83.8501 105.397 81.7128" fill="#DE4C36"/>
<defs>
<clipPath id="clip0">
<rect width="80" height="73.76" fill="white"/>
</clipPath>
</defs>
</svg>
