<svg width="128" height="128" viewBox="0 0 128 128" fill="none" xmlns="http://www.w3.org/2000/svg">
<path d="M67.3591 39.5964C66.9541 39.8964 67.4603 40.7964 68.4728 41.4964C69.789 42.5964 69.1815 42.4964 65.7392 41.3964C59.8669 39.3964 53.5896 39.3964 52.7796 41.4964C51.5647 44.5964 54.6021 51.0964 59.6644 56.0964C64.8279 61.1964 64.6254 61.3964 58.7532 57.1964C55.2096 54.5964 51.4634 48.2964 51.4634 44.8964C51.4634 40.5964 34.9603 42.9964 21.5958 49.2964C14.8123 52.4964 -0.77958 62.6964 0.0303896 63.3964C0.232882 63.5964 2.15656 63.3964 4.38397 62.8964C15.4198 60.2964 27.5693 62.5964 33.7454 68.3964L37.289 71.5964V67.2964V62.8964H42.8575H48.4261L50.7547 67.4964L53.1846 72.1964L55.9183 67.4964C58.6519 62.8964 58.6519 62.8964 64.1192 62.8964H69.6878V71.9964V81.0964L72.7251 78.0964C75.8638 74.8964 77.3825 74.4964 87.2033 73.3964C92.3669 72.7964 92.9744 72.4964 92.4681 70.8964C91.7594 68.6964 93.8856 67.9964 109.68 64.8964C115.249 63.7964 121.02 62.3964 122.437 61.7964C125.171 60.6964 129.119 54.0964 127.702 52.8964C125.879 51.1964 112.009 46.4964 101.378 43.7964C86.1909 39.9964 69.0803 37.8964 67.3591 39.5964ZM64.3217 47.0964C66.3466 48.2964 67.3591 49.4964 66.9541 50.3964C66.6504 51.1964 66.0429 51.5964 65.5367 51.2964C64.5242 50.6964 64.8279 53.7964 65.9416 55.5964C67.7641 58.4964 64.5242 56.5964 60.6768 52.3964C56.0195 47.3964 55.0071 43.2964 58.8544 44.3964C60.0694 44.7964 62.4993 45.9964 64.3217 47.0964ZM98.5429 49.3964C102.593 50.5964 102.593 50.5964 99.7579 51.3964C95.9105 52.3964 90.5445 51.1964 88.4183 48.8964C86.6971 46.9964 86.7984 46.9964 90.5445 47.5964C92.7719 47.8964 96.3155 48.6964 98.5429 49.3964ZM92.9744 64.7964C91.0507 65.8964 89.127 67.7964 88.8233 68.9964C88.1146 71.2964 88.1146 71.1964 88.0133 68.5964C87.9121 66.3964 88.5195 65.4964 91.2532 64.3964C95.9105 62.3964 97.1255 62.6964 92.9744 64.7964Z" fill="#880000"/>
<path d="M48.4261 82.0964V88.8964H53.4884H58.5507V82.0964C58.4494 75.0964 58.1457 74.9964 54.3996 80.8964C53.5896 82.1964 53.3871 82.1964 52.5771 80.8964C48.831 74.9964 48.5273 75.0964 48.4261 82.0964Z" fill="#880000"/>
</svg>
