<svg width="128" height="128" viewBox="0 0 128 128" fill="none" xmlns="http://www.w3.org/2000/svg">
<path d="M127.479 72.1516C129.091 59.5964 126.944 46.845 121.309 35.5101C115.674 24.1751 106.804 14.7658 95.8217 8.47185C84.839 2.17794 72.2365 -0.717768 59.608 0.150911C46.9795 1.01959 34.8922 5.61364 24.8747 13.3521C14.8572 21.0905 7.35949 31.6258 3.32971 43.6255C-0.700074 55.6253 -1.08091 68.5506 2.23536 80.7668C5.55164 92.983 12.4161 103.941 21.9605 112.256C31.505 120.571 43.3009 125.869 55.8563 127.48C72.6908 129.639 89.6937 125.023 103.125 114.648C116.557 104.272 125.317 88.9858 127.479 72.1516Z" fill="#FF6C37"/>
<path d="M87.0819 41.1309L60.0995 68.1132L52.4515 60.4717C79.0179 33.9181 81.6547 36.2541 87.0819 41.1309Z" fill="white"/>
<path d="M60.0995 68.7596C60.0148 68.7593 59.9311 68.7421 59.8531 68.7092C59.7751 68.6762 59.7044 68.6281 59.6451 68.5676L51.9651 60.8877C51.8459 60.7677 51.779 60.6055 51.779 60.4365C51.779 60.2674 51.8459 60.1052 51.9651 59.9853C78.9731 32.9773 81.8147 35.5309 87.4787 40.6189C87.5434 40.6773 87.5955 40.7483 87.6318 40.8275C87.6682 40.9067 87.6879 40.9926 87.6899 41.0797C87.693 41.1671 87.6781 41.2543 87.6461 41.3357C87.6142 41.4172 87.5659 41.4912 87.5043 41.5533L60.5475 68.5676C60.4293 68.6882 60.2683 68.7572 60.0995 68.7596ZM53.3603 60.4397L60.0995 67.198L86.1539 41.1437C81.4243 36.9645 78.2115 35.6653 53.3603 60.4717V60.4397Z" fill="#FF6C37"/>
<path d="M67.8307 75.8508L60.4579 68.4781L87.4467 41.4893C94.7107 48.7597 83.9396 60.6125 67.8307 75.8508Z" fill="white"/>
<path d="M67.8307 76.4908H67.7987C67.6368 76.4777 67.4848 76.4074 67.3699 76.2924L60.0035 68.9325C59.8866 68.8098 59.8203 68.6475 59.8179 68.4781C59.8175 68.3938 59.8336 68.3103 59.8655 68.2324C59.8973 68.1544 59.9442 68.0835 60.0035 68.0237L86.9923 41.0413C87.1123 40.9221 87.2745 40.8552 87.4436 40.8552C87.6126 40.8552 87.7748 40.9221 87.8948 41.0413C88.7027 41.809 89.3424 42.7362 89.7731 43.7641C90.2039 44.792 90.4164 45.8982 90.3971 47.0125C90.2947 54.1101 82.2115 63.1277 68.2723 76.3116C68.1537 76.426 67.9955 76.4902 67.8307 76.4908ZM61.3667 68.4781C65.4947 72.6125 67.1651 74.2765 67.8435 74.9549C78.6211 64.7149 89.0147 54.2253 89.1171 46.9997C89.1605 45.3105 88.556 43.6687 87.4275 42.4109L61.3667 68.4781Z" fill="#FF6C37"/>
<path d="M52.6372 60.6573L58.0836 66.0973C58.1168 66.1309 58.1404 66.1729 58.1517 66.2188C58.163 66.2647 58.1618 66.3129 58.148 66.3581C58.1342 66.4034 58.1085 66.4441 58.0735 66.4759C58.0385 66.5077 57.9955 66.5295 57.9492 66.5389L46.7172 68.9581C46.494 69.0073 46.2608 68.9827 46.0528 68.8881C45.8447 68.7935 45.6729 68.634 45.5633 68.4334C45.4536 68.2329 45.412 68.0022 45.4447 67.776C45.4773 67.5497 45.5825 67.3402 45.7444 67.1789L52.2916 60.6573C52.3394 60.6154 52.4008 60.5923 52.4644 60.5923C52.528 60.5923 52.5894 60.6154 52.6372 60.6573Z" fill="white"/>
<path d="M46.4868 69.6236C46.1513 69.6227 45.8236 69.5222 45.5452 69.335C45.2668 69.1478 45.0502 68.8822 44.9228 68.5718C44.7953 68.2615 44.7628 67.9203 44.8293 67.5914C44.8958 67.2626 45.0584 66.9609 45.2964 66.7244L51.8116 60.2028C51.9818 60.034 52.2118 59.9393 52.4516 59.9393C52.6913 59.9393 52.9213 60.034 53.0916 60.2028L58.5316 65.6492C58.6474 65.7631 58.7302 65.9063 58.7709 66.0636C58.8117 66.2209 58.8089 66.3863 58.7628 66.5421C58.7168 66.6979 58.6293 66.8383 58.5097 66.9482C58.39 67.0581 58.2427 67.1334 58.0836 67.166L46.8516 69.5852C46.7316 69.6106 46.6094 69.6235 46.4868 69.6236ZM52.4516 61.374L46.1988 67.6268C46.132 67.6896 46.0887 67.7733 46.0759 67.8641C46.0631 67.9548 46.0816 68.0472 46.1284 68.126C46.1684 68.2078 46.2357 68.273 46.3186 68.3104C46.4016 68.3478 46.495 68.355 46.5828 68.3308L57.1364 66.0588L52.4516 61.374Z" fill="#FF6C37"/>
<path d="M101.392 26.1485C99.9988 24.8096 98.2585 23.8873 96.3681 23.4861C94.4777 23.0848 92.5127 23.2205 90.6955 23.8778C88.8782 24.5352 87.2811 25.6879 86.0849 27.2057C84.8887 28.7235 84.1411 30.5457 83.9266 32.4662C83.7121 34.3868 84.0393 36.329 84.8713 38.0733C85.7032 39.8176 87.0066 41.2942 88.6341 42.3363C90.2616 43.3783 92.1482 43.9442 94.0805 43.9698C96.0128 43.9954 97.9138 43.4798 99.5683 42.4813L92.3107 35.2301L101.392 26.1485Z" fill="white"/>
<path d="M94.2115 44.6189C92.4112 44.6195 90.6383 44.1783 89.0483 43.334C87.4582 42.4897 86.0997 41.268 85.0919 39.7763C84.084 38.2845 83.4576 36.5683 83.2677 34.778C83.0778 32.9878 83.3301 31.1783 84.0025 29.5083C84.6749 27.8382 85.7468 26.3588 87.1243 25.1996C88.5018 24.0405 90.1427 23.2371 91.903 22.8599C93.6634 22.4827 95.4894 22.5433 97.2209 23.0364C98.9523 23.5294 100.536 24.4398 101.834 25.6877C101.896 25.7465 101.945 25.8169 101.979 25.895C102.013 25.973 102.031 26.057 102.032 26.1421C102.034 26.2274 102.018 26.3122 101.986 26.3913C101.954 26.4704 101.907 26.5424 101.847 26.6029L93.2515 35.2301L100.055 42.0269C100.123 42.096 100.175 42.1798 100.206 42.2718C100.237 42.3639 100.246 42.4618 100.234 42.5581C100.222 42.6553 100.189 42.7485 100.135 42.8306C100.082 42.9127 100.011 42.9815 99.9267 43.0317C98.2026 44.0734 96.2259 44.6224 94.2115 44.6189ZM94.2115 23.9214C92.7506 23.9225 91.3089 24.2535 89.9938 24.8897C88.6787 25.5259 87.5243 26.4509 86.6166 27.5956C85.7089 28.7403 85.0715 30.0752 84.7518 31.5007C84.4322 32.9262 84.4385 34.4055 84.7705 35.8282C85.1024 37.2509 85.7513 38.5802 86.6688 39.7171C87.5863 40.8539 88.7486 41.7689 90.0692 42.3938C91.3897 43.0187 92.8343 43.3372 94.2951 43.3258C95.756 43.3144 97.1954 42.9732 98.5059 42.3277L91.8627 35.6781C91.7422 35.56 91.6731 35.3989 91.6707 35.2301C91.6711 35.1454 91.6882 35.0617 91.7212 34.9837C91.7542 34.9057 91.8023 34.835 91.8627 34.7757L100.464 26.1741C98.7111 24.7134 96.4999 23.9159 94.2179 23.9214H94.2115Z" fill="#FF6C37"/>
<path d="M101.571 26.2894L101.411 26.1486L92.3107 35.2301L99.5683 42.4813C100.296 42.0579 100.969 41.5463 101.571 40.9581C102.535 39.9953 103.3 38.8519 103.821 37.5934C104.343 36.335 104.611 34.986 104.611 33.6237C104.611 32.2615 104.343 30.9125 103.821 29.6541C103.3 28.3956 102.535 27.2522 101.571 26.2894Z" fill="white"/>
<path d="M99.5683 43.1213C99.4841 43.1218 99.4006 43.1057 99.3226 43.0738C99.2446 43.042 99.1737 42.995 99.1139 42.9357L91.8627 35.6781C91.7421 35.56 91.6731 35.3989 91.6707 35.2301C91.6711 35.1455 91.6882 35.0617 91.7212 34.9837C91.7541 34.9057 91.8022 34.835 91.8627 34.7757L100.932 25.6941C101.051 25.5769 101.212 25.5112 101.38 25.5112C101.547 25.5112 101.708 25.5769 101.828 25.6941L101.994 25.8413C103.178 27.0202 104.078 28.454 104.624 30.0333C105.17 31.6126 105.348 33.2958 105.145 34.9545C104.942 36.6132 104.363 38.2036 103.452 39.6045C102.541 41.0054 101.322 42.1798 99.8883 43.0381C99.7908 43.0934 99.6804 43.1221 99.5683 43.1213ZM93.2515 35.2301L99.6515 41.6685C100.167 41.3211 100.649 40.9269 101.092 40.4909C102.862 38.7199 103.881 36.3338 103.936 33.83C103.991 31.3262 103.077 28.8978 101.386 27.0509L93.2515 35.2301Z" fill="#FF6C37"/>
<path d="M88.1956 42.2381C87.4554 41.5006 86.4532 41.0865 85.4084 41.0865C84.3635 41.0865 83.3613 41.5006 82.6212 42.2381L58.4868 66.3788L62.5316 70.398L88.042 47.9981C88.4465 47.6399 88.7731 47.2024 89.0015 46.7127C89.2299 46.223 89.3552 45.6916 89.3696 45.1515C89.384 44.6113 89.2872 44.074 89.0852 43.5728C88.8833 43.0716 88.5805 42.6173 88.1956 42.2381Z" fill="white"/>
<path d="M62.5315 71.038C62.4473 71.0385 62.3638 71.0224 62.2858 70.9905C62.2079 70.9587 62.1369 70.9118 62.0771 70.8524L58.0516 66.8333C57.9916 66.7738 57.944 66.703 57.9115 66.625C57.879 66.547 57.8622 66.4634 57.8622 66.3789C57.8622 66.2944 57.879 66.2107 57.9115 66.1327C57.944 66.0547 57.9916 65.984 58.0516 65.9245L82.1667 41.7901C83.0279 40.9331 84.1934 40.4519 85.4083 40.4519C86.6233 40.4519 87.7888 40.9331 88.6499 41.7901C89.0926 42.2328 89.4397 42.7616 89.6698 43.3438C89.8999 43.926 90.0081 44.5492 89.9877 45.1749C89.9673 45.8006 89.8188 46.4154 89.5512 46.9814C89.2837 47.5473 88.9029 48.0524 88.4323 48.4653L62.9219 70.8653C62.8154 70.9658 62.6776 71.0268 62.5315 71.038ZM59.4211 66.3853L62.5571 69.5213L87.6195 47.5117C87.9602 47.222 88.2384 46.8662 88.4374 46.4658C88.6364 46.0654 88.7521 45.6288 88.7773 45.1823C88.8025 44.7359 88.7368 44.289 88.5842 43.8687C88.4316 43.4485 88.1952 43.0636 87.8894 42.7374C87.5836 42.4112 87.2147 42.1504 86.8051 41.9711C86.3956 41.7917 85.9538 41.6973 85.5067 41.6937C85.0596 41.6901 84.6164 41.7774 84.204 41.9502C83.7916 42.1229 83.4186 42.3777 83.1075 42.6989L59.4211 66.3853Z" fill="#FF6C37"/>
<path d="M39.9779 93.8092C39.8645 93.8681 39.7736 93.9627 39.7193 94.0783C39.6649 94.194 39.6501 94.3243 39.6771 94.4492L40.7587 99.07C40.8546 99.3537 40.848 99.6621 40.7399 99.9415C40.6319 100.221 40.4293 100.453 40.1675 100.599C39.9056 100.744 39.601 100.793 39.3068 100.737C39.0126 100.681 38.7473 100.524 38.5571 100.292L31.562 93.2972L54.5315 70.334L62.4355 70.4556L67.8307 75.8444C66.4931 76.9644 58.7555 84.3948 39.9779 93.8092Z" fill="white"/>
<path d="M39.4915 101.329C39.2364 101.329 38.9839 101.278 38.7488 101.179C38.5136 101.08 38.3005 100.935 38.1219 100.753L31.1075 93.7516C30.9893 93.6324 30.9227 93.4715 30.9219 93.3036C30.9215 93.2194 30.9376 93.1359 30.9695 93.0579C31.0013 92.9799 31.0482 92.909 31.1075 92.8492L54.0771 69.8796C54.1377 69.8196 54.2097 69.7722 54.2888 69.7403C54.3679 69.7084 54.4526 69.6927 54.5379 69.694L62.4483 69.8156C62.614 69.818 62.7723 69.8845 62.8899 70.0012L68.2787 75.3964C68.3424 75.4587 68.3923 75.5335 68.4254 75.6162C68.4584 75.6988 68.4739 75.7875 68.4707 75.8764C68.4664 75.965 68.4436 76.0517 68.4039 76.131C68.3643 76.2104 68.3086 76.2806 68.2403 76.3372L67.7859 76.734C61.0147 82.6796 51.7859 88.606 40.3107 94.3532L41.3859 98.9292C41.488 99.3426 41.4497 99.7782 41.277 100.168C41.1044 100.557 40.8073 100.878 40.4323 101.08C40.1446 101.24 39.8211 101.326 39.4915 101.329ZM32.4515 93.3036L39.0115 99.838C39.0964 99.9873 39.2371 100.097 39.4028 100.142C39.5684 100.188 39.7454 100.166 39.8947 100.081C40.0441 99.9963 40.1537 99.8556 40.1993 99.69C40.2449 99.5243 40.2228 99.3473 40.1379 99.198L39.0563 94.5772C38.9944 94.3111 39.0238 94.0319 39.1399 93.7846C39.256 93.5373 39.452 93.3363 39.6963 93.214C51.0499 87.518 60.1763 81.6556 66.8963 75.7868L62.1731 71.0636L54.7939 70.9484L32.4515 93.3036Z" fill="#FF6C37"/>
<path d="M26.0515 98.8012L31.5491 93.3036L39.7219 101.476L26.6659 100.58C26.4704 100.558 26.2851 100.481 26.1315 100.358C25.9779 100.235 25.8623 100.07 25.798 99.8844C25.7338 99.6983 25.7235 99.4979 25.7683 99.3062C25.8132 99.1145 25.9114 98.9394 26.0515 98.8012Z" fill="white"/>
<path d="M39.7347 102.116H39.6963L26.6339 101.22C26.3164 101.188 26.0145 101.066 25.7634 100.869C25.5123 100.672 25.3221 100.407 25.215 100.107C25.1078 99.8061 25.088 99.4811 25.1579 99.1697C25.2278 98.8582 25.3846 98.5729 25.6099 98.3468L31.1075 92.8492C31.167 92.7892 31.2378 92.7416 31.3158 92.7091C31.3938 92.6766 31.4774 92.6599 31.5619 92.6599C31.6464 92.6599 31.7301 92.6766 31.8081 92.7091C31.8861 92.7416 31.9568 92.7892 32.0163 92.8492L40.1891 101.022C40.2832 101.114 40.3466 101.233 40.3706 101.362C40.3947 101.492 40.3782 101.625 40.3235 101.745C40.2717 101.857 40.1885 101.952 40.084 102.018C39.9795 102.084 39.8582 102.118 39.7347 102.116ZM31.5619 94.206L26.5187 99.2492C26.4624 99.302 26.4227 99.3701 26.4046 99.4451C26.3864 99.5201 26.3905 99.5988 26.4163 99.6716C26.4405 99.7452 26.4853 99.8103 26.5454 99.8591C26.6056 99.9079 26.6785 99.9383 26.7555 99.9468L38.0771 100.721L31.5619 94.206Z" fill="#FF6C37"/>
<path d="M52.202 73.2972C52.0762 73.2967 51.9533 73.2591 51.8487 73.1892C51.7442 73.1192 51.6626 73.02 51.6141 72.9039C51.5656 72.7878 51.5524 72.66 51.5761 72.5364C51.5999 72.4129 51.6595 72.2991 51.7476 72.2092L57.9684 65.9884C58.0279 65.9285 58.0987 65.8808 58.1767 65.8484C58.2547 65.8159 58.3383 65.7991 58.4228 65.7991C58.5073 65.7991 58.5909 65.8159 58.6689 65.8484C58.7469 65.8808 58.8177 65.9285 58.8772 65.9884L62.8836 70.0012C62.967 70.0827 63.0265 70.1853 63.0559 70.2981C63.0852 70.4109 63.0832 70.5295 63.05 70.6412C63.0169 70.7511 62.9549 70.8501 62.8705 70.9278C62.786 71.0055 62.6822 71.059 62.57 71.0828L52.33 73.2908C52.2878 73.2987 52.2448 73.3008 52.202 73.2972ZM58.4228 67.3452L54.2116 71.5756L61.1684 70.0716L58.4228 67.3452Z" fill="#FF6C37"/>
<path d="M62.4356 70.4556L55.3956 71.966C55.1907 72.0121 54.9762 71.9902 54.7848 71.9035C54.5935 71.8169 54.4355 71.6702 54.335 71.4857C54.2344 71.3012 54.1967 71.089 54.2276 70.8812C54.2585 70.6734 54.3562 70.4813 54.506 70.334L58.3972 66.4428L62.4356 70.4556Z" fill="white"/>
<path d="M55.21 72.6253C54.8919 72.6253 54.5809 72.5309 54.3165 72.354C54.0521 72.1771 53.8462 71.9256 53.7248 71.6315C53.6035 71.3375 53.5722 71.014 53.6349 70.7021C53.6977 70.3902 53.8516 70.104 54.0772 69.8797L57.9684 65.9885C58.0279 65.9285 58.0987 65.8809 58.1767 65.8484C58.2547 65.8159 58.3383 65.7992 58.4228 65.7992C58.5073 65.7992 58.5909 65.8159 58.6689 65.8484C58.7469 65.8809 58.8177 65.9285 58.8772 65.9885L62.8836 70.0013C62.967 70.0827 63.0265 70.1853 63.0559 70.2981C63.0852 70.4109 63.0832 70.5295 63.05 70.6413C63.0169 70.7511 62.9549 70.8501 62.8705 70.9278C62.786 71.0055 62.6822 71.059 62.57 71.0829L55.53 72.5997C55.4245 72.619 55.3173 72.6276 55.21 72.6253ZM58.41 67.3453L54.9668 70.7821C54.915 70.8315 54.8816 70.8972 54.8723 70.9682C54.863 71.0392 54.8783 71.1113 54.9156 71.1725C54.9441 71.2397 54.9965 71.294 55.0627 71.3247C55.129 71.3555 55.2043 71.3605 55.274 71.3389L61.1364 70.0589L58.41 67.3453Z" fill="#FF6C37"/>
<path d="M101.616 32.4398C101.584 32.339 101.53 32.2465 101.458 32.1684C101.386 32.0903 101.299 32.0284 101.202 31.9868C101.104 31.9453 100.999 31.9251 100.893 31.9276C100.787 31.9301 100.683 31.9552 100.588 32.0013C100.492 32.0474 100.408 32.1134 100.34 32.1948C100.272 32.2762 100.223 32.3711 100.195 32.4733C100.167 32.5755 100.161 32.6824 100.177 32.787C100.194 32.8916 100.233 32.9914 100.292 33.0798C100.482 33.4649 100.557 33.8967 100.508 34.3235C100.46 34.7503 100.289 35.154 100.016 35.4862C99.8912 35.6374 99.831 35.8321 99.849 36.0276C99.8669 36.2231 99.9616 36.4035 100.112 36.5294C100.265 36.6522 100.46 36.7103 100.655 36.6911C100.85 36.672 101.03 36.5771 101.156 36.427C101.607 35.8768 101.891 35.2082 101.973 34.5012C102.054 33.7941 101.931 33.0784 101.616 32.4398Z" fill="#FF6C37"/>
</svg>
