<svg width="128" height="128" viewBox="0 0 128 128" fill="none" xmlns="http://www.w3.org/2000/svg">
<path d="M107.108 49.5762C106.908 45.1805 107.508 41.2842 105.51 37.9874C100.714 29.7954 88.7261 25 64.7493 25V25.6993H64.2498H64.7493V25C40.7725 25 28.1847 29.7954 23.3893 38.0873C21.4912 41.484 21.691 45.2804 21.3913 49.6761C21.1915 53.1727 19.593 56.8691 20.2923 60.8653C21.0916 66.0602 21.3913 71.2552 22.1905 76.0506C22.7899 79.9468 28.1847 83.2436 28.6842 86.94C30.0829 97.1302 40.6726 101.826 64.6494 101.826V102.625H64.1499H64.7493V101.826C88.7261 101.826 98.9162 97.1302 100.215 86.94C100.714 83.1437 105.71 79.9468 106.309 76.0506C107.108 71.2552 107.408 66.0602 108.207 60.8653C108.907 56.8691 107.308 53.0728 107.108 49.5762V49.5762Z" fill="#EFCCA3"/>
<path d="M64.3497 53.1727C68.6455 53.2726 71.6426 55.97 74.4399 58.4676C77.7367 61.3648 83.3313 63.3629 85.6291 65.8604C87.9269 68.358 90.924 70.8556 92.0229 74.7518C93.1219 78.6481 93.4216 83.6432 93.4216 84.942C93.4216 86.2407 94.1209 85.941 96.1189 84.942C100.814 82.6442 106.009 76.4502 106.009 76.4502C105.41 80.3464 100.315 83.843 99.8154 87.5394C98.6165 97.7296 88.7261 102.625 64.2498 102.625H64.1499H64.7493" fill="#CCAC8D"/>
<path d="M80.1343 45.3803C81.0335 48.4773 84.2304 58.9671 78.0364 55.4705C78.0364 55.4705 80.6339 56.969 82.2323 62.6635C83.9307 68.358 88.0267 69.0573 88.0267 69.0573C88.0267 69.0573 94.7202 70.3561 99.7154 66.0602C103.911 62.4637 104.611 56.0699 102.812 51.1747C101.014 46.3793 97.8172 44.8808 93.1218 43.8817C88.4263 42.7828 79.0354 41.8837 80.1343 45.3803V45.3803Z" fill="#CCAC8D"/>
<path d="M92.0229 65.5607C96.8783 65.5607 100.814 61.6246 100.814 56.7692C100.814 51.9138 96.8783 47.9778 92.0229 47.9778C87.1675 47.9778 83.2314 51.9138 83.2314 56.7692C83.2314 61.6246 87.1675 65.5607 92.0229 65.5607Z" fill="black"/>
<path d="M89.725 55.1708C90.9941 55.1708 92.0228 54.142 92.0228 52.873C92.0228 51.604 90.9941 50.5752 89.725 50.5752C88.456 50.5752 87.4272 51.604 87.4272 52.873C87.4272 54.142 88.456 55.1708 89.725 55.1708Z" fill="white"/>
<path d="M78.6358 56.3696C78.6358 56.3696 86.5282 61.7644 90.824 67.0593C95.1198 72.3541 95.02 73.3532 95.02 73.3532L91.9229 74.7518C91.9229 74.7518 87.5272 66.4598 82.1324 63.3628C76.6377 60.2658 76.0383 57.6684 76.0383 57.6684L78.6358 56.3696Z" fill="#EFCCA3"/>
<path d="M64.6493 53.1727C60.3534 53.2726 57.1565 55.97 54.2593 58.4676C50.9625 61.3648 45.1681 63.3628 42.8704 65.8604C40.5726 68.358 37.4756 70.8556 36.3766 74.7518C35.2777 78.648 34.8781 83.6432 34.8781 84.942C34.8781 86.2407 35.0779 86.3406 32.1807 84.942C27.4853 82.7441 22.2903 76.4502 22.2903 76.4502C22.8897 80.3464 27.9848 83.843 28.4843 87.5394C29.8829 97.7296 39.7734 102.625 64.2497 102.625H64.7492" fill="#CCAC8D"/>
<path d="M87.827 70.0564C83.0316 64.1621 75.3391 58.6674 64.6494 58.6674H64.5495C53.8599 58.6674 46.1673 64.1621 41.372 70.0564C36.3768 76.1505 36.7764 78.5482 36.7764 84.3425C36.7764 105.322 44.1692 99.328 49.0645 101.926C54.0597 104.423 59.2546 103.624 64.5495 103.624H64.6494C70.0442 103.624 75.1393 104.323 80.1344 101.826C85.0297 99.328 92.4225 105.522 92.4225 84.5424C92.5224 78.748 92.8221 76.1505 87.827 70.0564V70.0564Z" fill="#56332B"/>
<path d="M64.1497 63.8624C64.1497 63.8624 63.4504 73.553 62.0518 75.4512L64.6492 74.8517L64.1497 63.8624Z" fill="#442823"/>
<path d="M64.8491 63.8624C64.8491 63.8624 65.5484 73.553 66.9471 75.4512L64.3496 74.8517L64.8491 63.8624Z" fill="#442823"/>
<path d="M56.4573 61.5646C55.4582 59.2668 59.0547 55.5704 64.7492 55.4705C70.4437 55.4705 74.0402 59.1669 73.0412 61.5646C72.0422 63.9623 68.4457 64.6616 64.7492 64.7615C61.1527 64.6616 57.4563 63.9623 56.4573 61.5646V61.5646Z" fill="#56332B"/>
<path d="M64.7491 63.8624C64.7491 63.4628 68.1458 63.3629 69.9441 62.164C69.9441 62.164 66.2477 63.3629 65.4484 62.8633C64.6492 62.4637 64.4494 61.2649 64.4494 61.2649C64.4494 61.2649 64.1497 62.4637 63.5503 62.8633C62.851 63.2629 58.655 62.164 58.655 62.164L64.2496 63.8624C64.2496 64.1621 64.1497 65.1611 64.1497 65.8604L64.5493 75.0515C65.1487 75.9507 64.9489 68.358 64.9489 65.8604L64.7491 63.8624Z" fill="black"/>
<path d="M64.9489 77.2494C66.6473 77.2494 69.6444 78.4482 72.3418 80.3464C69.7443 77.4492 66.6473 75.4512 64.9489 75.4512C63.1507 75.4512 59.3544 77.649 56.657 80.8459C59.4543 78.6481 63.0508 77.2494 64.9489 77.2494Z" fill="#7F4A41" stroke="#4D4D4D" stroke-width="2.07749" stroke-miterlimit="10"/>
<path d="M64.2498 94.9323C60.4534 94.9323 56.757 93.7334 53.3603 92.8343C52.661 92.6345 51.9617 93.134 51.2623 92.9342C44.9684 90.9362 39.8734 87.5394 36.7764 83.2436V84.2426C36.7764 105.222 44.1692 99.328 49.0645 101.826C54.0596 104.323 59.2546 103.524 64.5495 103.524H64.6494C70.0442 103.524 75.1392 104.223 80.1344 101.726C85.0296 99.2281 92.4225 105.322 92.4225 84.3425C92.4225 83.5433 92.4225 82.7441 92.5224 82.0448C89.6252 86.7402 84.3303 90.4366 77.7367 92.6345C77.1373 92.8343 75.7386 92.3348 75.1392 92.4347C71.5427 93.6335 68.3458 94.9323 64.2498 94.9323V94.9323Z" fill="#442823"/>
<path d="M54.7589 83.6432C54.7589 83.6432 52.2613 91.136 53.9596 94.4328L51.6619 93.4337C51.6619 93.4337 53.3602 85.8411 54.7589 83.6432V83.6432ZM74.5397 83.6432C74.5397 83.6432 77.0373 91.136 75.3389 94.4328L77.6367 93.4337C77.6367 93.4337 75.8385 85.8411 74.5397 83.6432Z" fill="#442823"/>
<path d="M48.3652 45.3803C47.4661 48.4773 44.2692 58.9671 50.4632 55.4705C50.4632 55.4705 47.8657 56.969 46.2672 62.6635C44.6688 68.358 40.4728 69.0573 40.4728 69.0573C40.4728 69.0573 33.7793 70.3561 28.7842 66.0602C24.5882 62.4637 23.8889 56.0699 25.6872 51.1747C27.4854 46.2794 30.6823 44.8808 35.3778 43.8817C40.0732 42.7828 49.3642 41.8837 48.3652 45.3803V45.3803Z" fill="#CCAC8D"/>
<path d="M64.6494 75.4511C67.3468 75.4511 75.7386 81.2455 75.8385 88.3387V87.9391C75.8385 80.5462 69.0451 74.6519 64.6494 74.6519C60.2536 74.6519 53.4602 80.6461 53.4602 87.9391V88.3387C53.5601 81.2455 61.952 75.4511 64.6494 75.4511Z" fill="black"/>
<path d="M66.8299 61.619C67.2573 61.5087 67.4362 60.7697 67.2296 59.9683C67.0229 59.167 66.5089 58.6067 66.0815 58.7169C65.6541 58.8271 65.4751 59.5661 65.6818 60.3675C65.8885 61.1689 66.4025 61.7292 66.8299 61.619Z" fill="#331712"/>
<path d="M61.6949 61.6041C62.1165 61.7349 62.657 61.2001 62.9022 60.4096C63.1475 59.6192 63.0045 58.8723 62.5829 58.7415C62.1613 58.6108 61.6208 59.1455 61.3756 59.936C61.1303 60.7265 61.2733 61.4733 61.6949 61.6041Z" fill="#331712"/>
<path d="M36.9761 65.5607C41.8315 65.5607 45.7675 61.6246 45.7675 56.7692C45.7675 51.9138 41.8315 47.9778 36.9761 47.9778C32.1207 47.9778 28.1846 51.9138 28.1846 56.7692C28.1846 61.6246 32.1207 65.5607 36.9761 65.5607Z" fill="black"/>
<path d="M39.2738 55.1708C40.5429 55.1708 41.5716 54.142 41.5716 52.873C41.5716 51.604 40.5429 50.5752 39.2738 50.5752C38.0048 50.5752 36.9761 51.604 36.9761 52.873C36.9761 54.142 38.0048 55.1708 39.2738 55.1708Z" fill="white"/>
<path d="M67.2468 56.8691C67.2468 56.7692 64.949 57.8682 64.3496 57.9681C63.7502 57.8682 61.4524 56.7692 61.4524 56.8691H67.2468Z" fill="#7F4A41" stroke="#4D4D4D" stroke-width="2.07749" stroke-miterlimit="10"/>
<path d="M49.7637 56.3696C49.7637 56.3696 41.8714 61.7644 37.5755 67.0593C33.2797 72.3541 33.3796 73.3532 33.3796 73.3532L36.4766 74.7518C36.4766 74.7518 40.8723 66.4598 46.2671 63.3628C51.6619 60.2658 52.3612 57.6684 52.3612 57.6684L49.7637 56.3696Z" fill="#EFCCA3"/>
<path d="M32.4804 40.3851C32.4804 40.3851 29.783 47.778 23.7888 50.875C23.7888 50.875 33.1797 49.776 32.4804 40.3851ZM95.5194 40.3851C95.5194 40.3851 98.2168 47.778 104.211 50.875C104.211 50.875 94.82 49.776 95.5194 40.3851ZM78.4359 54.1718C78.4359 54.1718 72.5416 47.9778 64.6493 47.778C64.5494 47.778 64.8491 47.778 64.7492 47.778C64.6493 47.778 64.8491 47.778 64.8491 47.778C56.8568 47.9778 51.0624 54.1718 51.0624 54.1718C57.9557 49.3764 63.85 49.4763 64.8491 49.4763C64.7492 49.4763 71.5426 49.3764 78.4359 54.1718V54.1718ZM71.5426 41.1843C71.5426 41.1843 68.5455 36.9884 64.5494 36.8885H64.7492C61.7521 36.9884 57.8558 41.1843 57.8558 41.1843C61.2525 37.8875 64.7492 37.9874 64.7492 37.9874C64.7492 37.9874 68.046 37.8875 71.5426 41.1843ZM36.9761 71.8546C36.9761 71.8546 32.2806 74.1524 28.8839 72.7538H28.784C25.7869 71.0554 24.2883 65.9603 24.2883 65.9603C24.2883 65.9603 27.2854 74.9516 36.9761 71.8546V71.8546ZM91.723 71.8546C91.723 71.8546 96.4185 74.1524 99.8152 72.7538C103.811 71.0554 104.411 65.9603 104.411 65.9603C104.411 65.9603 101.414 74.9516 91.723 71.8546V71.8546ZM42.3708 39.8856C44.9683 39.3861 49.2642 39.2862 52.6609 40.3851C56.9567 41.8837 53.4601 47.3783 54.3592 47.678C55.2583 47.9778 56.4572 43.8817 64.4494 44.2813C72.5416 44.6809 73.4407 48.2775 74.5397 47.678C75.6386 47.0786 73.4407 37.6877 85.529 39.8856C85.529 39.8856 72.8413 36.4889 73.4407 45.68C73.4407 45.68 66.1478 40.0854 55.9577 45.0806C56.0576 45.0806 58.6551 36.4889 42.3708 39.8856V39.8856ZM86.628 39.8856C86.8278 39.8856 86.9277 39.9855 87.0276 39.9855C87.1275 39.9855 86.9277 39.8856 86.628 39.8856Z" fill="#CCAC8D"/>
<path d="M38.8743 27.5975C38.8743 27.5975 28.0847 41.1843 26.4863 46.3793C24.8878 51.6742 23.689 73.3532 22.2903 76.4502L17.2952 55.0709L26.4863 32.7925L38.8743 27.5975ZM89.6251 27.5975C89.6251 27.5975 100.415 41.1843 102.013 46.3793C103.612 51.6742 104.81 73.3532 106.209 76.4502L111.204 55.0709L102.013 32.7925L89.6251 27.5975Z" fill="#CCAC8D"/>
<path d="M89.1256 27.5975C89.1256 27.5975 100.714 37.2881 104.111 48.4773C107.508 59.6664 106.109 73.2533 108.707 74.9516C112.403 77.3493 116.599 63.0631 117.998 61.5646C120.196 59.1669 127.488 53.0728 127.988 51.9739C128.487 50.8749 113.202 34.1911 106.509 30.8943C98.4166 27.098 88.4263 26.7983 89.1256 27.5975V27.5975Z" fill="#56332B"/>
<path d="M99.0162 33.5917C99.0162 33.5917 112.703 51.0747 112.503 72.8537L117.998 61.6645C117.898 61.6645 113.103 47.3783 99.0162 33.5917V33.5917Z" fill="#442823"/>
<path d="M38.8743 27.5975C38.8743 27.5975 27.2855 37.2881 23.8888 48.4773C20.4921 59.6664 21.8908 73.2533 19.2933 74.9516C15.5969 77.3493 11.4009 63.0631 10.0023 61.5646C7.80441 59.1669 0.51147 53.0728 0.011954 51.9739C-0.487562 50.8749 14.7976 34.1911 21.4912 30.8943C29.5833 27.098 39.5736 26.7983 38.8743 27.5975V27.5975Z" fill="#56332B"/>
<path d="M28.984 33.5917C28.984 33.5917 15.2973 51.0747 15.4971 72.8537L10.1023 61.6645C10.1023 61.6645 14.8977 47.3783 28.984 33.5917V33.5917Z" fill="#442823"/>
<path d="M21.5911 73.2533C21.5911 73.2533 22.5901 78.648 24.1885 80.3464C25.787 82.0448 24.6881 79.0477 24.6881 79.0477C24.6881 79.0477 22.9897 78.1485 23.2894 71.2552C23.5891 64.3619 21.5911 73.2533 21.5911 73.2533V73.2533ZM106.809 73.2533C106.809 73.2533 105.81 78.648 104.211 80.3464C102.613 82.0448 103.712 79.0477 103.712 79.0477C103.712 79.0477 105.41 78.1485 105.11 71.2552C104.81 64.3619 106.809 73.2533 106.809 73.2533V73.2533Z" fill="#CCAC8D"/>
<path d="M54.2592 69.9565C54.7006 69.9565 55.0584 69.5986 55.0584 69.1572C55.0584 68.7158 54.7006 68.358 54.2592 68.358C53.8178 68.358 53.46 68.7158 53.46 69.1572C53.46 69.5986 53.8178 69.9565 54.2592 69.9565Z" fill="#442823"/>
<path d="M49.6637 74.7518C50.1051 74.7518 50.463 74.394 50.463 73.9526C50.463 73.5112 50.1051 73.1534 49.6637 73.1534C49.2223 73.1534 48.8645 73.5112 48.8645 73.9526C48.8645 74.394 49.2223 74.7518 49.6637 74.7518Z" fill="#442823"/>
<path d="M48.1652 69.9565C48.6066 69.9565 48.9644 69.5986 48.9644 69.1572C48.9644 68.7158 48.6066 68.358 48.1652 68.358C47.7238 68.358 47.366 68.7158 47.366 69.1572C47.366 69.5986 47.7238 69.9565 48.1652 69.9565Z" fill="#442823"/>
<path d="M73.7404 69.9565C74.1818 69.9565 74.5396 69.5986 74.5396 69.1572C74.5396 68.7158 74.1818 68.358 73.7404 68.358C73.299 68.358 72.9412 68.7158 72.9412 69.1572C72.9412 69.5986 73.299 69.9565 73.7404 69.9565Z" fill="#442823"/>
<path d="M78.3358 74.7518C78.7772 74.7518 79.1351 74.394 79.1351 73.9526C79.1351 73.5112 78.7772 73.1534 78.3358 73.1534C77.8944 73.1534 77.5366 73.5112 77.5366 73.9526C77.5366 74.394 77.8944 74.7518 78.3358 74.7518Z" fill="#442823"/>
<path d="M79.8346 69.9565C80.276 69.9565 80.6339 69.5986 80.6339 69.1572C80.6339 68.7158 80.276 68.358 79.8346 68.358C79.3932 68.358 79.0354 68.7158 79.0354 69.1572C79.0354 69.5986 79.3932 69.9565 79.8346 69.9565Z" fill="#442823"/>
</svg>
