<svg id="react-logo" width="128" height="128" viewBox="0 0 128 128" fill="#61DAFB" xmlns="http://www.w3.org/2000/svg">
<path d="M128 64.0077C128 55.5283 117.381 47.4925 101.101 42.5092C104.858 25.9156 103.188 12.7138 95.8304 8.48716C94.1345 7.49572 92.1516 7.02609 89.9861 7.02609V12.8443C91.1863 12.8443 92.1517 13.0791 92.9605 13.5226C96.5088 15.5577 98.0481 23.3066 96.8479 33.2731C96.561 35.7256 96.0913 38.3086 95.5173 40.9437C90.4036 39.6914 84.8202 38.726 78.9499 38.0999C75.4276 33.2731 71.775 28.8899 68.0962 25.0546C76.6017 17.1492 84.5854 12.8182 90.0122 12.8182V7C82.8373 7 73.4448 12.1137 63.9478 20.9845C54.4509 12.1659 45.0583 7.10436 37.8834 7.10436V12.9225C43.2841 12.9225 51.2939 17.2275 59.7994 25.0807C56.1468 28.916 52.4941 33.2731 49.0241 38.0999C43.1276 38.726 37.5442 39.6914 32.4305 40.9698C31.8304 38.3608 31.3869 35.83 31.0738 33.4036C29.8475 23.437 31.3608 15.6881 34.883 13.627C35.6657 13.1574 36.6832 12.9486 37.8834 12.9486V7.13045C35.6918 7.13045 33.7089 7.60008 31.987 8.59152C24.6555 12.8182 23.0118 25.9939 26.7949 42.5353C10.5667 47.5446 0 55.5544 0 64.0077C0 72.4872 10.6188 80.523 26.8993 85.5063C23.1423 102.1 24.8121 115.302 32.1696 119.528C33.8655 120.52 35.8484 120.989 38.04 120.989C45.2148 120.989 54.6074 115.876 64.1044 107.005C73.6013 115.823 82.9939 120.885 90.1688 120.885C92.3604 120.885 94.3433 120.415 96.0652 119.424C103.397 115.197 105.04 102.022 101.257 85.4802C117.433 80.4969 128 72.4611 128 64.0077V64.0077ZM94.0302 46.6054C93.0648 49.9711 91.8647 53.4411 90.5079 56.9111C89.4382 54.8239 88.3163 52.7366 87.0901 50.6494C85.8899 48.5622 84.6115 46.5271 83.3331 44.5442C87.0379 45.0921 90.6123 45.7705 94.0302 46.6054ZM82.0807 74.3918C80.0457 77.914 77.9584 81.2536 75.7929 84.3583C71.9054 84.6975 67.9658 84.8801 64 84.8801C60.0603 84.8801 56.1207 84.6975 52.2593 84.3844C50.0938 81.2797 47.9804 77.9662 45.9454 74.47C43.9625 71.0522 42.1623 67.5821 40.5186 64.086C42.1362 60.5899 43.9625 57.0938 45.9193 53.6759C47.9543 50.1537 50.0416 46.8141 52.2071 43.7093C56.0946 43.3702 60.0342 43.1875 64 43.1875C67.9397 43.1875 71.8793 43.3702 75.7407 43.6832C77.9062 46.788 80.0196 50.1015 82.0546 53.5976C84.0375 57.0155 85.8378 60.4855 87.4815 63.9816C85.8378 67.4778 84.0375 70.9739 82.0807 74.3918ZM90.5079 71C91.9168 74.4961 93.117 77.9923 94.1084 81.384C90.6906 82.2189 87.0901 82.9234 83.3592 83.4713C84.6376 81.4623 85.916 79.4011 87.1162 77.2878C88.3164 75.2006 89.4382 73.0872 90.5079 71ZM64.0522 98.8386C61.6258 96.3339 59.1993 93.5422 56.799 90.4896C59.1472 90.594 61.5475 90.6722 63.9739 90.6722C66.4264 90.6722 68.8528 90.6201 71.2271 90.4896C68.8789 93.5422 66.4525 96.3339 64.0522 98.8386ZM44.6408 83.4713C40.936 82.9234 37.3616 82.245 33.9437 81.4101C34.9091 78.0444 36.1093 74.5744 37.466 71.1044C38.5357 73.1916 39.6576 75.2788 40.8838 77.3661C42.1101 79.4533 43.3624 81.4884 44.6408 83.4713ZM63.9217 29.1769C66.3482 31.6816 68.7746 34.4733 71.1749 37.5259C68.8267 37.4215 66.4264 37.3433 64 37.3433C61.5475 37.3433 59.1211 37.3954 56.7468 37.5259C59.095 34.4733 61.5214 31.6816 63.9217 29.1769ZM44.6148 44.5442C43.3363 46.5532 42.0579 48.6143 40.8577 50.7277C39.6576 52.8149 38.5357 54.9022 37.466 56.9894C36.0571 53.4933 34.8569 49.9971 33.8655 46.6054C37.2833 45.7966 40.8838 45.0921 44.6148 44.5442V44.5442ZM21.0029 77.2095C11.7668 73.2699 5.79209 68.104 5.79209 64.0077C5.79209 59.9115 11.7668 54.7195 21.0029 50.8059C23.2466 49.8406 25.6991 48.9796 28.2299 48.1708C29.7171 53.2845 31.6739 58.607 34.1003 64.0599C31.7 69.4867 29.7693 74.7831 28.3082 79.8708C25.7252 79.062 23.2727 78.1749 21.0029 77.2095ZM35.0395 114.493C31.4912 112.458 29.9519 104.709 31.1521 94.7423C31.4391 92.2898 31.9087 89.7069 32.4827 87.0717C37.5964 88.3241 43.1798 89.2894 49.0501 89.9156C52.5724 94.7423 56.225 99.1256 59.9038 102.961C51.3983 110.866 43.4146 115.197 37.9878 115.197C36.8137 115.171 35.8223 114.936 35.0395 114.493V114.493ZM96.9262 94.6119C98.1525 104.578 96.6392 112.327 93.117 114.388C92.3343 114.858 91.3168 115.067 90.1166 115.067C84.7159 115.067 76.7061 110.762 68.2006 102.909C71.8533 99.0734 75.5059 94.7163 78.976 89.8895C84.8724 89.2633 90.4558 88.298 95.5695 87.0196C96.1696 89.6547 96.6392 92.1855 96.9262 94.6119V94.6119ZM106.971 77.2095C104.727 78.1749 102.275 79.0359 99.744 79.8447C98.2568 74.7309 96.3 69.4085 93.8736 63.9556C96.274 58.5287 98.2047 53.2324 99.6657 48.1447C102.249 48.9535 104.701 49.8406 106.997 50.8059C116.233 54.7456 122.208 59.9115 122.208 64.0077C122.182 68.104 116.207 73.296 106.971 77.2095V77.2095Z"/>
<path d="M63.974 75.931C70.5591 75.931 75.8974 70.5928 75.8974 64.0077C75.8974 57.4226 70.5591 52.0843 63.974 52.0843C57.3889 52.0843 52.0506 57.4226 52.0506 64.0077C52.0506 70.5928 57.3889 75.931 63.974 75.931Z"/>
</svg>
