<svg aria-hidden="true" style="position: absolute; width: 0; height: 0; overflow: hidden;" version="1.1" xmlns="http://www.w3.org/2000/svg" xmlns:xlink="http://www.w3.org/1999/xlink">
	<defs>
		<symbol id="arrow-forward" viewBox="0 0 512 512">
			<title>ionicons-v5-a</title>
			<path d="M464,256c0-114.87-93.13-208-208-208S48,141.13,48,256s93.13,208,208,208S464,370.87,464,256ZM251.35,347.36a16,16,0,0,1-.09-22.63L303.58,272H170a16,16,0,0,1,0-32H303.58l-52.32-52.73A16,16,0,1,1,274,164.73l79.39,80a16,16,0,0,1,0,22.54l-79.39,80A16,16,0,0,1,251.35,347.36Z"/>
		</symbol>
		<symbol id="logo-github" viewBox="0 0 512 512">
			<title>ionicons-v5_logos</title>
			<path d="M256,32C132.3,32,32,134.9,32,261.7c0,101.5,64.2,187.5,153.2,217.9a17.56,17.56,0,0,0,3.8.4c8.3,0,11.5-6.1,11.5-11.4,0-5.5-.2-19.9-.3-39.1a102.4,102.4,0,0,1-22.6,2.7c-43.1,0-52.9-33.5-52.9-33.5-10.2-26.5-24.9-33.6-24.9-33.6-19.5-13.7-.1-14.1,1.4-14.1h.1c22.5,2,34.3,23.8,34.3,23.8,11.2,19.6,26.2,25.1,39.6,25.1a63,63,0,0,0,25.6-6c2-14.8,7.8-24.9,14.2-30.7-49.7-5.8-102-25.5-102-113.5,0-25.1,8.7-45.6,23-61.6-2.3-5.8-10-29.2,2.2-60.8a18.64,18.64,0,0,1,5-.5c8.1,0,26.4,3.1,56.6,24.1a208.21,208.21,0,0,1,112.2,0c30.2-21,48.5-24.1,56.6-24.1a18.64,18.64,0,0,1,5,.5c12.2,31.6,4.5,55,2.2,60.8,14.3,16.1,23,36.6,23,61.6,0,88.2-52.4,107.6-102.3,113.3,8,7.1,15.2,21.1,15.2,42.5,0,30.7-.3,55.5-.3,63,0,5.4,3.1,11.5,11.4,11.5a19.35,19.35,0,0,0,4-.4C415.9,449.2,480,363.1,480,261.7,480,134.9,379.7,32,256,32Z"/>
		</symbol>
		<symbol id="logo-linkedin" viewBox="0 0 512 512">
			<title>ionicons-v5_logos</title>
			<path d="M444.17,32H70.28C49.85,32,32,46.7,32,66.89V441.61C32,461.91,49.85,480,70.28,480H444.06C464.6,480,480,461.79,480,441.61V66.89C480.12,46.7,464.6,32,444.17,32ZM170.87,405.43H106.69V205.88h64.18ZM141,175.54h-.46c-20.54,0-33.84-15.29-33.84-34.43,0-19.49,13.65-34.42,34.65-34.42s33.85,14.82,34.31,34.42C175.65,160.25,162.35,175.54,141,175.54ZM405.43,405.43H341.25V296.32c0-26.14-9.34-44-32.56-44-17.74,0-28.24,12-32.91,23.69-1.75,4.2-2.22,9.92-2.22,15.76V405.43H209.38V205.88h64.18v27.77c9.34-13.3,23.93-32.44,57.88-32.44,42.13,0,74,27.77,74,87.64Z"/>
		</symbol>
		<symbol id="menu" viewBox="0 0 512 512">
			<title>ionicons-v5-j</title>
			<line x1="88" y1="152" x2="424" y2="152" style="fill:none;stroke:#f4f4f4;stroke-linecap:round;stroke-miterlimit:10;stroke-width:48px"/>
			<line x1="88" y1="256" x2="424" y2="256" style="fill:none;stroke:#f4f4f4;stroke-linecap:round;stroke-miterlimit:10;stroke-width:48px"/>
			<line x1="88" y1="360" x2="424" y2="360" style="fill:none;stroke:#f4f4f4;stroke-linecap:round;stroke-miterlimit:10;stroke-width:48px"/>
		</symbol>
		<symbol id="play" viewBox="0 0 512 512">
			<title>ionicons-v5-c</title>
			<path d="M133,440a35.37,35.37,0,0,1-17.5-4.67c-12-6.8-19.46-20-19.46-34.33V111c0-14.37,7.46-27.53,19.46-34.33a35.13,35.13,0,0,1,35.77.45L399.12,225.48a36,36,0,0,1,0,61L151.23,434.88A35.5,35.5,0,0,1,133,440Z"/>
		</symbol>
		<symbol id="send" viewBox="0 0 512 512">
			<title>ionicons-v5-q</title>
			<path d="M476.59,227.05l-.16-.07L49.35,49.84A23.56,23.56,0,0,0,27.14,52,24.65,24.65,0,0,0,16,72.59V185.88a24,24,0,0,0,19.52,23.57l232.93,43.07a4,4,0,0,1,0,7.86L35.53,303.45A24,24,0,0,0,16,327V440.31A23.57,23.57,0,0,0,26.59,460a23.94,23.94,0,0,0,13.22,4,24.55,24.55,0,0,0,9.52-1.93L476.4,285.94l.19-.09a32,32,0,0,0,0-58.8Z"/>
		</symbol>
		<symbol id="compass" viewBox='0 0 512 512'>
			<title>Compass</title>
			<circle cx='256' cy='256' r='24'/>
			<path d='M256 48C141.31 48 48 141.31 48 256s93.31 208 208 208 208-93.31 208-208S370.69 48 256 48zm105.07 113.33l-46.88 117.2a64 64 0 01-35.66 35.66l-117.2 46.88a8 8 0 01-10.4-10.4l46.88-117.2a64 64 0 0135.66-35.66l117.2-46.88a8 8 0 0110.4 10.4z'/>
		</symbol>
		<symbol id="mail" viewBox='0 0 512 512'>
			<title>Mail</title>
			<path d='M424 80H88a56.06 56.06 0 00-56 56v240a56.06 56.06 0 0056 56h336a56.06 56.06 0 0056-56V136a56.06 56.06 0 00-56-56zm-14.18 92.63l-144 112a16 16 0 01-19.64 0l-144-112a16 16 0 1119.64-25.26L256 251.73l134.18-104.36a16 16 0 0119.64 25.26z'/>
		</symbol>
		<symbol id="home" viewBox='0 0 512 512'>
			<title>Home</title>
			<path d="M80,212V448a16,16,0,0,0,16,16h96V328a24,24,0,0,1,24-24h80a24,24,0,0,1,24,24V464h96a16,16,0,0,0,16-16V212" style="fill:none;stroke-linecap:round;stroke-linejoin:round;stroke-width:32px"/><path d="M480,256,266.89,52c-5-5.28-16.69-5.34-21.78,0L32,256" style="fill:none;stroke-linecap:round;stroke-linejoin:round;stroke-width:32px"/><polyline points="400 179 400 64 352 64 352 133" style="fill:none;stroke-linecap:round;stroke-linejoin:round;stroke-width:32px"/>
		</symbol>
		<symbol id="person" viewBox='0 0 512 512'>
			<title>Person</title>
			<path d="M344,144c-3.92,52.87-44,96-88,96s-84.15-43.12-88-96c-4-55,35-96,88-96S348,90,344,144Z" style="fill:none;stroke-linecap:round;stroke-linejoin:round;stroke-width:32px"/><path d="M256,304c-87,0-175.3,48-191.64,138.6C62.39,453.52,68.57,464,80,464H432c11.44,0,17.62-10.48,15.65-21.4C431.3,352,343,304,256,304Z" style="fill:none;stroke-miterlimit:10;stroke-width:32px"/>
		</symbol>
		<symbol id="code" viewBox='0 0 512 512'>
			<title>Code</title>
			<polyline points="160 368 32 256 160 144" style="fill:none;stroke-linecap:round;stroke-linejoin:round;stroke-width:32px"/><polyline points="352 368 480 256 352 144" style="fill:none;stroke-linecap:round;stroke-linejoin:round;stroke-width:32px"/>
		</symbol>
		<symbol id="hammer" viewBox='0 0 512 512'>
			<title>hammer</title>
			<path d="M277.42,247a24.68,24.68,0,0,0-4.08-5.47L255,223.44a21.63,21.63,0,0,0-6.56-4.57,20.93,20.93,0,0,0-23.28,4.27c-6.36,6.26-18,17.68-39,38.43C146,301.3,71.43,367.89,37.71,396.29a16,16,0,0,0-1.09,23.54l39,39.43a16.13,16.13,0,0,0,23.67-.89c29.24-34.37,96.3-109,136-148.23,20.39-20.06,31.82-31.58,38.29-37.94A21.76,21.76,0,0,0,277.42,247Z" style="fill:none;stroke-linecap:round;stroke-linejoin:round;stroke-width:32px"/><path d="M478.43,201l-34.31-34a5.44,5.44,0,0,0-4-1.59,5.59,5.59,0,0,0-4,1.59h0a11.41,11.41,0,0,1-9.55,3.27c-4.48-.49-9.25-1.88-12.33-4.86-7-6.86,1.09-20.36-5.07-29a242.88,242.88,0,0,0-23.08-26.72c-7.06-7-34.81-33.47-81.55-52.53a123.79,123.79,0,0,0-47-9.24c-26.35,0-46.61,11.76-54,18.51-5.88,5.32-12,13.77-12,13.77A91.29,91.29,0,0,1,202.35,77a79.53,79.53,0,0,1,23.28-1.49C241.19,76.8,259.94,84.1,270,92c16.21,13,23.18,30.39,24.27,52.83.8,16.69-15.23,37.76-30.44,54.94a7.85,7.85,0,0,0,.4,10.83l21.24,21.23a8,8,0,0,0,11.14.1c13.93-13.51,31.09-28.47,40.82-34.46s17.58-7.68,21.35-8.09A35.71,35.71,0,0,1,380.08,194a13.65,13.65,0,0,1,3.08,2.38c6.46,6.56,6.07,17.28-.5,23.74l-2,1.89a5.5,5.5,0,0,0,0,7.84l34.31,34a5.5,5.5,0,0,0,4,1.58,5.65,5.65,0,0,0,4-1.58L478.43,209A5.82,5.82,0,0,0,478.43,201Z" style="fill:none;stroke-linecap:round;stroke-linejoin:round;stroke-width:32px"/>
		</symbol>
		<symbol id="mail-outline" viewBox='0 0 512 512'>
			<title>mail outline</title>
			<rect x="48" y="96" width="416" height="320" rx="40" ry="40" style="fill:none;stroke-linecap:round;stroke-linejoin:round;stroke-width:32px"/><polyline points="112 160 256 272 400 160" style="fill:none;stroke-linecap:round;stroke-linejoin:round;stroke-width:32px"/>
		</symbol>

	</defs>
</svg>
