<svg width="128" height="128" viewBox="0 0 128 128" fill="none" xmlns="http://www.w3.org/2000/svg">
<g clip-path="url(#clip0)">
<path d="M28.45 0H99.3501C102.8 0 106.15 0.55 109.4 1.7C114.1 3.4 118.35 6.4 121.55 10.3C124.8 14.2 126.95 19 127.7 24C128 25.85 128.05 27.7 128.05 29.55V98.7C128.05 100.9 127.95 103.15 127.5 105.3C126.5 110.25 124.15 114.9 120.75 118.65C117.4 122.4 113 125.2 108.25 126.7C105.35 127.6 102.35 128 99.3001 128C97.9501 128 28.25 128 27.2 127.95C22.1 127.7 17.05 126.05 12.8 123.2C8.65002 120.4 5.25002 116.5 3.05001 112C1.15001 108.15 0.200011 103.85 0.200011 99.55V28.45C0.100011 24.2 1.00001 20 2.85001 16.2C5.00002 11.7 8.35002 7.75 12.5 4.95C16.75 2.05 21.75 0.35 26.85 0.1C27.35 0 27.9 0 28.45 0V0Z" fill="url(#paint0_linear)"/>
<path d="M108 104.7C107.55 104 107.05 103.3 106.5 102.65C105.25 101.15 103.8 99.85 102.2 98.75C100.2 97.4 97.85 96.55 95.45 96.45C93.75 96.35 92.05 96.65 90.45 97.25C88.85 97.8 87.3 98.6 85.8 99.4C84.05 100.3 82.3 101.2 80.45 101.95C78.25 102.85 75.95 103.55 73.6 104.05C70.65 104.6 67.65 104.8 64.7 104.75C59.35 104.65 54 103.85 48.9 102.35C44.4 101 40.1 99.15 36.05 96.8C32.5 94.75 29.2 92.4 26.1 89.75C23.55 87.55 21.2 85.2 19 82.7C17.5 80.95 16.05 79.1 14.7 77.2C14.15 76.45 13.65 75.65 13.2 74.85L0 60.6V28.35C0 12.7 12.65 0 28.3 0H53.55L72.25 19C114.45 47.7 100.8 79.35 100.8 79.35C100.8 79.35 112.8 92.85 108 104.7V104.7Z" fill="url(#paint1_linear)"/>
<path d="M72.3499 19C114.55 47.7 100.9 79.35 100.9 79.35C100.9 79.35 112.9 92.9 108.05 104.75C108.05 104.75 103.1 96.45 94.7999 96.45C86.7999 96.45 82.0999 104.75 65.9999 104.75C30.15 104.75 13.2 74.8 13.2 74.8C45.5 96.05 67.5499 81 67.5499 81C53 72.55 22.05 32.15 22.05 32.15C49 55.1 60.65 61.15 60.65 61.15C53.7 55.4 34.2 27.3 34.2 27.3C49.8 43.1 80.7999 65.15 80.7999 65.15C89.5999 40.75 72.3499 19 72.3499 19Z" fill="white"/>
</g>
<defs>
<linearGradient id="paint0_linear" x1="76.1456" y1="-4.5675" x2="51.9621" y2="132.583" gradientUnits="userSpaceOnUse">
<stop stop-color="#FAAE42"/>
<stop offset="1" stop-color="#EF3E31"/>
</linearGradient>
<linearGradient id="paint1_linear" x1="65.306" y1="2.068" x2="47.6065" y2="102.446" gradientUnits="userSpaceOnUse">
<stop stop-color="#E39F3A"/>
<stop offset="1" stop-color="#D33929"/>
</linearGradient>
<clipPath id="clip0">
<rect width="128" height="128" fill="white"/>
</clipPath>
</defs>
</svg>
