<svg width="128" height="128" viewBox="0 0 128 128" fill="none" xmlns="http://www.w3.org/2000/svg">
<path d="M0 64V0H128V128H0" fill="#235A97"/>
<path d="M28.064 64.224V69.44H44.704V116.8H56.5121V69.44H73.1521V64.32C73.1521 61.44 73.1521 59.104 73.0241 59.04C73.0241 58.944 62.8801 58.912 50.56 58.912L28.16 59.008V64.256L28.064 64.224V64.224ZM102.848 58.88C106.112 59.648 108.608 61.12 110.848 63.456C112.032 64.736 113.792 66.976 113.92 67.552C113.92 67.744 108.384 71.488 105.024 73.568C104.896 73.664 104.384 73.12 103.872 72.288C102.208 69.92 100.512 68.896 97.8561 68.704C94.0161 68.448 91.4561 70.464 91.4561 73.824C91.4561 74.848 91.6481 75.424 92.0321 76.256C92.8961 78.016 94.4961 79.072 99.4561 81.248C108.608 85.184 112.576 87.7761 114.976 91.4881C117.696 95.6481 118.304 102.176 116.48 107.072C114.432 112.416 109.44 116.032 102.304 117.216C100.064 117.6 94.9441 117.536 92.5441 117.12C87.4241 116.16 82.5281 113.6 79.5201 110.304C78.3361 109.024 76.0641 105.6 76.1921 105.376L77.4081 104.608L82.2081 101.824L85.8241 99.7121L86.6561 100.832C87.7121 102.496 90.0801 104.736 91.4561 105.504C95.6161 107.648 101.184 107.36 103.936 104.864C105.12 103.776 105.632 102.624 105.632 101.024C105.632 99.5521 105.408 98.8801 104.672 97.7601C103.648 96.3521 101.6 95.2001 95.8401 92.6401C89.2161 89.8241 86.4001 88.0321 83.7761 85.28C82.2721 83.616 80.8961 81.024 80.2561 78.88C79.7761 77.024 79.6161 72.48 80.0641 70.656C81.4401 64.256 86.2721 59.776 93.1841 58.496C95.4241 58.048 100.704 58.24 102.912 58.816L102.848 58.88V58.88Z" fill="white"/>
</svg>
